<svg xmlns="http://www.w3.org/2000/svg" id="Capa_1" version="1.1" viewBox="0 0 300 200"><defs><clipPath id="clippath"><path d="M14.5 139.4h160.2v45.8H14.5z" style="fill:none"/></clipPath><style>.st1{isolation:isolate}.st2{fill:#007bc4}</style></defs><path d="M14.5 185.2h32v-45.8h-32zm14.8-42h.8v-.8h.8v.8h.8v.8h-.8v.8h-.8v-.8h-.8zM23.6 176h-1.5v1.5h-1.5V176h-1.5v-1.5h1.5V173h1.5v1.5h1.5zm0-9.1h-1.5v1.5h-1.5v-1.5h-1.5v-1.5h1.5v-1.5h1.5v1.5h1.5zm0-9.2h-1.5v1.5h-1.5v-1.5h-1.5v-1.5h1.5v-1.5h1.5v1.5h1.5zm7.7 16v.8c0 2.3.7 4.4 1.9 6.1h-5.3c1.2-1.7 1.9-3.8 1.9-6.1v-.8c-2.6-.4-4.6-2.6-4.6-5.3h10.7c0 2.7-2 4.9-4.5 5.3m1.4-17.5v1.5h-1.5v1.5h-1.5v-1.5h-1.5v-1.5h1.5v-1.5h1.5v1.5zm-2.3 4.6c1.7 0 3.1 1.4 3.1 3s-1.4 3.1-3.1 3.1-3-1.4-3-3.1 1.4-3 3-3m5.3-8H25.1v-1.2h10.7zm1.1-3.1-.6.8h-1.4l1-1.5c.2-.3.2-.6.2-.8 0-.4-.1-.6-.3-.9-.3-.3-.6-.4-1-.4h-.3c0 .3.1.6.1.9 0 .5 0 .9-.3 1.4l-.8 1.4h-1.4l1.1-1.9c.1-.2.2-.5.2-.8 0-.4-.1-.7-.4-1s-.6-.5-1-.5-.8.1-1 .4v3.7h-1.2v-3.8c-.2-.3-.6-.4-1-.4s-.7.1-1 .5-.4.6-.4 1 0 .6.2.8l1.1 1.9h-1.4l-.8-1.4c-.3-.5-.3-.9-.3-1.4s0-.6.1-.9-.1 0-.3 0c-.4 0-.7.1-1 .4q-.3.3-.3.9c0 .6 0 .5.2.8l1 1.5h-1.4l-.6-.8c-.3-.5-.5-.9-.5-1.5s.3-1.3.7-1.8c.5-.5 1.1-.8 1.8-.8s.6 0 1 .2c.5-.4 1-.6 1.7-.6s1.1.2 1.6.5c.5-.4 1-.5 1.6-.5s1.2.2 1.7.6c.3-.1.6-.2 1-.2.7 0 1.3.3 1.8.8s.7 1 .7 1.8c0 .6-.2 1.1-.5 1.5m5.4 26.4h-1.5v1.5h-1.5V176h-1.5v-1.5h1.5V173h1.5v1.5h1.5zm0-9.1h-1.5v1.5h-1.5v-1.5h-1.5v-1.5h1.5v-1.5h1.5v1.5h1.5zm0-9.2h-1.5v1.5h-1.5v-1.5h-1.5v-1.5h1.5v-1.5h1.5v1.5h1.5zm25.9 15.1c0 4.9-2.8 7.7-7.1 7.7h-5v-15.2h4.8c4.4 0 7.3 2.7 7.3 7.5m-2.2 0c0-3.8-2.2-5.7-5.2-5.7h-2.8v11.6h2.9c3 0 5.1-2 5.1-5.9m5.8-7.5h9.4l-.6 1.9h-6.8v4.5h6.1v1.9h-6.1v5.2h6.9l.6 1.9h-9.5v-15.2Zm18.3 7.6c0-4.8 3-7.9 7.5-7.9s3.7.7 5.2 1.5v2.3c-1.9-1.2-3.9-1.9-5.2-1.9-3.1 0-5.4 2.4-5.4 6s1.9 6.2 4.8 6.2 4.6-1.7 4.8-4.5h-4.3l-.6-1.9h6.8c0 .4.1.9.1 1.4 0 4-2.7 6.9-6.9 6.9-4.3 0-6.9-3.1-6.9-8.1m22.2-7.6h1.3l6.4 15.3h-2.2l-1.5-3.7H109l-1.5 3.7h-2.1zm3.3 9.7-2.7-6.7-2.7 6.7zm7.2-9.7h2v13.4h7.1l.6 1.9h-9.7zm12.5 0h2v15.3h-2zm5.6 7.5c0-4.7 2.6-7.9 6.7-7.9s3.7.7 5.1 1.7v2.3c-1.7-1.3-3.5-2.1-5.1-2.1-2.6 0-4.6 2.3-4.6 6s1.9 6.2 4.6 6.2 3.4-.9 5.1-2.1v2.3c-1.4 1-3.3 1.7-5.1 1.7-4.2 0-6.7-3.2-6.7-8.1m15.4-7.5h2v15.3h-2zm11.1 0h1.3l6.4 15.3h-2.2l-1.5-3.7h-6.8l-1.5 3.7h-2.1zm3.4 9.7-2.7-6.7-2.7 6.7zM60.8 151.4l-4.9-7.4h2.3l3.8 5.8 3.8-5.8h2.3l-4.9 7.5 5.1 7.8H66l-4.1-6.2-4 6.2h-2.3l5.2-7.8Zm10 2.7V144h2v10.1c0 2.4 1.4 3.7 3.7 3.7s3.7-1.3 3.7-3.7V144h2v10.2c0 3.4-2.2 5.5-5.7 5.5s-5.7-2.1-5.7-5.5M86.4 144h1.7l7.8 10.9V144h2v15.3h-1.1l-8.4-11.7v11.7h-2zm20.4 1.8h-5.5l-.6-1.9H115l-.6 1.9h-5.5v13.4h-2v-13.4Zm13.8-1.8h1.3l6.4 15.3h-2.2l-1.5-3.7h-6.8l-1.5 3.7h-2.1zm3.3 9.7-2.7-6.7-2.7 6.7z" class="st2" style="clip-path:url(#clippath)"/><path d="M183.8 139.4h1.6v45.8h-1.6z" class="st2"/><g class="st1"><path d="M193.9 149c0-2.9 1.6-4.8 4.1-4.8s2.3.4 3.1 1v1.4c-1-.8-2.2-1.3-3.1-1.3-1.6 0-2.8 1.4-2.8 3.6s1.1 3.8 2.8 3.8 2.1-.5 3.1-1.3v1.4c-.8.6-2 1-3.1 1-2.6 0-4.1-2-4.1-4.9ZM202.5 149c0-2.9 1.6-4.8 4.2-4.8s4.2 1.9 4.2 4.8-1.6 5-4.2 5-4.2-1.9-4.2-5m7.1 0c0-2.3-1.1-3.7-2.9-3.7s-2.9 1.4-2.9 3.7 1.1 3.8 2.9 3.8 2.9-1.3 2.9-3.8M212.8 144.4h1l4.8 6.6v-6.6h1.2v9.3h-.7l-5.1-7.1v7.1h-1.2zM221.7 153.2v-1.3c.8.5 1.8.9 2.5.9 1.2 0 2.1-.6 2.1-1.5s-.8-1.3-1.9-1.9c-1.4-.7-2.5-1.2-2.5-2.8s1.1-2.4 2.8-2.4 1.8.3 2.6.7v1.3c-.9-.5-1.8-.8-2.6-.8-1.1 0-1.6.6-1.6 1.3s.6 1.1 1.7 1.6c1.6.8 2.7 1.3 2.7 3s-1.3 2.7-3.3 2.7c-.9 0-1.9-.3-2.5-.7ZM229.3 144.4h5.7l-.4 1.1h-4.1v2.8h3.7v1.1h-3.7v3.2h4.2l.4 1.1h-5.8zM236.9 144.4h1.2v8.2h4.3l.4 1.1h-5.9zM244.3 144.4h1.2v8.2h4.3l.4 1.1h-5.9zM251.7 144.4h5.7l-.4 1.1h-4.1v2.8h3.7v1.1h-3.7v3.2h4.2l.4 1.1h-5.8zM259.2 144.4h2.7c2 0 3.1 1 3.1 2.7s-1.1 2.6-2.9 2.7l3.6 4h-1.6l-3.5-3.9h-.3v3.9h-1.2v-9.3Zm2.6 4.3c1.2 0 2-.7 2-1.7s-.7-1.6-1.9-1.6h-1.4v3.2h1.4ZM267.2 143l1.2-1.8h1.6l-1.9 2.2-.8-.5Zm0 1.4h1.2v9.3h-1.2zM273.8 144.4h.8l3.9 9.3h-1.3l-.9-2.3h-4.2l-.9 2.3h-1.3zm2 5.9-1.6-4.1-1.6 4.1h3.3Z" class="st2"/></g><g class="st1"><path d="M201.8 162.2c0 3-1.7 4.7-4.3 4.7h-3.1v-9.3h2.9c2.7 0 4.4 1.7 4.4 4.6Zm-1.3 0c0-2.3-1.3-3.5-3.2-3.5h-1.7v7h1.8c1.8 0 3.1-1.2 3.1-3.6ZM203.7 157.6h5.7l-.4 1.1h-4.1v2.8h3.7v1.1h-3.7v3.2h4.2l.4 1.1h-5.8zM214.9 157.6h5.7l-.4 1.1h-4.1v2.8h3.7v1.1h-3.7v3.2h4.2l.4 1.1h-5.8zM221.7 162.2c0-2.9 1.6-4.8 4.1-4.8s2.3.4 3.1 1v1.4c-1-.8-2.2-1.3-3.1-1.3-1.6 0-2.8 1.4-2.8 3.6s1.1 3.8 2.8 3.8 2.1-.5 3.1-1.3v1.4c-.8.6-2 1-3.1 1-2.6 0-4.1-2-4.1-4.9ZM230.3 162.2c0-2.9 1.6-4.8 4.2-4.8s4.2 1.9 4.2 4.8-1.6 5-4.2 5-4.2-1.9-4.2-5m7.1 0c0-2.3-1.1-3.7-2.9-3.7s-2.9 1.4-2.9 3.7 1.1 3.8 2.9 3.8 2.9-1.3 2.9-3.8M240.6 157.6h1l4.8 6.6v-6.6h1.2v9.3h-.7l-5.1-7.1v7.1h-1.2zM249.6 162.2c0-2.9 1.6-4.8 4.2-4.8s4.2 1.9 4.2 4.8-1.6 5-4.2 5-4.2-1.9-4.2-5m7.1 0c0-2.3-1.1-3.7-2.9-3.7s-2.9 1.4-2.9 3.7 1.1 3.8 2.9 3.8 2.9-1.3 2.9-3.8M259.9 157.6h1.1l3.4 6.9 3.4-6.9h1.1v9.3h-1.2v-6.7l-3.1 6.4h-.4l-3.1-6.4v6.7h-1.2zM271.3 156.2l1.2-1.8h1.6l-1.9 2.2-.8-.5Zm.1 1.4h1.2v9.3h-1.2zM277.9 157.6h.8l3.9 9.3h-1.3l-.9-2.3h-4.2l-.9 2.3H274zm2 5.9-1.6-4.1-1.6 4.1h3.3Z" class="st2"/></g><g class="st1"><path d="M194.4 171.4h5.7l-.4 1.1h-4.1v2.8h3.7v1.1h-3.7v3.2h4.2l.4 1.1h-5.8zM205.5 171.4h1.2v9.3h-1.2zM209.2 171.4h1l4.8 6.6v-6.6h1.2v9.3h-.7l-5.1-7.1v7.1h-1.2zM226.1 176c0 3-1.7 4.7-4.3 4.7h-3.1v-9.3h2.9c2.7 0 4.4 1.7 4.4 4.6Zm-1.3 0c0-2.3-1.3-3.5-3.2-3.5h-1.7v7h1.8c1.8 0 3.1-1.2 3.1-3.6ZM228 177.6v-6.2h1.2v6.1c0 1.4.9 2.3 2.2 2.3s2.2-.8 2.2-2.3v-6.1h1.2v6.2c0 2.1-1.3 3.4-3.4 3.4s-3.4-1.3-3.4-3.4M236.6 180.2v-1.3c.8.5 1.8.9 2.5.9 1.2 0 2.1-.6 2.1-1.5s-.8-1.3-1.9-1.9c-1.4-.7-2.5-1.2-2.5-2.8s1.1-2.4 2.8-2.4 1.8.3 2.6.7v1.3c-.9-.5-1.8-.8-2.6-.8-1.1 0-1.6.6-1.6 1.3s.6 1.1 1.7 1.6c1.6.8 2.7 1.3 2.7 3s-1.3 2.7-3.3 2.7c-.9 0-1.9-.3-2.5-.7ZM247 172.6h-3.4l-.4-1.1h8.7l-.4 1.1h-3.4v8.2h-1.2v-8.2ZM253.4 171.4h2.7c2 0 3.1 1 3.1 2.7s-1.1 2.6-2.9 2.7l3.6 4h-1.6l-3.5-3.9h-.3v3.9h-1.2v-9.3Zm2.5 4.4c1.2 0 2-.7 2-1.7s-.7-1.6-1.9-1.6h-1.4v3.2h1.4ZM261.4 171.4h1.2v9.3h-1.2zM268 171.4h.8l3.9 9.3h-1.3l-.9-2.3h-4.2l-.9 2.3h-1.3zm2 6-1.6-4.1-1.6 4.1h3.3Z" class="st2"/></g><path d="M14.2 78.5v-63h4.6v63zM40.7 78.5v-63h42.1v4.1H45.3v54.7h38.9v4.1H40.7Zm4.1-30v-4h34.1v4zM100.9 78.5v-63h26.3c6.8 0 12.1 1.4 15.9 4.1 3.8 2.8 5.8 6.8 5.8 12s-.8 6.3-2.4 8.6-3.9 4.1-6.7 5.3c-2.9 1.2-6 1.8-9.6 1.8l1.6-1.8c4.3 0 8 .6 11.1 1.9s5.4 3.1 7 5.5q2.4 3.6 2.4 9c0 5.3-1.9 9.4-5.8 12.3-3.8 2.9-9.7 4.4-17.5 4.4h-28.1Zm4.6-4H129c6.1 0 10.7-1 13.9-3.1q4.8-3.15 4.8-9.9c0-6.75-1.6-7.8-4.8-9.9s-7.8-3.1-13.9-3.1h-24v-4h22.1c5.5 0 9.7-1 12.7-3.1s4.5-5.2 4.5-9.4-1.5-7.3-4.5-9.4-7.2-3.1-12.7-3.1h-21.5v55.1ZM179.1 78.5V19.6h-22.7v-4.1h49.9v4.1h-22.7v58.9H179ZM14.5 118.5v-13h1.2v3.6l-.2-.4c.4-1 1.1-1.8 2-2.4s2-.9 3.4-.9 2 .2 2.8.6q1.2.6 1.8 1.8c.6 1.2.7 1.8.7 3.1v7.6H25V111c0-1.5-.4-2.6-1.1-3.4s-1.8-1.1-3.1-1.1-1.9.2-2.6.6c-.8.4-1.3 1-1.7 1.8s-.6 1.6-.6 2.7v7h-1.2ZM33.1 107.7c-.8 0-1.5-.2-2.2-.5-.6-.3-1.1-.8-1.5-1.4s-.5-1.3-.5-2 .2-1.5.5-2.1c.4-.6.9-1.1 1.5-1.4s1.4-.5 2.2-.5 1.5.2 2.2.5c.6.3 1.1.8 1.5 1.4s.5 1.3.5 2.1-.2 1.4-.5 2c-.4.6-.9 1.1-1.5 1.4s-1.4.5-2.2.5m0-.8c1 0 1.7-.3 2.3-.9s.9-1.3.9-2.2-.3-1.7-.9-2.3-1.4-.9-2.3-.9-1.7.3-2.3.9-.9 1.3-.9 2.3.3 1.7.9 2.2 1.4.9 2.3.9M53 118.6c-1.5 0-2.8-.3-3.9-1q-1.5-1.05-2.4-3c-.5-1.3-.8-2.9-.8-4.7s.3-3.6 1-5q1.05-1.95 2.7-3c1.2-.7 2.5-1 4.1-1s1.5 0 2.1.2c.7.1 1.3.4 1.8.7l-.5 1c-.4-.3-1-.5-1.6-.6s-1.2-.2-1.9-.2c-2 0-3.5.6-4.7 1.9q-1.8 1.95-1.8 5.7v1.5c0 .6.2 1.2.3 1.7h-.5c.1-1.1.4-1.9 1-2.6.5-.7 1.2-1.2 2-1.6s1.8-.5 2.8-.5 2.2.2 3.1.6 1.6 1 2 1.8.7 1.7.7 2.8-.3 2-.8 2.8q-.75 1.2-2.1 1.8c-1.35.6-1.9.6-3 .6Zm0-1.1c.9 0 1.7-.2 2.4-.5s1.2-.8 1.6-1.5.6-1.4.6-2.2c0-1.2-.4-2.2-1.3-3s-2-1.1-3.5-1.1-1.8.2-2.5.5c-.7.4-1.3.9-1.7 1.5q-.6.9-.6 2.1c0 1.2.2 1.3.6 2s.9 1.1 1.7 1.5c.7.4 1.7.6 2.7.6ZM68.1 118.6c-1.5 0-2.8-.3-3.9-1q-1.5-1.05-2.4-3c-.5-1.3-.8-2.9-.8-4.7s.3-3.6 1-5q1.05-1.95 2.7-3c1.2-.7 2.5-1 4.1-1s1.5 0 2.1.2c.7.1 1.3.4 1.8.7l-.5 1c-.4-.3-1-.5-1.6-.6s-1.2-.2-1.9-.2c-2 0-3.5.6-4.7 1.9q-1.8 1.95-1.8 5.7v1.5c0 .6.2 1.2.3 1.7H62c.1-1.1.4-1.9 1-2.6.5-.7 1.2-1.2 2-1.6s1.8-.5 2.8-.5 2.2.2 3.1.6 1.6 1 2 1.8.7 1.7.7 2.8-.3 2-.8 2.8q-.75 1.2-2.1 1.8c-1.35.6-1.9.6-3 .6Zm-.1-1.1c.9 0 1.7-.2 2.4-.5s1.2-.8 1.6-1.5.6-1.4.6-2.2c0-1.2-.4-2.2-1.3-3s-2-1.1-3.5-1.1-1.8.2-2.5.5c-.7.4-1.3.9-1.7 1.5q-.6.9-.6 2.1c0 1.2.2 1.3.6 2s.9 1.1 1.7 1.5c.7.4 1.7.6 2.7.6ZM74.4 121l8.2-23.5h1.2L75.6 121zM89.5 118.6q-1.95 0-3.6-.6c-1.65-.6-2-1-2.6-1.7l.6-1c.5.6 1.3 1.1 2.3 1.5q1.5.6 3.3.6c1.8 0 2.8-.3 3.6-1s1.2-1.6 1.2-2.8-.4-2.1-1.2-2.8-2.1-1.1-3.9-1.1h-1.1v-.9l5.6-7.1.2.5H84v-1.1h11v.9l-5.5 7.1-.6-.4h.6c2.1 0 3.6.5 4.7 1.4q1.5 1.35 1.5 3.6c0 2.25-.2 1.8-.7 2.6s-1.1 1.4-2 1.8-2 .6-3.4.6ZM105.2 118.6c-1.3 0-2.5-.4-3.5-1.1s-1.8-1.7-2.4-3.1c-.6-1.3-.9-2.9-.9-4.7s.3-3.4.9-4.7 1.4-2.3 2.4-3.1 2.2-1.1 3.5-1.1 2.5.4 3.6 1.1c1 .7 1.8 1.7 2.4 3.1.6 1.3.9 2.9.9 4.7s-.3 3.4-.9 4.7-1.4 2.3-2.4 3.1c-1 .7-2.2 1.1-3.6 1.1m0-1.2c1.1 0 2.1-.3 2.9-.9s1.5-1.5 1.9-2.6c.5-1.2.7-2.5.7-4.2s-.2-3-.7-4.2-1.1-2-1.9-2.6-1.8-.9-2.9-.9-2.1.3-2.9.9-1.5 1.5-2 2.6-.7 2.5-.7 4.2.2 3 .7 4.2c.5 1.1 1.1 2 2 2.6s1.8.9 2.9.9M114.5 113.6v-.9L124 101h1.4l-9.5 11.7-.7-.2h14.1v1.1h-14.9Zm9.9 4.9v-10.3h1.2v10.2h-1.2ZM129.9 121l8.2-23.5h1.2l-8.2 23.5zM139.5 118.5v-.9l7.4-7.4c.7-.7 1.2-1.3 1.6-1.8.3-.5.6-1 .7-1.5s.2-.9.2-1.3c0-1.1-.4-2-1.1-2.6s-1.9-1-3.3-1-2.1.2-2.9.5q-1.2.45-2.1 1.5l-.9-.8c.7-.8 1.5-1.4 2.5-1.8s2.2-.6 3.5-.6 2.1.2 3 .6 1.5.9 2 1.6.7 1.5.7 2.5 0 1.1-.2 1.7c-.2.5-.4 1.1-.9 1.7-.4.6-1 1.3-1.8 2l-6.9 6.9-.4-.5h11.1v1.1h-12ZM160.7 118.6c-1.3 0-2.5-.4-3.5-1.1s-1.8-1.7-2.4-3.1c-.6-1.3-.9-2.9-.9-4.7s.3-3.4.9-4.7 1.4-2.3 2.4-3.1 2.2-1.1 3.5-1.1 2.5.4 3.6 1.1c1 .7 1.8 1.7 2.4 3.1.6 1.3.9 2.9.9 4.7s-.3 3.4-.9 4.7-1.4 2.3-2.4 3.1c-1 .7-2.2 1.1-3.6 1.1m0-1.2c1.1 0 2.1-.3 2.9-.9s1.5-1.5 1.9-2.6c.5-1.2.7-2.5.7-4.2s-.2-3-.7-4.2-1.1-2-1.9-2.6-1.8-.9-2.9-.9-2.1.3-2.9.9-1.5 1.5-2 2.6-.7 2.5-.7 4.2.2 3 .7 4.2c.5 1.1 1.1 2 2 2.6s1.8.9 2.9.9M173.4 118.5v-17l.6.6h-4.9V101h5.6v17.5zM183.6 118.6c-.8 0-1.5 0-2.1-.2-.7-.1-1.3-.4-1.8-.7l.5-1c.5.3 1 .5 1.6.6s1.2.2 1.9.2c2 0 3.5-.6 4.7-1.9q1.8-1.95 1.8-5.7v-1.5c0-.6-.2-1.2-.3-1.7h.5c-.1 1.1-.4 1.9-1 2.6-.5.7-1.2 1.2-2 1.6s-1.7.6-2.8.6-2.2-.2-3.1-.6-1.6-1-2-1.8c-.5-.8-.7-1.7-.7-2.8s.3-2 .8-2.8q.75-1.2 2.1-1.8c1.35-.6 1.9-.6 3-.6s2.8.4 3.9 1q1.5 1.05 2.4 3c.5 1.3.8 2.9.8 4.7s-.3 3.6-1 5q-1.05 1.95-2.7 3c-1.2.7-2.5 1-4.1 1Zm1-8.4c1 0 1.8-.2 2.5-.5.7-.4 1.3-.9 1.7-1.5q.6-.9.6-2.1c0-1.2-.2-1.3-.6-2-.4-.6-.9-1.1-1.7-1.5s-1.7-.6-2.8-.6-1.7.2-2.4.5-1.2.8-1.6 1.4-.6 1.4-.6 2.2c0 1.2.4 2.2 1.3 3s2 1.1 3.5 1.1ZM191.7 121l8.2-23.5h1.2l-8.2 23.5zM203.6 102.2c-.3 0-.5-.1-.7-.3s-.3-.4-.3-.7 0-.5.3-.7c.2-.2.4-.3.7-.3s.5 0 .7.3c.2.2.3.4.3.7s0 .5-.3.7c-.2.2-.4.3-.7.3m-.6 16.3v-13h1.2v13zM214.8 118.6c-1.3 0-2.5-.3-3.5-.9s-1.8-1.3-2.4-2.3-.9-2.1-.9-3.4.3-2.4.8-3.4 1.3-1.8 2.2-2.3c.9-.6 2-.8 3.2-.8s2.2.3 3.2.8c.9.6 1.7 1.3 2.2 2.3s.8 2.1.8 3.4v.4h-11.5v-1h10.8l-.5.5q0-1.5-.6-2.7c-.6-1.2-1-1.4-1.8-1.9s-1.6-.7-2.6-.7-1.8.2-2.6.7-1.4 1.1-1.8 1.9-.6 1.7-.6 2.8v.2c0 1.1.2 2 .7 2.8s1.1 1.5 2 1.9c.8.5 1.8.7 2.8.7s1.6-.2 2.3-.5 1.3-.8 1.8-1.4l.7.8c-.6.7-1.3 1.2-2.1 1.6s-1.8.5-2.8.5ZM224.5 118.5V100h1.2v9.7l-.2 2.3.2 2.3v4.3h-1.2Zm6.5.1c-1.2 0-2.2-.3-3.1-.8s-1.7-1.3-2.2-2.3-.8-2.2-.8-3.5.3-2.6.8-3.6 1.3-1.7 2.2-2.3c.9-.5 2-.8 3.1-.8s2.3.3 3.3.8c1 .6 1.7 1.3 2.3 2.3s.8 2.1.8 3.5-.3 2.4-.8 3.4-1.3 1.8-2.3 2.3c-1 .6-2.1.8-3.3.8Zm-.1-1.2c1 0 1.9-.2 2.7-.7s1.4-1.1 1.9-1.9.7-1.8.7-2.9-.2-2.1-.7-2.9-1.1-1.5-1.9-1.9c-.8-.5-1.7-.7-2.7-.7s-1.9.2-2.7.7-1.4 1.1-1.9 1.9-.7 1.8-.7 2.9.2 2 .7 2.9c.5.8 1.1 1.5 1.9 1.9.8.5 1.7.7 2.7.7M239.2 106.5v-1.1h7.8v1.1zm5.9 12.1c-1.2 0-2-.3-2.6-1s-.9-1.5-.9-2.6v-12.4h1.2v12.3c0 .8.2 1.5.6 1.9s1 .7 1.8.7 1.5-.2 2-.7l.5.9c-.3.3-.7.6-1.2.7-.5.2-1 .2-1.5.2Z"/></svg>