<svg xmlns="http://www.w3.org/2000/svg" id="Layer_1" version="1.1" viewBox="0 0 521.7 279.2"><defs><style>.st2{fill:#636569}.st6{fill:#ffc844}</style></defs><path d="M88 183.3v5.4H74v-27.2h6.3v21.8zM110.3 170v18.7h-5.9v-2.6q-.3.6-.9 1.2c-.4.4-.8.7-1.3 1s-1.1.5-1.7.7q-.9.3-1.8.3c-1.3 0-2.6-.3-3.7-.8s-2.1-1.2-2.9-2.1-1.4-1.9-1.9-3.1c-.4-1.2-.7-2.5-.7-3.9s.2-2.7.7-3.9c.4-1.2 1.1-2.2 1.9-3.1s1.8-1.6 2.9-2.1 2.4-.8 3.7-.8 1.2 0 1.8.3c.6.2 1.1.4 1.7.7.5.3 1 .6 1.3 1q.6.6.9 1.2V170zm-10.4 14.1c.7 0 1.3-.1 1.8-.4s1-.6 1.4-1q.6-.6.9-1.5t.3-1.8c0-.9-.1-1.3-.3-1.8q-.3-.9-.9-1.5c-.4-.4-.9-.8-1.4-1.1s-1.2-.4-1.8-.4-1.3.1-1.8.4-1 .6-1.4 1.1q-.6.6-.9 1.5t-.3 1.8c0 .9.1 1.3.3 1.8q.3.9.9 1.5c.4.4.9.8 1.4 1 .5.3 1.2.4 1.8.4M127.1 188.7c-.4 0-1 .1-1.7.2h-2.3c-.9 0-1.4 0-2.2-.2-.8-.1-1.5-.4-2.2-.8s-1.2-1.1-1.6-2-.6-2.1-.6-3.7v-8h-3v-4.4h3v-5.6h5.9v5.6h4.3v4.4h-4.3v6.7c0 .7 0 1.3.2 1.7.1.4.3.7.5.9s.5.4.8.4.6.1 1 .1h2.1v4.5ZM134.5 180.8c0 .6.1 1.1.2 1.6s.4.9.7 1.3.7.7 1.3.9c.5.2 1.2.3 1.9.3s1.8-.2 2.4-.6c.5-.4.9-.9 1.1-1.5h5.8c-.1.9-.4 1.7-.9 2.5s-1.1 1.5-1.9 2c-.8.6-1.7 1-2.8 1.4-1.1.3-2.3.5-3.6.5s-3.1-.2-4.3-.7c-1.3-.5-2.3-1.2-3.2-2-.9-.9-1.5-1.9-1.9-3.1s-.7-2.5-.7-4 .2-2.7.6-3.8c.4-1.2 1.1-2.2 1.9-3.1s1.9-1.6 3.1-2.1 2.7-.8 4.3-.8 2.8.2 4 .7 2.2 1.1 3 1.9 1.5 1.7 1.9 2.7c.5 1 .7 2.1.7 3.3v1.2c0 .4 0 .9-.2 1.5h-13.5Zm4-7.4c-1.2 0-2.1.3-2.9 1s-1.1 1.6-1.1 2.9h7.9c0-1.2-.4-2.2-1.1-2.9s-1.6-1.1-2.8-1.1ZM152.3 170h5.9v2.7q.75-1.5 2.4-2.4c1.1-.6 2.3-.8 3.8-.8s2.3.2 3.2.6 1.6.9 2.1 1.6c.6.7 1 1.6 1.2 2.5s.3 2.1.3 3.4v11.1h-5.9v-9.6c0-1.3-.2-2.4-.7-3.3-.5-.8-1.3-1.3-2.6-1.3s-2.1.4-2.7 1.3-.9 2-.9 3.5v9.4h-5.9V170ZM187.6 188.7c-.4 0-1 .1-1.7.2h-2.3c-.9 0-1.4 0-2.2-.2-.8-.1-1.5-.4-2.2-.8s-1.2-1.1-1.6-2-.6-2.1-.6-3.7v-8h-3v-4.4h3v-5.6h5.9v5.6h4.3v4.4h-4.3v6.7c0 .7 0 1.3.2 1.7.1.4.3.7.5.9s.5.4.8.4.6.1 1 .1h2.1v4.5ZM199.6 189.2c-1.6 0-3.1-.3-4.3-.8q-1.95-.75-3.3-2.1c-.9-.9-1.6-1.9-2.1-3.1s-.7-2.5-.7-3.8.2-2.6.7-3.8 1.2-2.2 2.1-3.1q1.35-1.35 3.3-2.1c1.3-.5 2.7-.8 4.3-.8s3.1.3 4.4.8q1.95.75 3.3 2.1c.9.9 1.6 1.9 2.1 3.1s.7 2.5.7 3.8-.2 2.6-.7 3.8-1.2 2.2-2.1 3.1q-1.35 1.35-3.3 2.1c-1.3.5-2.7.8-4.4.8m0-5.1c.7 0 1.3-.1 1.8-.4.6-.2 1-.6 1.4-1q.6-.6.9-1.5c.2-.6.3-1.2.3-1.9s-.1-1.3-.3-1.8q-.3-.9-.9-1.5c-.4-.4-.9-.8-1.4-1-.6-.3-1.2-.4-1.8-.4s-1.3.1-1.8.4-1 .6-1.4 1q-.6.6-.9 1.5t-.3 1.8c0 .9.1 1.3.3 1.9q.3.9.9 1.5c.4.4.9.8 1.4 1s1.2.4 1.8.4" class="st2"/><path d="M48.5 203.6h11.4c1.5 0 2.9.3 4.1.8s2.3 1.2 3.1 2.1c.9.9 1.5 1.9 2 3.1s.7 2.4.7 3.8-.2 2.6-.7 3.8-1.1 2.2-2 3.1-1.9 1.6-3.1 2.1-2.6.8-4.1.8h-5.1v7.5h-6.3v-27.2Zm10.6 14.5c.6 0 1.2-.1 1.8-.4.5-.3 1-.6 1.4-1q.6-.6.9-1.5t.3-1.8c0-.9-.1-1.2-.3-1.8q-.3-.9-.9-1.5c-.4-.4-.8-.8-1.4-1-.5-.3-1.1-.4-1.8-.4h-4.3v9.4zM81.1 231.3c-1.6 0-3-.3-4.3-.8q-1.95-.75-3.3-2.1c-.9-.9-1.6-1.9-2.1-3.1s-.7-2.5-.7-3.8.2-2.6.7-3.8 1.2-2.2 2.1-3.1q1.35-1.35 3.3-2.1c1.3-.5 2.7-.8 4.3-.8s3.1.3 4.4.8q1.95.75 3.3 2.1c.9.9 1.6 1.9 2.1 3.1s.7 2.5.7 3.8-.2 2.6-.7 3.8-1.2 2.2-2.1 3.1q-1.35 1.35-3.3 2.1c-1.3.5-2.7.8-4.4.8m0-5.1c.7 0 1.3-.1 1.8-.4.6-.2 1-.6 1.4-1q.6-.6.9-1.5c.2-.6.3-1.2.3-1.9s-.1-1.3-.3-1.8q-.3-.9-.9-1.5c-.4-.4-.9-.8-1.4-1-.6-.3-1.2-.4-1.8-.4s-1.3.1-1.8.4-1 .6-1.4 1q-.6.6-.9 1.5t-.3 1.8c0 .9.1 1.3.3 1.9q.3.9.9 1.5c.4.4.9.8 1.4 1s1.2.4 1.8.4M107 230.8c-.4 0-1 .1-1.7.2H103c-.9 0-1.4 0-2.2-.2-.8-.1-1.5-.4-2.2-.8s-1.2-1.1-1.6-2-.6-2.1-.6-3.7v-8h-3v-4.4h3v-5.6h5.9v5.6h4.3v4.4h-4.3v6.7c0 .7 0 1.3.2 1.7.1.4.3.7.5.9s.5.4.8.4.6.1 1 .1h2.1v4.6ZM114.5 222.9c0 .6.1 1.1.2 1.6s.4.9.7 1.3.7.7 1.3.9c.5.2 1.2.3 1.9.3s1.8-.2 2.4-.6c.5-.4.9-.9 1.1-1.5h5.8c-.1.9-.4 1.7-.9 2.5s-1.1 1.5-1.9 2c-.8.6-1.7 1-2.8 1.4-1.1.3-2.3.5-3.6.5s-3.1-.2-4.3-.7c-1.3-.5-2.3-1.2-3.2-2-.9-.9-1.5-1.9-1.9-3.1s-.7-2.5-.7-4 .2-2.7.6-3.8c.4-1.2 1.1-2.2 1.9-3.1s1.9-1.6 3.1-2.1 2.7-.8 4.3-.8 2.8.2 4 .7 2.2 1.1 3 1.9 1.5 1.7 1.9 2.7c.5 1 .7 2.1.7 3.3v1.2c0 .4 0 .9-.2 1.5h-13.5Zm4-7.4c-1.2 0-2.1.3-2.9 1s-1.1 1.6-1.1 2.9h7.9c0-1.2-.4-2.2-1.1-2.9s-1.6-1-2.8-1M132.2 212.1h5.9v2.7q.75-1.5 2.4-2.4c1.1-.6 2.3-.8 3.8-.8s2.3.2 3.2.6 1.6.9 2.1 1.6c.6.7 1 1.6 1.2 2.5s.3 2.1.3 3.4v11.1h-5.9v-9.6c0-1.3-.2-2.4-.7-3.3-.5-.8-1.3-1.3-2.6-1.3s-2.1.4-2.7 1.3-.9 2-.9 3.5v9.4h-5.9v-18.7ZM168.4 219.4c-.1-.8-.5-1.5-1-2-.6-.5-1.4-.8-2.7-.8s-1.3.1-1.8.4-1 .6-1.3 1-.6 1-.8 1.5c-.2.6-.2 1.2-.2 1.8s0 1.3.2 1.8c.2.6.4 1.1.8 1.5s.8.8 1.4 1.1 1.2.4 2 .4 1.8-.2 2.3-.6q.75-.6 1.2-1.8h5.9c-.2 1.1-.5 2-.9 3-.5.9-1.1 1.7-1.9 2.4s-1.8 1.2-2.9 1.6q-1.8.6-3.9.6c-2.1 0-3.1-.3-4.3-.8-1.3-.5-2.3-1.3-3.2-2.2s-1.5-2-1.9-3.1c-.4-1.2-.6-2.4-.6-3.7s.2-2.5.6-3.7 1.1-2.2 1.9-3.1c.9-.9 1.9-1.6 3.2-2.2 1.3-.5 2.7-.8 4.3-.8s3 .2 4.1.7c1.2.4 2.1 1 2.9 1.7s1.4 1.6 1.8 2.5.7 1.9.8 2.9h-5.9ZM177.3 205.9c0-1.1.4-2 1.1-2.7s1.6-1.1 2.7-1.1 1 .1 1.5.3.9.5 1.2.8c.4.3.6.7.8 1.2q.3.75.3 1.5c0 .75 0 1-.3 1.5-.2.5-.5.9-.8 1.2-.4.4-.8.6-1.2.8q-.75.3-1.5.3c-.75 0-1 0-1.5-.3-.5-.2-.9-.5-1.2-.8-.4-.3-.6-.8-.8-1.2-.2-.5-.3-.9-.3-1.5m.8 6.2h5.9v18.7h-5.9zM208.8 212.1v18.7h-5.9v-2.6q-.3.6-.9 1.2c-.4.4-.8.7-1.3 1s-1.1.5-1.7.7q-.9.3-1.8.3c-1.3 0-2.6-.3-3.7-.8s-2.1-1.2-2.9-2.1-1.4-1.9-1.9-3.1c-.4-1.2-.7-2.5-.7-3.9s.2-2.7.7-3.9c.4-1.2 1.1-2.2 1.9-3.1s1.8-1.6 2.9-2.1 2.4-.8 3.7-.8 1.2 0 1.8.3c.6.2 1.1.4 1.7.7.5.3 1 .6 1.3 1q.6.6.9 1.2v-2.7zm-10.4 14.1c.7 0 1.3-.1 1.8-.4s1-.6 1.4-1q.6-.6.9-1.5t.3-1.8c0-.9-.1-1.3-.3-1.8q-.3-.9-.9-1.5c-.4-.4-.9-.8-1.4-1-.5-.3-1.2-.4-1.8-.4s-1.3.1-1.8.4-1 .6-1.4 1q-.6.6-.9 1.5t-.3 1.8c0 .9.1 1.3.3 1.8q.3.9.9 1.5c.4.4.9.8 1.4 1 .5.3 1.2.4 1.8.4" class="st6"/><path d="M253.2 184.2c0 1.3.4 2.4 1.3 3.2.8.8 2 1.2 3.4 1.2s2.3-.3 3-.9c.8-.6 1.2-1.5 1.2-2.5s-.1-1.2-.4-1.6c-.2-.4-.6-.8-.9-1-.4-.3-.8-.5-1.3-.6-.5-.2-1-.3-1.4-.4-.8-.2-1.6-.5-2.3-.7-.7-.3-1.3-.6-1.9-1-.5-.4-1-.9-1.3-1.5s-.5-1.4-.5-2.3.1-1.3.4-1.9.6-1.1 1.1-1.5 1.1-.8 1.8-1 1.5-.4 2.3-.4 1.6.1 2.3.4 1.3.6 1.8 1.1.9 1 1.2 1.7.4 1.4.4 2.3h-1.8c0-1.2-.4-2.1-1.1-2.8s-1.6-1-2.8-1-2.2.3-2.9.9-1 1.3-1 2.3.1 1.1.3 1.5.5.7.9 1 .8.5 1.3.6c.5.2 1 .3 1.5.5.7.2 1.4.4 2.1.7s1.3.6 1.9 1 1 .9 1.4 1.5.5 1.3.5 2.2-.2 1.6-.5 2.2-.7 1.2-1.3 1.6c-.5.4-1.2.8-1.9 1-.8.2-1.6.4-2.4.4s-1.8-.1-2.5-.4c-.8-.3-1.4-.7-2-1.2s-1-1.2-1.3-1.9-.5-1.6-.5-2.5h1.8ZM267.9 184.4c0 .6.1 1.1.3 1.6s.4 1 .7 1.3q.45.6 1.2.9t1.8.3c1.05 0 1.7-.2 2.3-.6s.9-.9 1.1-1.5h1.7c-.1.5-.3.9-.6 1.3s-.6.8-1.1 1.1c-.4.3-.9.6-1.5.8s-1.2.3-1.9.3-1.8-.2-2.5-.5-1.3-.8-1.8-1.3c-.5-.6-.8-1.2-1.1-1.9-.2-.7-.3-1.5-.3-2.3s.1-1.6.4-2.4c.3-.7.6-1.4 1.1-1.9s1.1-1 1.8-1.3 1.5-.5 2.4-.5 1.4.1 2.1.4 1.2.6 1.7 1.1.8 1 1.1 1.6.4 1.3.4 2v1.2H268Zm4-5c-1.1 0-2.1.3-2.8 1s-1.1 1.6-1.1 2.7h7.6c0-.6 0-1.1-.3-1.5-.2-.5-.5-.8-.8-1.2-.3-.3-.7-.6-1.2-.8q-.6-.3-1.5-.3ZM287.5 179.9c-.2 0-.4-.1-.6-.1h-.5c-.7 0-1.3.1-1.8.4s-.9.6-1.3 1.1c-.3.4-.6 1-.8 1.6s-.2 1.2-.2 1.9v5.1h-1.7v-11.5h1.7v2.7c.3-.9.9-1.6 1.7-2.1.7-.5 1.6-.7 2.4-.7h.6c.2 0 .4 0 .5.1v1.6ZM289.7 178.3l4 9.1 4.1-9.1h1.8l-5.3 11.5h-1.2l-5.3-11.5h1.8ZM301.3 173.8c0-.4.1-.8.4-1.1s.7-.5 1.1-.5.8.2 1.1.5.5.7.5 1.1-.2.8-.5 1.1-.7.4-1.1.4-.8-.1-1.1-.4-.4-.7-.4-1.1m.7 4.5h1.7v11.5H302zM316.4 182.5c0-.4-.2-.8-.3-1.1-.2-.4-.4-.7-.7-.9-.3-.3-.6-.5-1.1-.6-.4-.2-1-.2-1.6-.2s-1.3.1-1.8.4c-.5.2-.9.6-1.3 1-.3.4-.6.9-.8 1.4s-.3 1.1-.3 1.7 0 1.2.2 1.7.4 1 .8 1.4c.3.4.8.7 1.3 1 .5.2 1.1.4 1.8.4 1.1 0 2-.2 2.5-.8.6-.5.9-1.1 1.1-1.9h1.7c0 .6-.3 1.1-.5 1.7-.3.5-.6 1-1.1 1.3-.4.4-1 .7-1.6.9s-1.4.3-2.2.3-1.8-.2-2.5-.5-1.3-.8-1.8-1.3c-.5-.6-.8-1.2-1.1-1.9s-.4-1.5-.4-2.3.1-1.5.4-2.3c.3-.7.6-1.4 1.1-1.9.5-.6 1.1-1 1.8-1.3s1.5-.5 2.5-.5 1.7.1 2.4.4 1.2.6 1.6 1 .8.9 1 1.4.4 1.1.4 1.6h-1.7ZM320.9 173.8c0-.4.1-.8.4-1.1s.7-.5 1.1-.5.8.2 1.1.5.5.7.5 1.1-.2.8-.5 1.1-.7.4-1.1.4-.8-.1-1.1-.4-.4-.7-.4-1.1m.7 4.5h1.7v11.5h-1.7zM332.5 190.1c-.9 0-1.7-.2-2.5-.5-.7-.3-1.4-.8-1.9-1.3-.5-.6-.9-1.2-1.2-1.9s-.4-1.5-.4-2.3.1-1.6.4-2.3.7-1.4 1.2-1.9 1.2-1 1.9-1.3 1.6-.5 2.5-.5 1.7.2 2.5.5 1.4.8 1.9 1.3.9 1.2 1.2 1.9.4 1.5.4 2.3-.1 1.6-.4 2.3-.7 1.4-1.2 1.9c-.5.6-1.2 1-1.9 1.3-.8.3-1.6.5-2.5.5m0-1.6c.7 0 1.3-.1 1.8-.4.5-.2 1-.6 1.4-1s.7-.9.9-1.4.3-1.1.3-1.7-.1-1.2-.3-1.7-.5-1-.9-1.4-.8-.7-1.4-1c-.5-.2-1.1-.4-1.8-.4s-1.3.1-1.8.4c-.5.2-1 .6-1.4 1s-.7.9-.9 1.4-.3 1.1-.3 1.7.1 1.2.3 1.7.5 1 .9 1.4.8.7 1.4 1c.5.2 1.1.4 1.8.4M348.5 171.6h1.8v18.1h-1.8zM354.6 178.3h1.7v2.5c.3-.8.9-1.4 1.6-2 .7-.5 1.7-.8 2.8-.8s1.5.1 2 .4c.6.3 1.1.6 1.4 1.1.3.4.6.9.8 1.5s.2 1.3.2 2.1v6.7h-1.7v-6.2c0-.6 0-1.1-.2-1.6-.1-.5-.3-.9-.6-1.3s-.6-.6-1.1-.8q-.6-.3-1.5-.3c-.9 0-1.2.1-1.7.4-.5.2-.9.6-1.2 1s-.5.9-.7 1.4-.2 1-.2 1.6v5.9h-1.7v-11.5ZM375.3 189.8c-.2 0-.5 0-.9.1h-1.1c-.4 0-.8 0-1.2-.1-.4 0-.8-.2-1.1-.5q-.45-.45-.9-1.2c-.2-.5-.3-1.3-.3-2.2v-6.2h-2.3v-1.4h2.3V174h1.7v4.3h3.3v1.4h-3.3v5.9c0 .6 0 1.1.2 1.5.1.4.2.6.4.8s.4.3.7.4h2.5zM378.2 184.4c0 .6.1 1.1.3 1.6s.4 1 .7 1.3q.45.6 1.2.9t1.8.3c1.05 0 1.7-.2 2.3-.6s.9-.9 1.1-1.5h1.7c-.1.5-.3.9-.6 1.3s-.6.8-1.1 1.1c-.4.3-.9.6-1.5.8s-1.2.3-1.9.3-1.8-.2-2.5-.5-1.3-.8-1.8-1.3c-.5-.6-.8-1.2-1.1-1.9-.2-.7-.3-1.5-.3-2.3s.1-1.6.4-2.4c.2-.7.6-1.4 1.1-1.9s1.1-1 1.8-1.3 1.5-.5 2.4-.5 1.4.1 2.1.4c.6.3 1.2.6 1.7 1.1s.9 1 1.1 1.6c.3.6.4 1.3.4 2v1.2h-9.2Zm3.9-5c-1.1 0-2.1.3-2.8 1s-1.1 1.6-1.1 2.7h7.6c0-.6 0-1.1-.3-1.5-.2-.5-.5-.8-.8-1.2-.3-.3-.7-.6-1.2-.8-.4-.2-.9-.3-1.4-.3ZM401.9 190.7c0 1.1-.1 2-.4 2.8s-.7 1.4-1.2 1.9-1.2.8-1.9 1.1c-.8.2-1.6.3-2.6.3s-1.9-.1-2.6-.4q-1.05-.45-1.8-1.2c-.5-.5-.8-1-1.1-1.7-.2-.6-.4-1.3-.4-2h1.7c0 .5.1 1 .3 1.4s.4.8.7 1.2c.3.3.7.6 1.2.8q.75.3 1.8.3c1.05 0 1.3 0 1.9-.2s1-.4 1.4-.8.7-.8.9-1.4q.3-.9.3-2.1v-3.3c-.4.8-1 1.5-1.8 2s-1.7.7-2.7.7-1.7-.2-2.4-.5-1.4-.8-1.9-1.3c-.5-.6-.9-1.2-1.2-1.9s-.4-1.5-.4-2.3.1-1.6.4-2.3.7-1.4 1.2-1.9 1.1-1 1.9-1.3c.7-.3 1.5-.5 2.4-.5s1.9.2 2.7.7 1.4 1.1 1.8 2v-2.4h1.7v12.4Zm-6-11.1c-.7 0-1.3.1-1.8.4-.5.2-1 .6-1.4 1s-.7.9-.9 1.4-.3 1.1-.3 1.7.1 1.2.3 1.7.5 1 .9 1.4.8.7 1.4 1c.5.2 1.1.4 1.8.4s1.3-.1 1.8-.4c.5-.2 1-.6 1.4-1s.7-.9.9-1.4.3-1.1.3-1.7-.1-1.2-.3-1.7-.5-1-.9-1.4-.8-.7-1.4-1c-.5-.2-1.1-.4-1.8-.4M413 179.9c-.2 0-.4-.1-.6-.1h-.5c-.7 0-1.3.1-1.8.4s-.9.6-1.3 1.1c-.3.4-.6 1-.8 1.6s-.2 1.2-.2 1.9v5.1h-1.7v-11.5h1.7v2.7c.3-.9.9-1.6 1.7-2.1.7-.5 1.6-.7 2.4-.7h.6c.2 0 .4 0 .5.1v1.6ZM426.1 178.3v11.5h-1.7v-2.4c-.4.8-1 1.5-1.8 2s-1.7.7-2.7.7-1.7-.2-2.4-.5-1.4-.8-1.9-1.3c-.5-.6-.9-1.2-1.2-1.9s-.4-1.5-.4-2.3.1-1.6.4-2.3.7-1.4 1.2-1.9 1.1-1 1.9-1.3c.7-.3 1.5-.5 2.4-.5s1.9.2 2.7.7 1.4 1.1 1.8 2v-2.4h1.7Zm-6.1 10.2c.7 0 1.3-.1 1.8-.4.5-.2 1-.6 1.4-1s.7-.9.9-1.4.3-1.1.3-1.7-.1-1.2-.3-1.7-.5-1-.9-1.4-.8-.7-1.4-1c-.5-.2-1.1-.4-1.8-.4s-1.3.1-1.8.4c-.5.2-1 .6-1.4 1s-.7.9-.9 1.4-.3 1.1-.3 1.7.1 1.2.3 1.7.5 1 .9 1.4.8.7 1.4 1c.5.2 1.1.4 1.8.4M430.4 171.6h1.7v18.1h-1.7zM261.8 225.4l-.8-2.3h-6.8l-.8 2.3h-3.1l6.3-18.1h2.1l6.3 18.1h-3.1Zm-4.1-13.2-2.5 8.2h5zM266.9 207.3h2.8v18.1h-2.8zM280.2 225.4c-.2 0-.5 0-.9.1h-2.4c-.4 0-.9-.2-1.3-.5s-.8-.7-1-1.3c-.3-.6-.4-1.4-.4-2.4v-5.6h-2v-2.4h2v-3.7h2.8v3.7h2.8v2.4H277v5c0 .5 0 .9.1 1.2 0 .3.2.5.3.7.2.2.3.3.6.3h2.2zM294.2 213.3v12.1h-2.8v-1.6c-.4.6-.9 1.1-1.6 1.4s-1.4.5-2.1.5-1.8-.2-2.5-.5c-.8-.3-1.4-.8-2-1.4-.5-.6-1-1.3-1.3-2-.3-.8-.5-1.6-.5-2.4s.2-1.7.5-2.4c.3-.8.7-1.4 1.3-2 .5-.6 1.2-1 2-1.4.8-.3 1.6-.5 2.5-.5s1.4.2 2.1.5 1.2.8 1.6 1.4v-1.6h2.8Zm-6.4 9.9q.75 0 1.5-.3c.4-.2.8-.5 1.1-.8s.6-.8.7-1.2q.3-.75.3-1.5c0-.75 0-1-.3-1.5-.2-.5-.4-.9-.7-1.2s-.7-.6-1.1-.8q-.6-.3-1.5-.3c-.9 0-1 .1-1.4.3s-.8.5-1.1.8-.6.8-.7 1.2c-.2.5-.2 1-.2 1.5s0 1 .2 1.5.4.9.7 1.2.7.6 1.1.8.9.3 1.4.3M303.5 218.6c.4.2.8.3 1.2.5s.8.4 1.1.6c.3.3.6.6.7.9.2.4.3.8.3 1.4s-.1 1.2-.4 1.6c-.2.5-.6.8-1 1.2-.4.3-1 .5-1.5.7-.6.1-1.2.2-1.9.2s-1.3 0-1.9-.3c-.6-.2-1.1-.5-1.6-.8-.5-.4-.8-.8-1.1-1.4-.3-.5-.4-1.2-.4-1.9h2.7c0 .8.2 1.4.7 1.7.4.3 1 .5 1.7.5s1-.1 1.4-.3.6-.6.6-1.1 0-.5-.2-.7-.4-.3-.7-.5c-.3-.1-.7-.3-1.2-.5s-1-.4-1.7-.6c-.4-.2-.8-.3-1.2-.5q-.6-.3-.9-.6-.45-.3-.6-.9c-.1-.4-.2-.8-.2-1.3s.1-1.1.4-1.5c.2-.4.6-.8 1-1.1s.9-.5 1.4-.7c.5-.1 1.1-.2 1.7-.2s1.2.1 1.8.3q.9.3 1.5.9c.4.4.7.8 1 1.3.2.5.4 1 .4 1.6h-2.7c0-.6-.2-1-.5-1.4-.3-.3-.8-.5-1.5-.5s-.9.1-1.2.3-.5.5-.5 1 0 .5.2.6c.1.2.3.3.6.4s.6.3 1 .4.9.3 1.5.5ZM333.5 219.6c-.2.9-.6 1.7-1.1 2.5s-1.1 1.4-1.9 2c-.7.6-1.6 1-2.6 1.3s-2 .5-3.1.5-2.8-.3-4-.8q-1.8-.75-3-2.1c-.8-.9-1.5-1.9-1.9-3s-.7-2.4-.7-3.6.2-2.4.6-3.5 1-2.2 1.8-3c.8-.9 1.8-1.6 2.9-2.1s2.4-.8 3.9-.8 2.5.2 3.6.6q1.5.6 2.7 1.5c.7.6 1.3 1.4 1.8 2.2.4.9.7 1.8.9 2.8h-3.1c-.1-.6-.3-1.2-.6-1.7s-.7-1-1.1-1.4c-.5-.4-1-.7-1.6-.9s-1.3-.3-2-.3-2 .2-2.8.6q-1.2.6-2.1 1.5c-.6.6-1 1.4-1.3 2.2s-.4 1.7-.4 2.6.2 1.8.4 2.6c.3.8.7 1.6 1.3 2.2s1.3 1.1 2.2 1.5 1.8.5 2.9.5 1 0 1.6-.3 1-.4 1.5-.8c.4-.3.8-.7 1.2-1.1.3-.4.6-.9.7-1.4h3.3ZM348.2 213.3v12.1h-2.8v-1.6c-.4.6-.9 1.1-1.6 1.4s-1.4.5-2.1.5-1.8-.2-2.5-.5c-.8-.3-1.4-.8-2-1.4-.5-.6-1-1.3-1.3-2-.3-.8-.5-1.6-.5-2.4s.2-1.7.5-2.4c.3-.8.7-1.4 1.3-2 .5-.6 1.2-1 2-1.4.8-.3 1.6-.5 2.5-.5s1.4.2 2.1.5 1.2.8 1.6 1.4v-1.6h2.8Zm-6.4 9.9q.75 0 1.5-.3c.4-.2.8-.5 1.1-.8s.6-.8.7-1.2q.3-.75.3-1.5c0-.75 0-1-.3-1.5-.2-.5-.4-.9-.7-1.2s-.7-.6-1.1-.8q-.6-.3-1.5-.3c-.9 0-1 .1-1.4.3s-.8.5-1.1.8-.6.8-.7 1.2c-.2.5-.2 1-.2 1.5s0 1 .2 1.5.4.9.7 1.2.7.6 1.1.8.9.3 1.4.3M354.8 215c.4-.6.9-1.1 1.6-1.4s1.4-.5 2.1-.5 1.8.2 2.5.5c.8.3 1.4.8 2 1.4.5.6 1 1.3 1.3 2 .3.8.4 1.6.4 2.4s-.1 1.7-.4 2.4c-.3.8-.7 1.4-1.3 2-.5.6-1.2 1-2 1.4-.8.3-1.6.5-2.5.5s-1.4-.2-2.1-.5-1.2-.8-1.6-1.4v7.7H352v-18.1h2.8zm3.6.5q-.9 0-1.5.3c-.4.2-.8.5-1.1.8s-.5.8-.7 1.2c-.2.5-.2 1-.2 1.5s0 1 .2 1.5.4.9.7 1.2.7.6 1.1.8q.6.3 1.5.3c.9 0 1-.1 1.4-.3s.8-.5 1.1-.8.6-.8.7-1.2c.2-.5.2-1 .2-1.5s0-1-.2-1.5-.4-.9-.7-1.2-.7-.6-1.1-.8-.9-.3-1.4-.3M379.5 213.3v12.1h-2.8v-1.6c-.4.6-.9 1.1-1.6 1.4s-1.4.5-2.1.5-1.8-.2-2.5-.5c-.8-.3-1.4-.8-2-1.4-.5-.6-1-1.3-1.3-2-.3-.8-.5-1.6-.5-2.4s.2-1.7.5-2.4c.3-.8.7-1.4 1.3-2 .5-.6 1.2-1 2-1.4.8-.3 1.6-.5 2.5-.5s1.4.2 2.1.5 1.2.8 1.6 1.4v-1.6h2.8Zm-6.4 9.9q.75 0 1.5-.3c.4-.2.8-.5 1.1-.8s.6-.8.7-1.2q.3-.75.3-1.5c0-.75 0-1-.3-1.5-.2-.5-.4-.9-.7-1.2s-.7-.6-1.1-.8q-.6-.3-1.5-.3c-.9 0-1 .1-1.4.3s-.8.5-1.1.8-.6.8-.7 1.2c-.2.5-.2 1-.2 1.5s0 1 .2 1.5.4.9.7 1.2.7.6 1.1.8.9.3 1.4.3M391.4 217.7c0-.7-.3-1.2-.8-1.6q-.6-.6-2.1-.6c-1.5 0-1 .1-1.4.3s-.7.5-1 .8q-.45.6-.6 1.2c-.1.5-.2.9-.2 1.5s0 1 .2 1.5q.15.75.6 1.2c.3.3.6.6 1.1.8.4.2 1 .3 1.6.3s1.4-.2 1.8-.5.7-.8.9-1.4h2.8c-.1.6-.3 1.2-.6 1.7s-.7 1-1.1 1.4c-.5.4-1 .7-1.7.9s-1.4.3-2.3.3-1.8-.2-2.6-.5c-.8-.4-1.4-.8-1.9-1.4s-.9-1.3-1.2-2c-.3-.8-.4-1.6-.4-2.4s.1-1.6.4-2.4.6-1.4 1.2-2c.5-.6 1.1-1.1 1.9-1.4.7-.4 1.6-.5 2.6-.5s1.8.1 2.5.4 1.3.6 1.7 1.1c.5.4.8.9 1 1.5s.4 1.1.4 1.7h-2.8ZM396.5 208.9q0-.9.6-1.5t1.5-.6c.9 0 1.1.2 1.5.6q.6.6.6 1.5c0 .9-.2 1.1-.6 1.5q-.6.6-1.5.6c-.9 0-1.1-.2-1.5-.6q-.6-.6-.6-1.5m.6 4.4h2.8v12.1h-2.8zM412.8 223.8c-.4.6-.9 1.1-1.6 1.4s-1.4.5-2.1.5-1.8-.2-2.5-.5c-.8-.3-1.4-.8-2-1.4-.5-.6-1-1.3-1.3-2-.3-.8-.5-1.6-.5-2.4s.2-1.7.5-2.4c.3-.8.7-1.4 1.3-2 .5-.6 1.2-1 2-1.4.8-.3 1.6-.5 2.5-.5s1.4.2 2.1.5 1.2.8 1.6 1.4v-7.7h2.8v18.1h-2.8zm-3.6-.6q.75 0 1.5-.3c.4-.2.8-.5 1.1-.8s.6-.8.7-1.2q.3-.75.3-1.5c0-.75 0-1-.3-1.5-.2-.5-.4-.9-.7-1.2s-.7-.6-1.1-.8q-.6-.3-1.5-.3c-.9 0-1 .1-1.4.3s-.8.5-1.1.8-.5.8-.7 1.2c-.2.5-.2 1-.2 1.5s0 1 .2 1.5.4.9.7 1.2.7.6 1.1.8.9.3 1.4.3M431.2 213.3v12.1h-2.8v-1.6c-.4.6-.9 1.1-1.6 1.4s-1.4.5-2.1.5-1.8-.2-2.5-.5c-.8-.3-1.4-.8-2-1.4-.5-.6-1-1.3-1.3-2-.3-.8-.5-1.6-.5-2.4s.2-1.7.5-2.4c.3-.8.7-1.4 1.3-2 .5-.6 1.2-1 2-1.4.8-.3 1.6-.5 2.5-.5s1.4.2 2.1.5 1.2.8 1.6 1.4v-1.6h2.8Zm-6.4 9.9q.75 0 1.5-.3c.4-.2.8-.5 1.1-.8s.6-.8.7-1.2q.3-.75.3-1.5c0-.75 0-1-.3-1.5-.2-.5-.4-.9-.7-1.2s-.7-.6-1.1-.8q-.6-.3-1.5-.3c-.9 0-1 .1-1.4.3s-.8.5-1.1.8-.5.8-.7 1.2c-.2.5-.2 1-.2 1.5s0 1 .2 1.5.4.9.7 1.2.7.6 1.1.8.9.3 1.4.3M444 223.8c-.4.6-.9 1.1-1.6 1.4s-1.4.5-2.1.5-1.8-.2-2.5-.5c-.8-.3-1.4-.8-2-1.4-.5-.6-1-1.3-1.3-2-.3-.8-.5-1.6-.5-2.4s.2-1.7.5-2.4c.3-.8.7-1.4 1.3-2 .5-.6 1.2-1 2-1.4.8-.3 1.6-.5 2.5-.5s1.4.2 2.1.5 1.2.8 1.6 1.4v-7.7h2.8v18.1H444zm-3.6-.6q.75 0 1.5-.3c.4-.2.8-.5 1.1-.8s.6-.8.7-1.2q.3-.75.3-1.5c0-.75 0-1-.3-1.5-.2-.5-.4-.9-.7-1.2s-.7-.6-1.1-.8q-.6-.3-1.5-.3c-.9 0-1 .1-1.4.3s-.8.5-1.1.8-.5.8-.7 1.2c-.2.5-.2 1-.2 1.5s0 1 .2 1.5.4.9.7 1.2.7.6 1.1.8.9.3 1.4.3M452.6 220.2c0 .4.1.8.2 1.2s.3.7.6 1c.2.3.6.5 1 .7s.9.2 1.5.2 1.4-.2 1.8-.5.6-.7.8-1.1h2.9c0 .5-.3 1-.6 1.5s-.7.9-1.1 1.3c-.5.4-1 .7-1.6.9q-.9.3-2.1.3c-1.2 0-1.9-.2-2.7-.5s-1.4-.8-1.9-1.3c-.5-.6-.9-1.2-1.1-2-.3-.8-.4-1.6-.4-2.5s.1-1.7.4-2.5.7-1.5 1.2-2c.5-.6 1.1-1 1.9-1.3.7-.3 1.6-.5 2.5-.5s1.5.1 2.2.4q1.05.45 1.8 1.2c.5.5.9 1.1 1.2 1.7.3.7.4 1.4.4 2.2v.7c0 .3 0 .6-.1 1h-8.6Zm3.1-5c-.9 0-1.6.3-2.2.8s-.9 1.2-.9 2.2h6c0-.9-.3-1.7-.8-2.2s-1.2-.8-2.1-.8M469.9 218.6c.4.2.8.3 1.2.5s.7.4 1.1.6c.3.3.6.6.7.9.2.4.3.8.3 1.4s-.1 1.2-.4 1.6c-.3.5-.6.8-1 1.2s-1 .5-1.5.7c-.6.1-1.2.2-1.9.2s-1.3 0-1.9-.3c-.6-.2-1.1-.5-1.6-.8-.5-.4-.8-.8-1.1-1.4-.3-.5-.4-1.2-.4-1.9h2.7c0 .8.2 1.4.7 1.7.4.3 1 .5 1.7.5s1-.1 1.4-.3.6-.6.6-1.1 0-.5-.2-.7-.4-.3-.7-.5c-.3-.1-.7-.3-1.2-.5s-1-.4-1.7-.6c-.4-.2-.8-.3-1.2-.5q-.6-.3-.9-.6-.45-.3-.6-.9c-.1-.4-.2-.8-.2-1.3s.1-1.1.4-1.5c.2-.4.6-.8 1-1.1s.9-.5 1.4-.7c.5-.1 1.1-.2 1.8-.2s1.2.1 1.8.3q.9.3 1.5.9c.4.4.7.8 1 1.3.2.5.4 1 .4 1.6h-2.8c0-.6-.1-1-.4-1.4-.3-.3-.8-.5-1.5-.5s-.9.1-1.2.3-.5.5-.5 1 0 .5.2.6c.1.2.3.3.6.4s.6.3 1 .4.9.3 1.4.5ZM229.6 164.6h2.4v66.1h-2.4zM197.7 73.1c.2-.5.5-1 .9-1.4L173.1 57c-.2.5-.4 1-.7 1.5zM134.8 122.4c-.3.5-.6.9-.9 1.4l25.7 14.8c.2-.5.4-1 .7-1.5zM160.2 58.5c-.3-.5-.5-1-.7-1.5L134 71.7c.3.4.6.9.9 1.4zM129.3 112.1V98.6h10.3l-8.3 14c.5.2 1 .5 1.4.8l8.3-14.1 5 8.7-11.9 6.9c.3.4.6.9.8 1.4l11.9-6.9 14.9 25.9c.4-.3.9-.6 1.4-.9l-14.9-25.8 7.7-4.5c2 3.3 5.5 5.5 9.5 5.7v23.9h1.6v-23.9c4.1-.3 7.6-2.5 9.6-5.8l7.7 4.3-15.2 25.9c.5.2 1 .5 1.4.8l15.2-25.9 12.1 6.8c.2-.5.5-.9.9-1.4l-12.1-6.8 5.1-8.7 8.4 14.3c.4-.3.9-.6 1.4-.8l-8.2-13.9h10.1v13.5h1.6V83.2h-1.6V97h-10.5l8.4-14.3c-.5-.2-1-.5-1.4-.8l-8.2 14-5.4-9.2 11.8-6.8c-.3-.5-.5-1-.7-1.5l-12 6.9-14.7-24.9c-.4.3-.9.6-1.4.9l14.6 24.8-8 4.6c-2.1-2.8-5.3-4.7-9-4.9V61.9h-1.6v23.9c-3.8.2-7 2.2-9.1 5.1l-7.8-4.4 14.8-25.1c-.5-.2-1-.5-1.4-.8L147 85.7l-12.2-6.9c-.2.5-.4 1-.8 1.4l12.1 6.8-5.4 9.1-8.3-14.4c-.4.3-.9.6-1.4.8l8.3 14.4h-10.4V83.1h-1.6V112h1.6Zm55.9-5.1-7.7-4.4c.5-1.2.8-2.6.9-4h11.7zm-.3-19.6 5.6 9.6h-12.1c-.1-1.8-.6-3.5-1.4-5zm-37.5 19.8-5-8.6h11.8c0 1.5.4 2.8 1 4.1zm.4-19.4 7.8 4.4c-.8 1.5-1.2 3.1-1.4 4.8h-11.8zM172.4 137.1c.3.5.5 1 .7 1.5l25.7-14.8c-.3-.4-.6-.9-.9-1.4z" class="st2"/><path d="M173.5 54.8c0-3.9-3.2-7.1-7.1-7.1s-7.1 3.2-7.1 7.1 3.2 7.1 7.1 7.1 7.1-3.2 7.1-7.1" style="fill:#cc3362"/><path d="M173.5 140.8c0-3.9-3.2-7.1-7.1-7.1s-7.1 3.2-7.1 7.1 3.2 7.1 7.1 7.1 7.1-3.2 7.1-7.1" style="fill:#8f6c95"/><path d="M135.5 119.2c0-3.9-3.2-7.1-7.1-7.1s-7.1 3.2-7.1 7.1 3.2 7.1 7.1 7.1 7.1-3.2 7.1-7.1" style="fill:#ff7276"/><circle cx="128.3" cy="76.1" r="7.1" style="fill:#5f99af"/><path d="M211.3 119.2c0-3.9-3.2-7.1-7.1-7.1s-7.1 3.2-7.1 7.1 3.2 7.1 7.1 7.1 7.1-3.2 7.1-7.1" style="fill:#230871"/><circle cx="204.2" cy="76.1" r="7.1" class="st6"/></svg>