<svg xmlns="http://www.w3.org/2000/svg" id="Layer_1" version="1.1" viewBox="0 0 250 150"><defs><style>.st2{fill:#636569}</style></defs><path d="M154.6 35c.2-.4.5-.9.8-1.2l-22.8-13.2c-.2.5-.3.9-.6 1.3L154.7 35ZM98.2 79c-.2.4-.5.8-.8 1.2l23 13.3c.2-.5.3-.9.6-1.3L98.2 79.1ZM121 21.9c-.3-.4-.4-.9-.6-1.3L97.6 33.8c.3.4.6.8.8 1.2l22.7-13.1ZM93.3 69.8V57.7h9.3l-7.4 12.6c.4.2.9.5 1.2.7l7.4-12.6 4.5 7.8-10.6 6.2c.3.4.5.8.7 1.2l10.6-6.2 13.4 23.1c.4-.3.8-.6 1.2-.8l-13.3-23.1 6.9-4c1.8 2.9 4.9 4.9 8.5 5.1V89h1.4V67.7c3.6-.2 6.8-2.2 8.5-5.2l6.9 3.9-13.6 23.1c.4.2.9.5 1.2.7L143.7 67l10.8 6.1c.2-.4.5-.8.8-1.2l-10.9-6.1L149 58l7.5 12.8c.4-.3.8-.5 1.3-.7l-7.3-12.5h9v12.1h1.4V43.8h-1.4v12.4h-9.4l7.5-12.8c-.4-.2-.9-.5-1.2-.7L149 55.2l-4.9-8.3 10.6-6.1c-.2-.4-.4-.9-.6-1.3l-10.7 6.2-13.1-22.3c-.4.3-.8.6-1.2.8l13.1 22.2-7.1 4.1c-1.8-2.5-4.7-4.2-8-4.4V24.8h-1.4v21.3c-3.4.2-6.3 1.9-8.1 4.5l-6.9-3.9 13.2-22.4c-.4-.2-.9-.5-1.2-.7l-13.2 22.5L98.6 40c-.2.5-.4.9-.7 1.3l10.8 6.1-4.8 8.2-7.4-12.9c-.4.3-.8.6-1.2.8l7.4 12.9h-9.3V44H92v25.9h1.4Zm50-4.6-6.9-3.9c.5-1.1.7-2.3.8-3.6h10.5zm-.3-17.5 5 8.6h-10.8c-.1-1.6-.6-3.1-1.3-4.4l7.1-4.1Zm-33.4 17.8-4.4-7.7h10.5c0 1.3.4 2.5.9 3.7zm.3-17.4 6.9 3.9c-.7 1.3-1.1 2.8-1.2 4.3H105l4.8-8.2ZM131.9 92.2c.3.4.4.9.6 1.3l23-13.3c-.3-.4-.6-.8-.8-1.2l-22.8 13.1Z" class="st2"/><path d="M132.8 18.6c0-3.5-2.9-6.4-6.4-6.4s-6.4 2.9-6.4 6.4 2.9 6.4 6.4 6.4 6.4-2.9 6.4-6.4" style="fill:#cc3362"/><path d="M132.8 95.5c0-3.5-2.9-6.4-6.4-6.4S120 92 120 95.5s2.9 6.4 6.4 6.4 6.4-2.9 6.4-6.4" style="fill:#8f6c95"/><path d="M98.9 76.1c0-3.5-2.9-6.4-6.4-6.4s-6.4 2.9-6.4 6.4 2.9 6.4 6.4 6.4 6.4-2.9 6.4-6.4" style="fill:#ff7276"/><path d="M98.9 37.6c0-3.5-2.9-6.4-6.4-6.4s-6.4 2.9-6.4 6.4S89 44 92.5 44s6.4-2.9 6.4-6.4" style="fill:#5f99af"/><path d="M166.7 76.1c0-3.5-2.9-6.4-6.4-6.4s-6.4 2.9-6.4 6.4 2.9 6.4 6.4 6.4 6.4-2.9 6.4-6.4" style="fill:#230871"/><path d="M166.7 37.6c0-3.5-2.9-6.4-6.4-6.4s-6.4 2.9-6.4 6.4 2.9 6.4 6.4 6.4 6.4-2.9 6.4-6.4" style="fill:#ffc844"/><path d="M91.2 137.8c-2.5 0-4.8-.4-6.8-1.2-2.1-.8-3.9-2-5.4-3.5s-2.7-3.3-3.6-5.3-1.3-4.2-1.3-6.6.4-4.6 1.3-6.6 2.1-3.8 3.6-5.3 3.4-2.7 5.4-3.5c2.1-.8 4.4-1.2 6.8-1.2s4.8.4 6.9 1.3 3.9 2.1 5.4 3.8l-3 2.9c-1.2-1.3-2.6-2.3-4.2-2.9-1.5-.6-3.2-1-5-1s-3.5.3-5.1.9-2.9 1.5-4.1 2.6c-1.1 1.1-2 2.4-2.7 4-.6 1.5-1 3.2-1 5s.3 3.5 1 5c.6 1.5 1.5 2.9 2.7 4 1.1 1.1 2.5 2 4.1 2.6q2.4.9 5.1.9c2.7 0 3.4-.3 5-1 1.5-.6 2.9-1.6 4.2-2.9l3 2.9c-1.5 1.7-3.3 2.9-5.4 3.8s-4.4 1.3-7 1.3ZM109.7 137.4v-32.5h3.8l14.6 24.5h-2l14.4-24.5h3.8v32.5h-4.4v-25.5h1l-12.8 21.5H126l-12.9-21.5h1.2v25.5h-4.5ZM163.4 137.8c-2.5 0-4.8-.4-7.1-1.1-2.3-.8-4-1.7-5.3-2.9l1.7-3.6c1.2 1.1 2.8 2 4.7 2.7s3.9 1.1 6 1.1 3.4-.2 4.6-.6 2-1 2.6-1.8.8-1.6.8-2.6-.4-2-1.1-2.7-1.7-1.2-2.8-1.6c-1.2-.4-2.4-.8-3.8-1.1s-2.8-.7-4.2-1.1-2.7-1-3.8-1.6c-1.2-.6-2.1-1.5-2.8-2.6s-1.1-2.5-1.1-4.2.4-3.2 1.3-4.6 2.2-2.5 4.1-3.4c1.8-.8 4.2-1.3 7-1.3s3.8.2 5.6.7q2.85.75 4.8 2.1l-1.5 3.7c-1.4-.9-2.9-1.6-4.4-2q-2.25-.6-4.5-.6c-2.25 0-3.3.2-4.5.7s-2 1.1-2.6 1.9c-.5.8-.8 1.6-.8 2.6s.4 2.1 1.1 2.7c.7.7 1.7 1.2 2.8 1.6 1.2.4 2.4.8 3.8 1.1s2.8.7 4.2 1.1 2.7.9 3.8 1.6c1.2.6 2.1 1.5 2.8 2.6s1.1 2.5 1.1 4.2-.4 3.2-1.3 4.6-2.3 2.5-4.1 3.4c-1.9.9-4.2 1.3-7.1 1.3Z" class="st2"/></svg>