<?xml version="1.0" encoding="utf-8" ?>
<svg xmlns="http://www.w3.org/2000/svg" xmlns:xlink="http://www.w3.org/1999/xlink" width="16" height="17">
	<path fill="#FDC741" transform="translate(0 -0.199997)" d="M8 0C3.5817201 0 0 3.581717 0 8C0 12.418297 3.5817201 16 8 16C12.4183 16 16 12.418297 16 8C16 3.581717 12.4183 0 8 0ZM10.0018 4.978097L8.4692497 4.978097C8.2373695 4.978097 8.0030603 5.2109671 8.0030603 5.384027L8.0030603 5.9929972L9.9944096 5.9929972C9.9293804 6.8808169 9.7941904 8.0142174 9.7941904 8.0142174L7.9952502 8.0142174L7.9952502 12.999997L5.9974699 12.999997L5.9974699 8.0142174L4.9738402 8.0142174L4.9738402 5.9994068L5.9974699 5.9994068L5.9974699 4.9515972C5.9974699 4.6985269 5.94416 3.003597 8.1993399 3.003597L10.0018 3.003597L10.0018 4.9780669L10.0018 4.978097Z"/>
</svg>
