<?xml version="1.0" encoding="utf-8" ?>
<svg xmlns="http://www.w3.org/2000/svg" xmlns:xlink="http://www.w3.org/1999/xlink" width="16" height="17">
	<path fill="#FDC741" transform="translate(4.28748 4.28125)" d="M7.4406199 1.89687C7.4219198 1.5375 7.3719201 1.25938 7.28442 1.05C7.2062201 0.84062999 7.1062198 0.68124998 6.9437199 0.51875001C6.7594199 0.34687999 6.6156201 0.25624999 6.4156199 0.17812C6.2875199 0.12187 6.06252 0.043749999 5.5687499 0.02187C5.0875001 0 4.9312501 0 3.73125 0C2.53125 0 2.375 0 1.89375 0.02187C1.5343699 0.040619999 1.25625 0.090620004 1.05 0.17812C0.84061998 0.25624999 0.68124998 0.35624999 0.51875001 0.51875001C0.34687001 0.70313001 0.25624999 0.84688002 0.17812 1.04687C0.12187 1.175 0.043749999 1.4 0.02187 1.89375C0 2.375 0 2.53125 0 3.73125C0 4.9312501 0 5.0875001 0.02187 5.5687499C0.034370001 6.0156498 0.1125 6.2562499 0.17812 6.4156499C0.25624999 6.6249499 0.35624999 6.7843499 0.51875001 6.9468498C0.70311999 7.1187501 0.84687001 7.2093501 1.04687 7.28755C1.175 7.34375 1.4 7.4218502 1.89375 7.4437499C2.375 7.4656501 2.53125 7.4656501 3.73125 7.4656501C4.9312501 7.4656501 5.0875001 7.4656501 5.5687499 7.4437499C5.9281201 7.4250498 6.2062201 7.3750501 6.4125199 7.28755C6.6219201 7.2093501 6.78122 7.1093502 6.9437199 6.9468498C7.1156201 6.7624502 7.2062201 6.6187501 7.28442 6.4187498C7.34062 6.2906499 7.4187198 6.06565 7.4406199 5.5718699L7.4469199 5.46562C7.46562 5.0562501 7.4750199 4.8499999 7.4625201 3.73125C7.4625201 2.53125 7.4625201 2.3781199 7.4406199 1.89687ZM6.6937199 1.30312C6.6937199 1.5968699 6.4531202 1.8375 6.15942 1.8375C5.8656201 1.8375 5.625 1.5968699 5.625 1.30312C5.625 1.00937 5.8656201 0.76875001 6.15942 0.76875001C6.4531202 0.76875001 6.6937199 1.00937 6.6937199 1.30312ZM3.7281201 6.0500498C2.45 6.0500498 1.4125 5.0124998 1.4125 3.73437C1.4125 2.45625 2.45 1.41875 3.7281201 1.41875C5.0062499 1.41875 6.0437198 2.45625 6.0437198 3.73437C6.0437198 5.0124998 5.0062499 6.0500498 3.7281201 6.0500498Z"/>
	<path fill="#FDC741" transform="translate(6.48717 6.48646)" d="M1.8795719 3.0155826C2.700922 2.8216424 3.209522 1.9985925 3.0155818 1.1772525C2.8216419 0.35590249 1.9985919 -0.1526975 1.1772519 0.041242488C0.35591197 0.23518249 -0.15269804 1.0582325 0.041241959 1.8795725C0.23518196 2.7009125 1.0582319 3.2095225 1.8795719 3.0155826Z" fill-rule="evenodd"/>
	<path fill="#FDC741" d="M13.6844 2.3468699C12.1687 0.83437502 10.1562 0 8.0156202 0C5.875 0 3.8625 0.83437502 2.3468699 2.3468699C0.83125001 3.85938 0 5.875 0 8.0156202C0 10.1562 0.83437502 12.1687 2.3468699 13.6844C3.8625 15.1969 5.875 16.0312 8.0156202 16.0312C10.1562 16.0312 12.1687 15.1969 13.6844 13.6844C15.1969 12.1687 16.0312 10.1562 16.0312 8.0156202C16.0312 5.875 15.1969 3.8625 13.6844 2.3468699ZM12.525 9.8874998C12.5062 10.3281 12.4406 10.6594 12.3125 10.9906C12.1812 11.3188 12.025 11.5594 11.7906 11.7906C11.5406 12.0406 11.2906 12.2031 10.9906 12.3125C10.6656 12.4375 10.325 12.5031 9.8874998 12.525C9.40625 12.5469 9.24687 12.5469 8.0156202 12.5469C6.7874999 12.5469 6.62813 12.5469 6.1437502 12.525C5.7031202 12.5062 5.3718801 12.4438 5.0406299 12.3125C4.7125001 12.1812 4.4718699 12.025 4.2406201 11.7906C3.9875 11.5375 3.82812 11.2906 3.71875 10.9906C3.59375 10.6656 3.52812 10.325 3.5062499 9.8874998C3.48438 9.40625 3.48438 9.24687 3.48438 8.0156202C3.48438 6.7874999 3.48438 6.62813 3.5062499 6.1437502C3.5250001 5.7031202 3.5875001 5.3718801 3.71875 5.0406299C3.8406301 4.7375002 4 4.4906201 4.2406201 4.2406201C4.4937501 3.9875 4.7406201 3.82812 5.0406299 3.71875C5.3656201 3.59375 5.7062502 3.52812 6.1437502 3.5062499C6.625 3.48438 6.78438 3.48438 8.0156202 3.48438C9.2437496 3.48438 9.40312 3.48438 9.8874998 3.5062499C10.3281 3.5250001 10.6594 3.5875001 10.9906 3.71875C11.3188 3.8499999 11.5562 4.0062499 11.7906 4.2406201C12.0406 4.4937501 12.2031 4.7406201 12.3125 5.0406299C12.4375 5.3656201 12.5031 5.7062502 12.525 6.1437502C12.5469 6.625 12.5469 6.78438 12.5469 8.0156202C12.5469 9.2437496 12.5469 9.40312 12.525 9.8874998Z"/>
</svg>
