<?xml version="1.0" encoding="utf-8" ?>
<svg xmlns="http://www.w3.org/2000/svg" xmlns:xlink="http://www.w3.org/1999/xlink" width="10" height="11">
	<path fill="white" transform="translate(0 1.25)" d="M9.375 0L0.625 0C0.28125 0 0 0.28125 0 0.625L0 6.875C0 7.21875 0.28125 7.5 0.625 7.5L9.375 7.5C9.71875 7.5 10 7.21875 10 6.875L10 0.625C10 0.28125 9.71875 0 9.375 0ZM8.75 1.25L8.75 1.6992188L5 3.9090431L1.25 1.6992188L1.25 1.25L8.75 1.25ZM1.25 6.25L1.25 2.7873828L5 4.9972072L8.75 2.7873828L8.75 6.25L1.25 6.25Z"/>
</svg>
