<?xml version="1.0" encoding="utf-8" ?>
<svg xmlns="http://www.w3.org/2000/svg" xmlns:xlink="http://www.w3.org/1999/xlink" width="10" height="11">
	<path fill="white" transform="translate(1.95503e-05 1.25)" d="M8.92875 0.77437502C9.969121 1.3658594 10.000019 1.9991602 10.000019 2.4413476L10.000019 2.5076952C10.000019 2.6089063 9.912734 2.6916406 9.8061132 2.6916406L7.4595118 2.6916406C7.3528905 2.6916406 7.2656054 2.6089063 7.2656054 2.5076952L7.2656054 2.284004C7.2656054 1.7253125 6.731328 1.6360546 6.4365234 1.5885937C6.1416798 1.5412109 5.4088478 1.495293 5.0013671 1.495293L4.9985743 1.495293C4.5911131 1.495293 3.8582032 1.5411915 3.5634179 1.5885937C3.2686329 1.6359961 2.7343359 1.7252735 2.7343359 2.284004L2.7343359 2.5076952C2.7343359 2.6089063 2.6470509 2.6916406 2.5404687 2.6916406L0.19386719 2.6916406C0.087285154 2.6916406 0 2.6089063 0 2.5076952L0 2.4413476C0 1.9991602 0.030859375 1.3658594 1.0712304 0.77437502C2.3085351 0.07105469 4.0776563 0 4.9985743 0L5.0000782 0.0015234374L5.0013671 0C5.9223046 0 7.6914454 0.070976563 8.92875 0.77437502ZM5 2.5C4.4458203 2.5 3.2921288 2.5415235 2.7059374 3.2523241C2.1195703 3.9629297 0.65339845 7.5 1.9608788 7.5L8.0390234 7.5C9.3465433 7.5 7.880332 3.9629297 7.2941604 3.2523241C6.707871 2.5415235 5.553926 2.5 5 2.5ZM4.9999804 6.25C4.309629 6.25 3.7499804 5.690371 3.7499804 5C3.7499804 4.309629 4.309629 3.75 4.9999804 3.75C5.6903515 3.75 6.2499804 4.309629 6.2499804 5C6.2499804 5.690371 5.6903515 6.25 4.9999804 6.25Z"/>
</svg>
