<?xml version="1.0" encoding="UTF-8"?>
<svg width="60px" height="60px" viewBox="0 0 60 60" version="1.1" xmlns="http://www.w3.org/2000/svg" xmlns:xlink="http://www.w3.org/1999/xlink">
    <title>Icon</title>
    <defs>
        <path d="M45.5214844,50.1168945 L48.2578125,50.0037109 C49.0839844,49.9679687 49.734375,49.3603516 49.8925781,48.5561523 C49.96875,48.1749023 49.9746094,47.8293945 49.9746094,47.4243164 L49.9746094,31.0841797 L49.9453125,30.3514648 L49.9335938,29.1004883 C49.9335938,28.7371094 49.7871094,28.3916016 49.5351563,28.1771484 L49.828125,27.8018555 C51.7617188,24.5314453 53.625,21.2610352 55.4296875,17.9131836 C55.59375,17.603418 55.7871094,17.234082 55.7402344,16.9004883 L55.5703125,15.6375977 C55.5234375,14.6189453 54.8320313,13.8147461 53.8125,13.6896484 L51.9726563,13.5824219 L51.4453125,13.5645508 L49.9921875,13.5049805 L41.1855469,13.415625 L18.2929688,13.415625 L14.8242188,13.4454102 L10.7285156,13.5049805 L9.09960938,13.5705078 L8.5546875,13.5824219 L6.93164063,13.6598633 C5.85351563,13.7790039 5.10351563,14.6129883 5.0859375,15.697168 L4.9453125,16.840918 C4.91601563,17.0672852 5.03320313,17.3830078 5.15625,17.609375 L10.7988281,27.8733398 C10.8515625,27.9746094 10.9804688,28.0758789 11.0390625,28.1294922 C10.828125,28.4035156 10.7167969,28.7073242 10.7167969,29.0349609 L10.6875,31.2569336 L10.6992188,46.6618164 L10.734375,48.3297852 C10.7519531,49.2948242 11.5078125,49.9143555 12.4921875,50.0334961 L18.6503906,50.1883789 L41.0625,50.1883789 Z M52.9570313,15.7388672 L45.75,15.5958984 L20.625,15.6316406 L10.4414063,15.6614258 L8.30859375,15.7448242 L6.02929688,15.9116211 C5.98828125,15.2861328 6.42773438,14.6785156 7.1015625,14.6368164 C11.1855469,14.3866211 15.3105469,14.3330078 19.4472656,14.3389648 L43.9804688,14.3389648 C43.9804688,14.3449219 49.4414063,14.4521484 49.4414063,14.4521484 L53.5253906,14.6546875 C54.1791221,14.6843583 54.64679,15.3051688 54.5982404,15.9105818 L54.609375,15.9116211 L54.5976563,15.9175781 Z M11.8066406,27.5933594 L6.0703125,17.1506836 C6.03515625,17.0791992 5.9765625,16.9719727 6.01757813,16.9481445 L6.18164063,16.846875 L9.36914063,16.6264648 L9.78515625,16.6145508 L13.6054688,16.5549805 L47.296875,16.5549805 L47.3027344,16.5668945 L50.5136719,16.6205078 L54.5214844,16.8587891 L54.6738281,16.9660156 C54.703125,16.9898437 54.6914062,17.0791992 54.6855469,17.1387695 L53.0273437,20.2304688 L48.7910156,27.5933594 Z M37.0136719,20.9214844 L37.9453125,18.4314453 C38.0625,18.1157227 37.8691406,17.7583008 37.5058594,17.7106445 L23.3847656,17.7106445 C23.0507813,17.7106445 22.640625,18.0382812 22.7578125,18.377832 L23.6542969,20.8857422 C23.7597656,21.1776367 23.9824219,21.3682617 24.3222656,21.3682617 L36.3105469,21.3682617 C36.6503906,21.3682617 36.8964844,21.237207 37.0136719,20.9214844 Z M24.5742188,20.4210937 L23.9238281,18.6816406 L36.8320313,18.6816406 L36.1699219,20.4210937 L34.9863281,20.4330078 L34.3125,20.4330078 L33.703125,20.4210937 L29.9179688,20.4210937 L29.296875,20.4330078 L28.5292969,20.4508789 L26.1328125,20.462793 Z M14.7011719,22.5358398 C14.6835938,22.3213867 14.4726562,22.0652344 14.1796875,22.0652344 L12.1875,22.0652344 C11.9003906,22.0652344 11.6953125,22.2141602 11.6484375,22.4762695 C11.6015625,22.7383789 11.71875,23.0362305 12.0117187,23.0362305 L14.2910156,23.0362305 C14.5664062,23.0362305 14.71875,22.750293 14.7011719,22.5358398 Z M18.4570313,22.5358398 C18.4453125,22.3213867 18.2753906,22.0592773 17.9648438,22.0652344 L15.8964844,22.0771484 C15.5976563,22.0771484 15.4335938,22.2856445 15.4101563,22.5358398 C15.3867188,22.7860352 15.5800781,23.0481445 15.8789063,23.0481445 L18.046875,23.0481445 C18.3164063,23.0421875 18.46875,22.750293 18.4570313,22.5358398 Z M29.578125,23.0362305 C29.859375,23.0362305 29.9648438,22.6847656 29.9355469,22.4941406 C29.8886719,22.2260742 29.7070313,22.0652344 29.4140625,22.0652344 L27.3691406,22.0771484 C27.0820313,22.0771484 26.9003906,22.369043 26.9121094,22.5834961 C26.9238281,22.7979492 27.1289063,23.0541016 27.421875,23.0541016 Z M33.8378906,22.4762695 C33.8027344,22.2677734 33.6210937,22.0652344 33.3105469,22.0652344 L31.2890625,22.0652344 C31.0371094,22.0652344 30.8378906,22.2796875 30.8085938,22.4703125 C30.7792969,22.6609375 30.8964844,23.0362305 31.1777344,23.0362305 L33.5097656,23.0362305 C33.7851562,23.0362305 33.8730469,22.6847656 33.8378906,22.4762695 Z M37.7636719,22.6371094 C37.8046875,22.4464844 37.6875,22.0831055 37.4003906,22.0831055 L35.1621094,22.0711914 C34.9042969,22.0711914 34.7226562,22.2737305 34.6816406,22.4762695 C34.640625,22.6788086 34.7636719,23.0362305 35.0449219,23.0362305 L37.3300781,23.0481445 C37.5703125,23.0481445 37.7226562,22.8277344 37.7636719,22.6371094 Z M49.1015625,22.5775391 C49.1191406,22.3571289 48.9785156,22.0831055 48.703125,22.0831055 L46.640625,22.0711914 C46.359375,22.0711914 46.171875,22.3035156 46.1542969,22.5298828 C46.1367188,22.75625 46.3359375,23.0481445 46.6347656,23.0481445 L48.6855469,23.0481445 C48.9433594,23.0481445 49.0839844,22.7979492 49.1015625,22.5775391 Z M25.7167969,23.0421875 C25.9335938,23.0421875 26.0683594,22.7443359 26.0742188,22.5834961 C26.0800781,22.4226562 25.9628906,22.0771484 25.6816406,22.0771484 L23.5546875,22.0771484 C23.2558594,22.0711914 23.0566406,22.3333008 23.0683594,22.5834961 C23.0800781,22.8336914 23.3085938,23.0541016 23.6074219,23.0541016 Z M41.5839844,22.6371094 C41.6308594,22.3928711 41.5136719,22.0771484 41.2148438,22.0771484 L38.9238281,22.0771484 C38.6777344,22.0771484 38.4960938,22.4047852 38.5019531,22.5775391 C38.5136719,22.8456055 38.7421875,23.0481445 39.0234375,23.0481445 L41.0742188,23.0481445 C41.3496094,23.0481445 41.5371094,22.8813477 41.5839844,22.6371094 Z M44.8828125,23.0362305 C45.1347656,23.0362305 45.28125,22.7741211 45.2929688,22.571582 C45.3046875,22.369043 45.1816406,22.0771484 44.90625,22.0771484 L42.8378906,22.0771484 C42.5507813,22.0711914 42.3574219,22.3452148 42.3691406,22.5834961 C42.3808594,22.8217773 42.5917969,23.0481445 42.890625,23.0481445 Z M38.90625,22.2558594 L38.90625,22.1558594 L41.0449219,22.1558594 L41.0449219,22.2558594 Z M35.15625,22.2558594 L35.15625,22.1558594 L37.4121094,22.1558594 L37.4121094,22.2558594 Z M31.2304688,22.2558594 L31.2304688,22.1558594 L33.2519531,22.1558594 L33.2519531,22.2558594 Z M23.4375,22.2427734 L23.4667969,22.1677734 L25.6757813,22.1677734 L25.5644531,22.2677734 Z M46.5761719,22.1697979 L48.8203125,22.1697979 L48.7207031,22.2427324 L46.9980469,22.25894 C46.8339844,22.25894 46.7050781,22.3156668 46.5761719,22.1697979 Z M27.2988281,22.1864131 L29.5429688,22.1864131 L29.4433594,22.2501118 L27.7265625,22.2642671 C27.5625,22.2642671 27.4277344,22.3491986 27.2988281,22.1864131 Z M15.5859375,22.3452148 C15.6972656,22.2618164 15.8847656,22.1962891 16.0488281,22.1962891 L18.1113281,22.1962891 C18.0175781,22.4166992 17.8535156,22.2618164 17.7246094,22.2618164 L15.9960938,22.2618164 C15.8964844,22.2737305 15.7148438,22.4583984 15.5859375,22.3452148 Z M42.6855469,22.1962891 L44.8242188,22.1962891 L44.7949219,22.2499023 L42.984375,22.2499023 L42.984375,22.2618164 C42.9082031,22.2618164 42.7324219,22.4345703 42.6855469,22.1962891 Z M11.90625,22.2856445 L12.0410156,22.2022461 L14.3261719,22.2022461 L14.4726563,22.2916016 C14.4902344,22.3035156 14.390625,22.3511719 14.3730469,22.3511719 L13.9511719,22.2558594 L12.1054688,22.2677734 L11.9882813,22.375 C11.9648438,22.3928711 11.8769531,22.3035156 11.90625,22.2856445 Z M14.5839844,24.7339844 C14.9003906,24.7339844 15.0703125,24.4301758 15.0410156,24.1859375 C15.0117187,23.9416992 14.7363281,23.6915039 14.3789062,23.7927734 C14.0273437,23.7451172 13.7402344,23.8046875 13.40625,23.7868164 L12.7207031,23.7510742 C12.3984375,23.7332031 12.1933594,23.9238281 12.1582031,24.1918945 C12.1230469,24.4599609 12.328125,24.7458984 12.6503906,24.7458984 Z M37.4179688,24.2455078 C37.4121094,23.9953125 37.2246094,23.7451172 36.8730469,23.7510742 L36.1523438,23.7570312 C36.1523438,23.7629883 35.15625,23.7570312 35.15625,23.7570312 C34.8574219,23.7570312 34.6171875,23.905957 34.5820313,24.1859375 C34.546875,24.465918 34.7285156,24.7339844 35.0332031,24.7339844 L36.9082031,24.7339844 C37.2128906,24.7339844 37.4238281,24.4957031 37.4179688,24.2455078 Z M48.6679688,24.4123047 C48.7265625,24.2276367 48.6855469,23.8642578 48.4101563,23.8046875 C47.9121094,23.6974609 47.4140625,23.7868164 46.9277344,23.7868164 C46.4414063,23.7868164 46.3183594,23.6855469 46.03125,23.8583008 C45.7441406,24.0310547 45.8203125,24.2216797 45.8847656,24.4182617 C45.9492188,24.6148437 46.1425781,24.7458984 46.3359375,24.7458984 L48.1640625,24.7458984 C48.3867188,24.7458984 48.609375,24.5969727 48.6679688,24.4123047 Z M33.6796875,24.3408203 C33.7207031,24.1025391 33.6503906,23.7868164 33.3691406,23.7808594 L32.1796875,23.7570312 L31.40625,23.7689453 C31.1015625,23.7689453 30.8847656,23.9714844 30.8847656,24.2455078 C30.8847656,24.5195312 31.0957031,24.7399414 31.4003906,24.7339844 L33.1582031,24.7339844 C33.421875,24.7339844 33.6386719,24.5791016 33.6796875,24.3408203 Z M41.1914063,24.2038086 C41.1622784,23.8543714 40.9246399,23.752251 40.5706276,23.7627934 L39.7265625,23.7868164 L38.6132813,23.7689453 C38.34375,23.7689453 38.203125,24.0429687 38.1914063,24.2574219 C38.1796875,24.471875 38.3789063,24.7458984 38.671875,24.7458984 L40.7167969,24.7458984 C41.0449219,24.7458984 41.2148438,24.4420898 41.1914063,24.2038086 Z M26.3203125,24.3050781 C26.34375,24.0250977 26.2148438,23.7629883 25.9101563,23.7629883 L23.9003906,23.7629883 C23.6015625,23.7629883 23.4023438,24.0012695 23.4023438,24.2514648 C23.4023438,24.5016602 23.6015625,24.7399414 23.90625,24.7458984 L25.7519531,24.7458984 C26.0800781,24.7458984 26.296875,24.5850586 26.3203125,24.3050781 Z M22.1484375,24.7458984 C22.4296875,24.7458984 22.6171875,24.477832 22.6171875,24.2633789 C22.6171875,23.9476562 22.4121094,23.7808594 22.0605469,23.7808594 L20.9824219,23.7749023 L20.2792969,23.7629883 C19.9570312,23.7570312 19.7050781,23.9178711 19.6699219,24.1978516 C19.6347656,24.477832 19.8632812,24.7578125 20.2148437,24.7578125 Z M30.0410156,24.275293 C30.0410156,23.9178711 29.8007812,23.7570312 29.4609375,23.7629883 L28.8222656,23.7749023 L27.9433594,23.7689453 C27.75,23.7689453 27.5097656,23.7510742 27.3457031,23.8463867 C27.1816406,23.9416992 27.0996094,24.2216797 27.1640625,24.4242187 C27.2285156,24.6267578 27.4277344,24.7458984 27.6445312,24.7458984 L29.5253906,24.7458984 C29.8300781,24.7458984 30.0410156,24.5135742 30.0410156,24.275293 Z M44.9648438,24.4063477 C45.0175781,24.2276367 44.9472656,23.9476562 44.7304688,23.7689453 L43.5234375,23.7689453 L42.7207031,23.7868164 C42.3984375,23.7927734 42.1289063,23.8285156 42.0644531,24.1382812 C42,24.4480469 42.1875,24.7458984 42.5332031,24.7458984 L44.4726563,24.7458984 C44.6835938,24.7458984 44.9121094,24.5850586 44.9648438,24.4063477 Z M18.7558594,24.3646484 C18.7910156,24.1859375 18.7148438,23.7927734 18.4277344,23.7927734 L16.4648438,23.7808594 C16.1484375,23.7808594 15.9257813,23.8821289 15.8847656,24.2216797 C15.84375,24.5612305 16.0371094,24.7458984 16.3476563,24.7399414 L18.28125,24.7399414 C18.515625,24.7399414 18.7207031,24.5433594 18.7558594,24.3646484 Z M19.546875,26.4079102 C19.7695313,26.4079102 19.9042969,26.1338867 19.921875,25.9611328 C19.9394531,25.7883789 19.8515625,25.425 19.5761719,25.419043 L17.5839844,25.4071289 C17.25,25.4071289 17.0332031,25.621582 17.0390625,25.9134766 C17.0449219,26.2053711 17.25,26.4317383 17.578125,26.4257813 Z M23.578125,25.9194336 C23.5839844,25.6454102 23.3847656,25.4071289 23.0566406,25.4071289 L21.328125,25.4071289 C21.0234375,25.4071289 20.8066406,25.6513672 20.8066406,25.9194336 C20.8066406,26.1875 21.0234375,26.4257812 21.328125,26.4257812 L23.0800781,26.4257812 C23.3789063,26.4257812 23.5722656,26.193457 23.578125,25.9194336 Z M36.7558594,25.9730469 C36.7851563,25.6871094 36.5917969,25.4011719 36.2402344,25.4071289 L34.7050781,25.419043 C34.40625,25.419043 34.2421875,25.7466797 34.2539063,25.9730469 C34.265625,26.1994141 34.5,26.4257812 34.8105469,26.4257812 L36.2109375,26.4257812 C36.515625,26.4257812 36.7265625,26.2589844 36.7558594,25.9730469 Z M43.6054688,25.9194336 C43.6113281,25.6632812 43.4296875,25.4071289 43.0957031,25.4071289 L41.3085938,25.4071289 C41.0507812,25.4130859 40.8691406,25.6632812 40.8398438,25.8777344 C40.8105469,26.0921875 40.9511719,26.4138672 41.2148438,26.4138672 L43.1074219,26.4138672 C43.40625,26.4257812 43.5996094,26.1755859 43.6054688,25.9194336 Z M39.9902344,26.0326172 C40.0429687,25.7764648 39.9316406,25.425 39.6269531,25.425 L37.9160156,25.4130859 C37.6523438,25.4130859 37.4648438,25.6573242 37.4414062,25.8717773 C37.4179688,26.0862305 37.5292969,26.4138672 37.8105469,26.4138672 L39.4335938,26.4317383 C39.7207031,26.4317383 39.9375,26.2887695 39.9902344,26.0326172 Z M46.7460938,26.4198242 C46.9804688,26.4198242 47.1210938,26.1517578 47.1386719,25.9790039 C47.15625,25.80625 47.0742188,25.4369141 46.8105469,25.4369141 L44.9472656,25.4130859 C44.6601562,25.4130859 44.4726562,25.6871094 44.4667969,25.9194336 C44.4609375,26.1517578 44.6835938,26.4317383 45,26.4317383 Z M16.1660156,25.9670898 C16.1894531,25.7705078 16.0664062,25.430957 15.7792969,25.430957 L13.9101562,25.425 C13.6289062,25.425 13.4296875,25.6930664 13.4296875,25.9194336 C13.4296875,26.1458008 13.6171875,26.4257812 13.8984375,26.4257812 L15.7558594,26.4257812 C15.9960937,26.4257812 16.1425781,26.1636719 16.1660156,25.9670898 Z M26.859375,25.9730469 C26.8886719,25.7764648 26.765625,25.425 26.4902344,25.425 L24.7382813,25.425 C24.4921875,25.425 24.3164063,25.7347656 24.3164063,25.9194336 C24.3164063,26.1041016 24.4863281,26.4198242 24.7324219,26.4198242 L26.4199219,26.4198242 C26.671875,26.4198242 26.8300781,26.1696289 26.859375,25.9730469 Z M30.09375,26.0326172 C30.1523437,25.8181641 30.0410156,25.430957 29.7246094,25.425 L28.078125,25.425 C27.8203125,25.4130859 27.6386719,25.6692383 27.609375,25.8598633 C27.5800781,26.0504883 27.703125,26.4079102 27.9726562,26.4079102 L29.5839844,26.4257812 C29.8476562,26.4257812 30.0351562,26.2470703 30.09375,26.0326172 Z M33.4277344,25.9790039 C33.4453125,25.80625 33.375,25.4369141 33.1113281,25.4369141 L31.3007812,25.425 C31.0839844,25.425 30.9023438,25.7049805 30.8847656,25.8717773 C30.8671875,26.0385742 30.984375,26.4138672 31.2480469,26.4138672 L33.0351562,26.4138672 C33.2636719,26.4138672 33.4101562,26.1517578 33.4277344,25.9790039 Z M45.6738281,27.7958984 L45.6738281,27.6958984 L47.8710938,27.6958984 L47.8710938,27.7958984 Z M22.6464844,27.7958984 L22.6464844,27.6958984 L45.5859375,27.6958984 L45.5859375,27.7958984 Z M19.8925781,27.7958984 L19.8925781,27.6958984 L22.5585938,27.6958984 L22.5585938,27.7958984 Z M13.3886719,27.7958984 L13.3886719,27.6958984 L19.21875,27.6958984 L19.21875,27.7958984 Z M20.0449219,49.2709961 L19.4355469,49.259082 L12.6210938,49.0327148 C12.1054688,49.0148437 11.6777344,48.6931641 11.6542969,48.1808594 L11.6015625,46.965625 L11.6015625,30.4944336 L11.6308594,29.1243164 C11.6367188,28.8026367 11.8710938,28.5047852 12.2578125,28.5047852 L48.3105469,28.5047852 C48.7441406,28.5047852 48.9960938,28.8741211 49.0078125,29.2553711 L49.0839844,32.6270508 L49.0839844,44.1658203 L49.0195313,48.0378906 C49.0136719,48.5621094 48.6328125,48.9910156 48.1171875,49.0148437 L44.0859375,49.1935547 L42.9316406,49.2114258 L28.3007813,49.2888672 Z M46.6933594,47.7579102 C47.0917969,47.7579102 47.5136719,47.4838867 47.5136719,47.0192383 L47.5488281,30.8756836 C47.5488281,30.4050781 47.3203125,30.0416992 46.8574219,30.0416992 L13.8457031,30.0416992 C13.4179688,30.0416992 13.171875,30.387207 13.171875,30.7803711 L13.171875,46.965625 C13.171875,47.4064453 13.4121094,47.734082 13.8515625,47.7400391 L18.1582031,47.7936523 L18.7265625,47.7936523 C18.7265625,47.7996094 40.6875,47.7996094 40.6875,47.7996094 C41.1328125,47.7102539 41.5195313,47.7579102 41.953125,47.7757812 L42.5976563,47.7996094 Z M14.0742188,46.9179687 L14.0742188,30.9114258 L46.640625,30.9114258 L46.640625,46.9179687 Z M11.4257813,34.9443359 L11.4257813,33.3359375 L11.5257813,33.3359375 L11.5257813,34.9443359 Z M11.4257813,46.6201172 L11.4257813,38.1015625 L11.5257813,38.1015625 L11.5257813,46.6201172 Z M43.5996094,47.0668945 L43.5996094,46.9834961 L46.359375,46.9775391 L46.265625,47.0311523 L44.5019531,47.1145508 Z M32.4023438,47.1264648 C32.2382813,47.1264648 32.1210938,47.150293 31.9804688,47.0371094 L33.703125,47.0371094 C33.6269531,47.1324219 33.5507813,47.1383789 33.4277344,47.1324219 L32.9414063,47.1383789 Z M20.2324219,47.1085937 C19.9921875,47.1741211 19.7636719,47.1979492 19.5585938,47.0430664 L21.1816406,47.0549805 C20.8476563,47.2813477 20.5371094,47.1085937 20.2324219,47.1085937 Z" id="path-1"></path>
    </defs>
    <g id="Icon" stroke="none" fill="none" fill-rule="nonzero" transform="translate(0, 35) scale(1, -1) translate(-0, -35)" xlink:href="#path-1" stroke-width="1">
        <g id="portatil_icon" transform="translate(30, 30) scale(1, -1) translate(-30, -30)translate(0, -0.5)" fill="#916C96" fill-rule="evenodd">
            <g id="Capa_1" transform="translate(4.9408, 10.3116)">
                <g id="Grupo" transform="translate(0, 0)">
                    <path d="M45.0514214,36.6833984 L36.2447808,36.7727539 L13.3522026,36.7727539 L9.88345263,36.7429688 L5.7877495,36.6833984 L4.15884325,36.6178711 L3.61392138,36.605957 L1.9908745,36.5285156 C0.912749503,36.409375 0.162749503,35.5753906 0.145171378,34.4912109 L0.00454637761,33.3474609 C-0.0247504974,33.1210938 0.0924370026,32.8053711 0.215483878,32.5790039 L5.858062,22.3150391 C5.91079638,22.2137695 6.03970263,22.1125 6.09829638,22.0588867 C5.88735888,21.7848633 5.77603075,21.4810547 5.77603075,21.153418 L5.74673388,18.9314453 L5.75845263,3.5265625 L5.79360888,1.85859375 C5.811187,0.893554688 6.56704638,0.274023437 7.55142138,0.154882812 L13.7096245,0 L36.1217339,0 L40.5807183,0.071484375 L43.3170464,0.184667969 C44.1432183,0.220410156 44.7936089,0.828027344 44.951812,1.63222656 C45.0279839,2.01347656 45.0338433,2.35898437 45.0338433,2.7640625 L45.0338433,19.1041992 L45.0045464,19.8369141 L44.9928276,21.0878906 C44.9928276,21.4512695 44.8463433,21.7967773 44.5943901,22.0112305 L44.8873589,22.3865234 C46.8209526,25.6569336 48.6842339,28.9273437 50.4889214,32.2751953 C50.6529839,32.5849609 50.8463433,32.9542969 50.7994683,33.2878906 L50.6295464,34.5507812 C50.5826714,35.5694336 49.8912651,36.3736328 48.8717339,36.4987305 L47.0318901,36.605957 L46.5045464,36.6238281 L45.0514214,36.6833984 L45.0514214,36.6833984 Z M44.0729058,20.9389648 L44.1432183,17.5613281 L44.1432183,6.02255859 L44.0787651,2.15048828 C44.0729058,1.62626953 43.6920464,1.19736328 43.1764214,1.17353516 L39.1451714,0.994824219 L37.9908745,0.976953125 L23.3600151,0.899511719 L15.1041558,0.917382813 L14.4947808,0.929296875 L7.68032763,1.15566406 C7.16470263,1.17353516 6.73696825,1.49521484 6.71353075,2.00751953 L6.66079638,3.22275391 L6.66079638,19.6939453 L6.69009325,21.0640625 C6.69595263,21.3857422 6.93032763,21.6835938 7.31704638,21.6835938 L43.3697808,21.6835938 C43.8033745,21.6835938 44.0553276,21.3142578 44.0670464,20.9330078 L44.0729058,20.9389648 Z M6.58501513,3.56826172 L6.48501513,3.56826172 L6.48501513,12.0868164 L6.58501513,12.0868164 L6.58501513,3.56826172 Z M6.58501513,15.244043 L6.48501513,15.244043 L6.48501513,16.8524414 L6.58501513,16.8524414 L6.58501513,15.244043 Z M14.2779839,22.3924805 L8.44790575,22.3924805 L8.44790575,22.4924805 L14.2779839,22.4924805 L14.2779839,22.3924805 Z M17.6178276,22.3924805 L14.951812,22.3924805 L14.951812,22.4924805 L17.6178276,22.4924805 L17.6178276,22.3924805 Z M40.6451714,22.3924805 L17.7057183,22.3924805 L17.7057183,22.4924805 L40.6451714,22.4924805 L40.6451714,22.3924805 Z M42.9303276,22.3924805 L40.733062,22.3924805 L40.733062,22.4924805 L42.9303276,22.4924805 L42.9303276,22.3924805 Z M42.3619683,33.6214844 L45.5729058,33.5678711 L49.5807183,33.3295898 L49.733062,33.2223633 C49.7623589,33.1985352 49.7506401,33.1091797 49.7447808,33.0496094 L48.0865776,29.9579102 L43.8502495,22.5950195 L6.8658745,22.5950195 L1.12954638,33.0376953 C1.09439013,33.1091797 1.03579638,33.2164062 1.076812,33.2402344 L1.2408745,33.3415039 L4.4283745,33.5619141 L4.84439013,33.5738281 L8.66470263,33.6333984 L30.6783745,33.6333984 L42.3561089,33.6333984 L42.3619683,33.6214844 Z M49.6686089,34.2767578 L48.0162651,34.4495117 L40.8092339,34.5924805 L15.6842339,34.5567383 L5.50064013,34.5269531 L3.36782763,34.4435547 L1.08853075,34.2767578 C1.04751513,34.9022461 1.48696825,35.5098633 2.16079638,35.5515625 C6.24478075,35.8017578 10.3697808,35.8553711 14.5064995,35.8494141 L39.0397026,35.8494141 C39.0397026,35.843457 44.5006401,35.7362305 44.5006401,35.7362305 L48.5846245,35.5336914 C49.2408745,35.5039063 49.7096245,34.878418 49.6568901,34.2708008 L49.6686089,34.2767578 Z" id="Forma" fill-rule="nonzero"></path>
                    <path d="M14.6412651,24.7633789 L12.6432183,24.78125 C12.3092339,24.78125 12.092437,24.5667969 12.0982964,24.2749023 C12.1041558,23.9830078 12.3092339,23.7566406 12.6373589,23.7625977 L14.6061089,23.7804687 C14.8287651,23.7804687 14.9635308,24.0544922 14.9811089,24.2272461 C14.998687,24.4 14.9107964,24.7633789 14.6354058,24.7693359 L14.6412651,24.7633789 Z" id="Trazado"></path>
                    <path d="M32.4596245,28.1052734 L30.2213433,28.1171875 C29.9635308,28.1171875 29.7818901,27.9146484 29.7408745,27.7121094 C29.6998589,27.5095703 29.8229058,27.1521484 30.1041558,27.1521484 L32.389312,27.1402344 C32.6295464,27.1402344 32.7818901,27.3606445 32.8229058,27.5512695 C32.8639214,27.7418945 32.7467339,28.1052734 32.4596245,28.1052734 L32.4596245,28.1052734 Z M30.2154839,27.9325195 L30.2154839,28.0325195 L32.4713433,28.0325195 L32.4713433,27.9325195 L30.2154839,27.9325195 Z" id="Forma" fill-rule="nonzero"></path>
                    <path d="M36.2740776,28.1112305 L33.983062,28.1112305 C33.7369683,28.1112305 33.5553276,27.7835937 33.561187,27.6108398 C33.5729058,27.3427734 33.8014214,27.1402344 34.0826714,27.1402344 L36.1334526,27.1402344 C36.4088433,27.1402344 36.5963433,27.3070312 36.6432183,27.5512695 C36.6900933,27.7955078 36.5729058,28.1112305 36.2740776,28.1112305 Z M33.9654839,27.9325195 L33.9654839,28.0325195 L36.1041558,28.0325195 L36.1041558,27.9325195 L33.9654839,27.9325195 Z" id="Forma" fill-rule="nonzero"></path>
                    <path d="M28.3697808,28.1231445 L26.3482964,28.1231445 C26.0963433,28.1231445 25.8971245,27.9086914 25.8678276,27.7180664 C25.8385308,27.5274414 25.9557183,27.1521484 26.2369683,27.1521484 L28.5689995,27.1521484 C28.8443901,27.1521484 28.9322808,27.5036133 28.8971245,27.7121094 C28.8619683,27.9206055 28.6803276,28.1231445 28.3697808,28.1231445 L28.3697808,28.1231445 Z M26.2897026,27.9325195 L26.2897026,28.0325195 L28.311187,28.0325195 L28.311187,27.9325195 L26.2897026,27.9325195 Z" id="Forma" fill-rule="nonzero"></path>
                    <path d="M18.1158745,24.78125 L16.3873589,24.78125 C16.0826714,24.78125 15.8658745,24.5370117 15.8658745,24.2689453 C15.8658745,24.0008789 16.0826714,23.7625977 16.3873589,23.7625977 L18.139312,23.7625977 C18.4381401,23.7625977 18.6314995,23.9949219 18.6373589,24.2689453 C18.6432183,24.5429688 18.4439995,24.78125 18.1158745,24.78125 Z" id="Trazado"></path>
                    <path d="M38.154937,24.78125 L36.3678276,24.78125 C36.1100151,24.775293 35.9283745,24.5250977 35.8990776,24.3106445 C35.8697808,24.0961914 36.0104058,23.7745117 36.2740776,23.7745117 L38.1666558,23.7745117 C38.4654839,23.7625977 38.6588433,24.012793 38.6647026,24.2689453 C38.670562,24.5250977 38.4889214,24.78125 38.154937,24.78125 L38.154937,24.78125 Z" id="Trazado"></path>
                    <path d="M35.6295464,26.4253906 L34.7857964,26.4015625 L33.6725151,26.4194336 C33.4029839,26.4194336 33.2623589,26.1454102 33.2506401,25.930957 C33.2389214,25.7165039 33.4381401,25.4424805 33.7311089,25.4424805 L35.7760308,25.4424805 C36.1041558,25.4424805 36.2740776,25.7462891 36.2506401,25.9845703 C36.2213433,26.3360352 35.9811089,26.4373047 35.623687,26.4253906 L35.6295464,26.4253906 Z" id="Trazado"></path>
                    <path d="M24.4732964,28.1231445 L22.4283745,28.1112305 C22.1412651,28.1112305 21.9596245,27.8193359 21.9713433,27.6048828 C21.983062,27.3904297 22.1881401,27.1342773 22.4811089,27.1342773 L24.6373589,27.1521484 C24.9186089,27.1521484 25.0240776,27.5036133 24.9947808,27.6942383 C24.9479058,27.9623047 24.7662651,28.1231445 24.4732964,28.1231445 L24.4732964,28.1231445 Z M24.6022026,28.0019658 L24.5025933,27.9382671 L22.7857964,27.9241119 C22.6217339,27.9241119 22.4869683,27.8391803 22.358062,28.0019658 L24.608062,28.0019658 L24.6022026,28.0019658 Z" id="Forma" fill-rule="nonzero"></path>
                    <path d="M20.7467339,28.1112305 L18.6139214,28.1112305 C18.3150933,28.1171875 18.1158745,27.8550781 18.1275933,27.6048828 C18.139312,27.3546875 18.3678276,27.1342773 18.6666558,27.1342773 L20.7760308,27.1461914 C20.9928276,27.1461914 21.1275933,27.444043 21.1334526,27.6048828 C21.139312,27.7657227 21.0221245,28.1112305 20.7408745,28.1112305 L20.7467339,28.1112305 Z M20.7350151,28.0122721 L20.623687,27.9206055 L18.4967339,27.9456055 L18.5260308,28.0206055 L20.7350151,28.0206055 L20.7350151,28.0122721 Z" id="Forma" fill-rule="nonzero"></path>
                    <path d="M9.23892138,28.1231445 L7.24673388,28.1231445 C6.9596245,28.1231445 6.75454638,27.9742188 6.70767138,27.7121094 C6.66079638,27.45 6.77798388,27.1521484 7.07095263,27.1521484 L9.3502495,27.1521484 C9.62564013,27.1521484 9.77798388,27.4380859 9.76040575,27.6525391 C9.74282763,27.8669922 9.53189013,28.1231445 9.23892138,28.1231445 Z M9.43228075,27.8431641 L9.01040575,27.9325195 L7.16470263,27.9206055 L7.04751513,27.8133789 C7.02407763,27.7955078 6.936187,27.8848633 6.96548388,27.9027344 L7.1002495,27.9861328 L9.38540575,27.9861328 L9.53189013,27.8967773 C9.54946825,27.8848633 9.44985888,27.837207 9.43228075,27.837207 L9.43228075,27.8431641 Z" id="Forma" fill-rule="nonzero"></path>
                    <path d="M10.8326714,24.7633789 L8.96939013,24.7633789 C8.68814013,24.7633789 8.48892138,24.4953125 8.48892138,24.2689453 C8.48892138,24.0425781 8.67642138,23.7625977 8.95767138,23.7625977 L10.8150933,23.7625977 C11.0553276,23.7625977 11.201812,24.024707 11.2252495,24.2212891 C11.248687,24.4178711 11.1256401,24.7574219 10.8385308,24.7574219 L10.8326714,24.7633789 Z" id="Trazado"></path>
                    <path d="M13.0240776,28.1231445 L10.9557183,28.1112305 C10.6568901,28.1112305 10.4928276,27.9027344 10.4693901,27.6525391 C10.4459526,27.4023437 10.639312,27.1402344 10.9381401,27.1402344 L13.1061089,27.1402344 C13.3756401,27.1461914 13.5279839,27.4380859 13.5162651,27.6525391 C13.5045464,27.8669922 13.3346245,28.1291016 13.0240776,28.1231445 L13.0240776,28.1231445 Z M12.7838433,27.9265625 L11.0553276,27.9265625 C10.9557183,27.9146484 10.7740776,27.7299805 10.6451714,27.8431641 C10.7564995,27.9265625 10.9439995,27.9920898 11.108062,27.9920898 L13.170562,27.9920898 C13.076812,27.7716797 12.9127495,27.9265625 12.7838433,27.9265625 L12.7838433,27.9265625 Z" id="Forma" fill-rule="nonzero"></path>
                    <path d="M17.1197808,26.4134766 L16.0416558,26.4134766 L15.3385308,26.4253906 C15.0162651,26.4313477 14.764312,26.2705078 14.7291558,25.9905273 C14.6939995,25.7105469 14.9225151,25.4305664 15.2740776,25.4305664 L17.2076714,25.4424805 C17.4889214,25.4424805 17.6764214,25.7105469 17.6764214,25.925 C17.6764214,26.2407227 17.4713433,26.4075195 17.1197808,26.4075195 L17.1197808,26.4134766 Z" id="Trazado"></path>
                    <path d="M43.7682183,28.1052734 L41.6998589,28.1171875 C41.4186089,28.1171875 41.2311089,27.8848633 41.2135308,27.6584961 C41.1959526,27.4321289 41.3951714,27.1402344 41.6939995,27.1402344 L43.7447808,27.1402344 C44.0025933,27.1402344 44.1432183,27.3904297 44.1607964,27.6108398 C44.1783745,27.83125 44.0377495,28.1052734 43.7623589,28.1052734 L43.7682183,28.1052734 Z M43.8795464,28.018581 L43.779937,27.9456465 L42.0572808,27.9294389 C41.8932183,27.9294389 41.764312,27.8727121 41.6354058,28.018581 L43.8854058,28.018581 L43.8795464,28.018581 Z" id="Forma" fill-rule="nonzero"></path>
                    <path d="M39.795562,26.4194336 L38.5826714,26.4194336 L37.779937,26.4015625 C37.4576714,26.3956055 37.1881401,26.3598633 37.123687,26.0500977 C37.0592339,25.740332 37.2467339,25.4424805 37.592437,25.4424805 L39.5318901,25.4424805 C39.7428276,25.4424805 39.9713433,25.6033203 40.0240776,25.7820313 C40.076812,25.9607422 40.0064995,26.2407227 39.7897026,26.4194336 L39.795562,26.4194336 Z" id="Trazado"></path>
                    <path d="M23.8873589,26.4194336 L23.0025933,26.4194336 C22.8092339,26.4194336 22.5689995,26.4373047 22.404937,26.3419922 C22.2408745,26.2466797 22.1588433,25.9666992 22.2232964,25.7641602 C22.2877495,25.5616211 22.4869683,25.4424805 22.7037651,25.4424805 L24.5846245,25.4424805 C24.889312,25.4424805 25.1002495,25.6748047 25.1002495,25.9130859 C25.1002495,26.2705078 24.8600151,26.4313477 24.5201714,26.4253906 L23.8814995,26.4134766 L23.8873589,26.4194336 Z" id="Trazado"></path>
                    <path d="M20.811187,25.4424805 C21.139312,25.4424805 21.3561089,25.6033203 21.3795464,25.8833008 C21.4029839,26.1632812 21.2740776,26.4253906 20.9693901,26.4253906 L18.9596245,26.4253906 C18.6607964,26.4253906 18.4615776,26.1871094 18.4615776,25.9369141 C18.4615776,25.6867187 18.6607964,25.4484375 18.9654839,25.4424805 L20.811187,25.4424805 Z M18.654937,26.0739258 L19.0123589,25.5616211 C18.8541558,25.5914062 18.7193901,25.6390625 18.6607964,25.7045898 C18.6022026,25.7701172 18.6139214,25.9726562 18.654937,26.0798828 L18.654937,26.0739258 Z" id="Forma" fill-rule="nonzero"></path>
                    <path d="M41.8697808,24.7574219 L40.0064995,24.775293 C39.7193901,24.775293 39.5318901,24.5012695 39.5260308,24.2689453 C39.5201714,24.0366211 39.7428276,23.7566406 40.0592339,23.7566406 L41.8053276,23.7685547 C42.0397026,23.7685547 42.1803276,24.0366211 42.1979058,24.209375 C42.2154839,24.3821289 42.1334526,24.7514648 41.8697808,24.7514648 L41.8697808,24.7574219 Z" id="Trazado"></path>
                    <path d="M9.43814013,26.3896484 C9.08657763,26.4432617 8.79946825,26.3836914 8.46548388,26.4015625 L7.779937,26.4373047 C7.45767138,26.4551758 7.25259325,26.2645508 7.217437,25.9964844 C7.18228075,25.728418 7.38735888,25.4424805 7.7096245,25.4424805 L9.64321825,25.4543945 C9.9596245,25.4543945 10.1295464,25.7582031 10.1002495,26.0024414 C10.0709526,26.2466797 9.795562,26.496875 9.43814013,26.3956055 L9.43814013,26.3896484 Z" id="Trazado"></path>
                    <path d="M39.9654839,28.1112305 L37.8971245,28.1112305 C37.6100151,28.1171875 37.4166558,27.8431641 37.4283745,27.6048828 C37.4400933,27.3666016 37.6510308,27.1402344 37.9498589,27.1402344 L39.9420464,27.1521484 C40.1939995,27.1521484 40.3404839,27.4142578 40.3522026,27.6167969 C40.3639214,27.8193359 40.2408745,28.1112305 39.9654839,28.1112305 Z M38.0436089,27.9265625 C37.967437,27.9265625 37.7916558,27.7538086 37.7447808,27.9920898 L39.8834526,27.9920898 L39.8541558,27.9384766 L38.0436089,27.9384766 L38.0436089,27.9265625 Z" id="Forma" fill-rule="nonzero"></path>
                    <path d="M43.4752495,26.3836914 C42.9713433,26.490918 42.4732964,26.4015625 41.9869683,26.4015625 C41.5006401,26.4015625 41.3775933,26.502832 41.0904839,26.3300781 C40.8033745,26.1573242 40.8795464,25.9666992 40.9439995,25.7701172 C41.0084526,25.5735352 41.201812,25.4424805 41.3951714,25.4424805 L43.2232964,25.4424805 C43.4459526,25.4424805 43.6686089,25.5914062 43.7272026,25.7760742 C43.7857964,25.9607422 43.7447808,26.3241211 43.4693901,26.3836914 L43.4752495,26.3836914 Z" id="Trazado"></path>
                    <path d="M13.4869683,26.3956055 L11.5240776,26.4075195 C11.2076714,26.4075195 10.9850151,26.30625 10.9439995,25.9666992 C10.9029839,25.6271484 11.0963433,25.4424805 11.4068901,25.4484375 L13.3404839,25.4484375 C13.5748589,25.4484375 13.779937,25.6450195 13.8150933,25.8237305 C13.8502495,26.0024414 13.7740776,26.3956055 13.4869683,26.3956055 Z" id="Trazado"></path>
                    <path d="M28.4283745,26.4015625 L27.2389214,26.4313477 L26.4654839,26.4194336 C26.1607964,26.4194336 25.9439995,26.2168945 25.9439995,25.9428711 C25.9439995,25.6688477 26.154937,25.4484375 26.4596245,25.4543945 L28.217437,25.4543945 C28.4811089,25.4543945 28.6979058,25.6092773 28.7389214,25.8475586 C28.779937,26.0858398 28.7096245,26.4015625 28.4283745,26.4075195 L28.4283745,26.4015625 Z" id="Trazado"></path>
                    <path d="M31.9381401,26.4313477 L31.2115776,26.4313477 C31.2115776,26.4253906 30.2154839,26.4313477 30.2154839,26.4313477 C29.9166558,26.4313477 29.6764214,26.2824219 29.6412651,26.0024414 C29.6061089,25.7224609 29.7877495,25.4543945 30.092437,25.4543945 L31.967437,25.4543945 C32.2721245,25.4543945 32.483062,25.6926758 32.4772026,25.9428711 C32.4713433,26.1930664 32.2838433,26.4432617 31.9322808,26.4373047 L31.9381401,26.4313477 Z" id="Trazado"></path>
                    <path d="M34.6920464,24.7633789 L32.9752495,24.775293 C32.7115776,24.775293 32.5240776,24.5310547 32.5006401,24.3166016 C32.4772026,24.1021484 32.5885308,23.7745117 32.8697808,23.7745117 L34.4928276,23.7566406 C34.779937,23.7566406 34.9967339,23.8996094 35.0494683,24.1557617 C35.1022026,24.4119141 34.9908745,24.7633789 34.686187,24.7633789 L34.6920464,24.7633789 Z" id="Trazado"></path>
                    <path d="M28.170562,24.7514648 L26.3600151,24.7633789 C26.1432183,24.7633789 25.9615776,24.4833984 25.9439995,24.3166016 C25.9264214,24.1498047 26.0436089,23.7745117 26.3072808,23.7745117 L28.0943901,23.7745117 C28.3229058,23.7745117 28.4693901,24.0366211 28.4869683,24.209375 C28.5045464,24.3821289 28.4342339,24.7514648 28.170562,24.7514648 L28.170562,24.7514648 Z" id="Trazado"></path>
                    <path d="M21.5553276,24.7633789 L19.7975151,24.7633789 C19.5514214,24.7633789 19.3756401,24.4536133 19.3756401,24.2689453 C19.3756401,24.0842773 19.545562,23.7685547 19.7916558,23.7685547 L21.4791558,23.7685547 C21.7311089,23.7685547 21.889312,24.01875 21.9186089,24.215332 C21.9479058,24.4119141 21.8248589,24.7633789 21.5494683,24.7633789 L21.5553276,24.7633789 Z" id="Trazado"></path>
                    <path d="M31.2994683,24.78125 L29.764312,24.7693359 C29.4654839,24.7693359 29.3014214,24.4416992 29.3131401,24.215332 C29.3248589,23.9889648 29.5592339,23.7625977 29.8697808,23.7625977 L31.2701714,23.7625977 C31.5748589,23.7625977 31.7857964,23.9293945 31.8150933,24.215332 C31.8443901,24.5012695 31.6510308,24.787207 31.2994683,24.78125 L31.2994683,24.78125 Z" id="Trazado"></path>
                    <path d="M24.7838433,24.7633789 L23.1373589,24.7633789 C22.8795464,24.775293 22.6979058,24.5191406 22.6686089,24.3285156 C22.639312,24.1378906 22.7623589,23.7804687 23.0318901,23.7804687 L24.6432183,23.7625977 C24.9068901,23.7625977 25.0943901,23.9413086 25.1529839,24.1557617 C25.2115776,24.3702148 25.1002495,24.7574219 24.7838433,24.7633789 L24.7838433,24.7633789 Z" id="Trazado"></path>
                    <path d="M32.576812,32.4777344 L18.4439995,32.4777344 C18.1100151,32.4777344 17.6998589,32.1500977 17.8170464,31.8105469 L18.7135308,29.3026367 C18.8189995,29.0107422 19.0416558,28.8201172 19.3814995,28.8201172 L31.3697808,28.8201172 C31.7096245,28.8201172 31.9557183,28.9511719 32.0729058,29.2668945 L33.0045464,31.7569336 C33.1217339,32.0726563 32.9283745,32.4300781 32.5650933,32.4777344 L32.576812,32.4777344 Z M28.7623589,29.7672852 L24.9772026,29.7672852 L24.3561089,29.7553711 L23.5885308,29.7375 L21.1920464,29.7255859 L19.6334526,29.7672852 L18.983062,31.5067383 L31.8912651,31.5067383 L31.2291558,29.7672852 L30.045562,29.7553711 L29.3717339,29.7553711 L28.7623589,29.7672852 L28.7623589,29.7672852 Z" id="Forma" fill-rule="nonzero"></path>
                </g>
                <path d="M42.608062,19.3126953 C42.608062,19.7833008 42.3795464,20.1466797 41.9166558,20.1466797 L8.904937,20.1466797 C8.47720263,20.1466797 8.23110888,19.8011719 8.23110888,19.4080078 L8.23110888,3.22275391 C8.23110888,2.78193359 8.47134325,2.45429688 8.91079638,2.44833984 L13.217437,2.39472656 L13.7857964,2.39472656 C13.7857964,2.38876953 35.7467339,2.38876953 35.7467339,2.38876953 C36.1920464,2.478125 36.5787651,2.43046875 37.0123589,2.41259766 L37.6568901,2.38876953 L41.7525933,2.43046875 C42.1510308,2.43046875 42.5729058,2.70449219 42.5729058,3.16914063 L42.608062,19.3126953 L42.608062,19.3126953 Z M14.2721245,3.15722656 C14.2252495,2.9546875 14.061187,3.09765625 13.9908745,3.08574219 C13.7096245,3.03808594 13.4635308,3.01425781 13.217437,3.1453125 L14.2721245,3.16318359 L14.2721245,3.15722656 Z M16.2408745,3.13339844 C15.9068901,2.90703125 15.5963433,3.07978516 15.2916558,3.07978516 C15.0514214,3.01425781 14.8229058,2.99042969 14.6178276,3.1453125 L16.2408745,3.13339844 Z M28.4869683,3.05 L28.0006401,3.05 L27.4615776,3.06191406 C27.2975151,3.06191406 27.1803276,3.03808594 27.0397026,3.15126953 L28.7623589,3.15126953 C28.686187,3.05595703 28.6100151,3.05 28.4869683,3.05595703 L28.4869683,3.05 Z M41.4186089,3.21083984 L41.3248589,3.15722656 L39.561187,3.07382813 L38.6588433,3.12148438 L38.6588433,3.20488281 L41.4186089,3.21083984 Z M41.7057183,3.27041016 L9.13345263,3.27041016 L9.13345263,19.2769531 L41.6998589,19.2769531 L41.6998589,3.27041016 L41.7057183,3.27041016 Z" id="Forma" fill-rule="nonzero"></path>
            </g>
        </g>
    </g>
</svg>