<?xml version="1.0" encoding="UTF-8"?>
<svg width="130px" height="16px" viewBox="0 0 130 16" version="1.1" xmlns="http://www.w3.org/2000/svg" xmlns:xlink="http://www.w3.org/1999/xlink">
    <title>Heading 6</title>
    <defs>
        <path d="M13.688,3.976 C14.2586667,4.216 14.7093333,4.60533333 15.04,5.144 C15.3706667,5.68266667 15.536,6.39466667 15.536,7.28 L15.536,11.744 C15.536,12.6293333 15.3706667,13.3413333 15.04,13.88 C14.7093333,14.4186667 14.2586667,14.808 13.688,15.048 C13.1173333,15.288 12.48,15.408 11.776,15.408 C11.072,15.408 10.4373333,15.288 9.872,15.048 C9.30666667,14.808 8.85866667,14.4186667 8.528,13.88 C8.19733333,13.3413333 8.032,12.6293333 8.032,11.744 L8.032,7.28 C8.032,6.39466667 8.19733333,5.68266667 8.528,5.144 C8.85866667,4.60533333 9.304,4.216 9.864,3.976 C10.424,3.736 11.0613333,3.616 11.776,3.616 C12.48,3.616 13.1173333,3.736 13.688,3.976 Z M52.344,3.992 C52.9146667,4.24266667 53.3626667,4.592 53.688,5.04 C54.0133333,5.488 54.176,6.02666667 54.176,6.656 C54.176,7.072 54.0906667,7.34666667 53.92,7.48 C53.7493333,7.61333333 53.488,7.68 53.136,7.68 C52.848,7.68 52.6053333,7.62933333 52.408,7.528 C52.2106667,7.42666667 52.1066667,7.25866667 52.096,7.024 C52.096,6.896 52.0773333,6.744 52.04,6.568 C52.0026667,6.392 51.9306667,6.21866667 51.824,6.048 C51.7173333,5.87733333 51.5546667,5.73333333 51.336,5.616 C51.1173333,5.49866667 50.816,5.44 50.432,5.44 C49.888,5.44 49.4693333,5.592 49.176,5.896 C48.8826667,6.2 48.736,6.66133333 48.736,7.28 L48.736,11.744 C48.736,12.3733333 48.8853333,12.8373333 49.184,13.136 C49.4826667,13.4346667 49.9093333,13.584 50.464,13.584 C50.8266667,13.584 51.1146667,13.5253333 51.328,13.408 C51.5413333,13.2906667 51.6986667,13.144 51.8,12.968 C51.9013333,12.792 51.9706667,12.608 52.008,12.416 C52.0453333,12.224 52.0746667,12.0426667 52.096,11.872 C52.1173333,11.6266667 52.224,11.456 52.416,11.36 C52.608,11.264 52.8426667,11.216 53.12,11.216 C53.4826667,11.216 53.7493333,11.2853333 53.92,11.424 C54.0906667,11.5626667 54.176,11.8346667 54.176,12.24 C54.176,12.88 54.0133333,13.44 53.688,13.92 C53.3626667,14.4 52.912,14.768 52.336,15.024 C51.76,15.28 51.0986667,15.408 50.352,15.408 C49.6906667,15.408 49.0773333,15.288 48.512,15.048 C47.9466667,14.808 47.4986667,14.4186667 47.168,13.88 C46.8373333,13.3413333 46.672,12.6293333 46.672,11.744 L46.672,7.28 C46.672,6.39466667 46.8373333,5.68266667 47.168,5.144 C47.4986667,4.60533333 47.9466667,4.216 48.512,3.976 C49.0773333,3.736 49.696,3.616 50.368,3.616 C51.1146667,3.616 51.7733333,3.74133333 52.344,3.992 Z M65.16,3.976 C65.7306667,4.216 66.1813333,4.60533333 66.512,5.144 C66.8426667,5.68266667 67.008,6.39466667 67.008,7.28 L67.008,11.744 C67.008,12.6293333 66.8426667,13.3413333 66.512,13.88 C66.1813333,14.4186667 65.7306667,14.808 65.16,15.048 C64.5893333,15.288 63.952,15.408 63.248,15.408 C62.544,15.408 61.9093333,15.288 61.344,15.048 C60.7786667,14.808 60.3306667,14.4186667 60,13.88 C59.6693333,13.3413333 59.504,12.6293333 59.504,11.744 L59.504,7.28 C59.504,6.39466667 59.6693333,5.68266667 60,5.144 C60.3306667,4.60533333 60.776,4.216 61.336,3.976 C61.896,3.736 62.5333333,3.616 63.248,3.616 C63.952,3.616 64.5893333,3.736 65.16,3.976 Z M87.24,3.976 C87.8106667,4.216 88.2613333,4.60533333 88.592,5.144 C88.9226667,5.68266667 89.088,6.39466667 89.088,7.28 L89.088,11.744 C89.088,12.6293333 88.9226667,13.3413333 88.592,13.88 C88.2613333,14.4186667 87.8106667,14.808 87.24,15.048 C86.6693333,15.288 86.032,15.408 85.328,15.408 C84.624,15.408 83.9893333,15.288 83.424,15.048 C82.8586667,14.808 82.4106667,14.4186667 82.08,13.88 C81.7493333,13.3413333 81.584,12.6293333 81.584,11.744 L81.584,7.28 C81.584,6.39466667 81.7493333,5.68266667 82.08,5.144 C82.4106667,4.60533333 82.856,4.216 83.416,3.976 C83.976,3.736 84.6133333,3.616 85.328,3.616 C86.032,3.616 86.6693333,3.736 87.24,3.976 Z M23.08,3.92 C23.6506667,4.12266667 24.1066667,4.46666667 24.448,4.952 C24.7893333,5.43733333 24.96,6.10666667 24.96,6.96 C24.96,7.57866667 24.8693333,8.104 24.688,8.536 C24.5066667,8.968 24.2586667,9.31466667 23.944,9.576 C23.6293333,9.83733333 23.2693333,10.032 22.864,10.16 L24.976,14.048 C24.9973333,14.0906667 25.0133333,14.136 25.024,14.184 C25.0346667,14.232 25.04,14.272 25.04,14.304 C25.04,14.4746667 24.976,14.6453333 24.848,14.816 C24.72,14.9866667 24.5573333,15.1253333 24.36,15.232 C24.1626667,15.3386667 23.9573333,15.392 23.744,15.392 C23.6053333,15.392 23.4693333,15.3493333 23.336,15.264 C23.2026667,15.1786667 23.0986667,15.056 23.024,14.896 L20.752,10.48 L19.408,10.48 L19.408,14.656 C19.408,14.8693333 19.3013333,15.032 19.088,15.144 C18.8746667,15.256 18.6346667,15.312 18.368,15.312 C18.112,15.312 17.8746667,15.256 17.656,15.144 C17.4373333,15.032 17.328,14.8693333 17.328,14.656 L17.328,4.256 C17.328,4.08533333 17.3893333,3.936 17.512,3.808 C17.6346667,3.68 17.7973333,3.616 18,3.616 L21.168,3.616 C21.872,3.616 22.5093333,3.71733333 23.08,3.92 Z M7,3.904 C7.10133333,4.096 7.152,4.29866667 7.152,4.512 C7.152,4.768 7.096,4.98666667 6.984,5.168 C6.872,5.34933333 6.70933333,5.44 6.496,5.44 L2.08,5.44 L2.08,8.64 L4.528,8.64 C4.74133333,8.64 4.904,8.72266667 5.016,8.888 C5.128,9.05333333 5.184,9.248 5.184,9.472 C5.184,9.65333333 5.13333333,9.832 5.032,10.008 C4.93066667,10.184 4.76266667,10.272 4.528,10.272 L2.08,10.272 L2.08,14.656 C2.08,14.8693333 1.97333333,15.032 1.76,15.144 C1.54666667,15.256 1.30666667,15.312 1.04,15.312 C0.784,15.312 0.546666667,15.256 0.328,15.144 C0.109333333,15.032 5.77315973e-15,14.8693333 5.77315973e-15,14.656 L5.77315973e-15,4.272 C5.77315973e-15,4.05866667 0.096,3.896 0.288,3.784 C0.48,3.672 0.688,3.616 0.912,3.616 L6.496,3.616 C6.73066667,3.616 6.89866667,3.712 7,3.904 Z M76.24,3.768 C76.4533333,3.86933333 76.56,4.032 76.56,4.256 L76.56,14.656 C76.56,14.8693333 76.4533333,15.032 76.24,15.144 C76.0266667,15.256 75.7866667,15.312 75.52,15.312 C75.2746667,15.312 75.048,15.264 74.84,15.168 C74.632,15.072 74.464,14.9013333 74.336,14.656 L70.88,8.224 L70.88,14.656 C70.88,14.8693333 70.7733333,15.032 70.56,15.144 C70.3466667,15.256 70.1066667,15.312 69.84,15.312 C69.584,15.312 69.3466667,15.256 69.128,15.144 C68.9093333,15.032 68.8,14.8693333 68.8,14.656 L68.8,4.272 C68.8,4.048 68.9093333,3.88266667 69.128,3.776 C69.3466667,3.66933333 69.584,3.616 69.84,3.616 C70.096,3.616 70.3066667,3.64266667 70.472,3.696 C70.6373333,3.74933333 70.792,3.85333333 70.936,4.008 C71.08,4.16266667 71.232,4.4 71.392,4.72 L74.48,10.688 L74.48,4.256 C74.48,4.032 74.5893333,3.86933333 74.808,3.768 C75.0266667,3.66666667 75.264,3.616 75.52,3.616 C75.7866667,3.616 76.0266667,3.66666667 76.24,3.768 Z M42.08,3.696 C42.336,3.81333333 42.5013333,3.98933333 42.576,4.224 L45.664,14.288 C45.6853333,14.3626667 45.696,14.416 45.696,14.448 C45.696,14.608 45.624,14.7546667 45.48,14.888 C45.336,15.0213333 45.1626667,15.1253333 44.96,15.2 C44.7573333,15.2746667 44.56,15.312 44.368,15.312 C44.1973333,15.312 44.0506667,15.2826667 43.928,15.224 C43.8053333,15.1653333 43.7226667,15.056 43.68,14.896 L43.072,12.768 L39.392,12.768 L38.8,14.896 C38.7573333,15.056 38.672,15.1653333 38.544,15.224 C38.416,15.2826667 38.2666667,15.312 38.096,15.312 C37.904,15.312 37.7066667,15.2746667 37.504,15.2 C37.3013333,15.1253333 37.1306667,15.024 36.992,14.896 C36.8533333,14.768 36.784,14.6186667 36.784,14.448 C36.784,14.416 36.7893333,14.3626667 36.8,14.288 L39.888,4.224 C39.9626667,3.98933333 40.1306667,3.81333333 40.392,3.696 C40.6533333,3.57866667 40.9333333,3.52 41.232,3.52 C41.5413333,3.52 41.824,3.57866667 42.08,3.696 Z M129.128,3.904 C129.229333,4.096 129.28,4.29866667 129.28,4.512 C129.28,4.768 129.224,4.98666667 129.112,5.168 C129,5.34933333 128.837333,5.44 128.624,5.44 L124.096,5.44 L124.096,8.64 L126.528,8.64 C126.741333,8.64 126.904,8.72266667 127.016,8.888 C127.128,9.05333333 127.184,9.248 127.184,9.472 C127.184,9.65333333 127.133333,9.832 127.032,10.008 C126.930667,10.184 126.762667,10.272 126.528,10.272 L124.096,10.272 L124.096,13.488 L128.624,13.488 C128.837333,13.488 129,13.5786667 129.112,13.76 C129.224,13.9413333 129.28,14.16 129.28,14.416 C129.28,14.6293333 129.229333,14.832 129.128,15.024 C129.026667,15.216 128.858667,15.312 128.624,15.312 L122.928,15.312 C122.704,15.312 122.496,15.256 122.304,15.144 C122.112,15.032 122.016,14.8693333 122.016,14.656 L122.016,4.272 C122.016,4.05866667 122.112,3.896 122.304,3.784 C122.496,3.672 122.704,3.616 122.928,3.616 L128.624,3.616 C128.858667,3.616 129.026667,3.712 129.128,3.904 Z M119.76,3.768 C119.973333,3.86933333 120.08,4.032 120.08,4.256 L120.08,14.656 C120.08,14.8693333 119.973333,15.032 119.76,15.144 C119.546667,15.256 119.306667,15.312 119.04,15.312 C118.794667,15.312 118.568,15.264 118.36,15.168 C118.152,15.072 117.984,14.9013333 117.856,14.656 L114.4,8.224 L114.4,14.656 C114.4,14.8693333 114.293333,15.032 114.08,15.144 C113.866667,15.256 113.626667,15.312 113.36,15.312 C113.104,15.312 112.866667,15.256 112.648,15.144 C112.429333,15.032 112.32,14.8693333 112.32,14.656 L112.32,4.272 C112.32,4.048 112.429333,3.88266667 112.648,3.776 C112.866667,3.66933333 113.104,3.616 113.36,3.616 C113.616,3.616 113.826667,3.64266667 113.992,3.696 C114.157333,3.74933333 114.312,3.85333333 114.456,4.008 C114.6,4.16266667 114.752,4.4 114.912,4.72 L118,10.688 L118,4.256 C118,4.032 118.109333,3.86933333 118.328,3.768 C118.546667,3.66666667 118.784,3.616 119.04,3.616 C119.306667,3.616 119.546667,3.66666667 119.76,3.768 Z M110.064,3.768 C110.277333,3.86933333 110.384,4.032 110.384,4.256 L110.384,14.656 C110.384,14.8693333 110.277333,15.032 110.064,15.144 C109.850667,15.256 109.610667,15.312 109.344,15.312 C109.088,15.312 108.850667,15.256 108.632,15.144 C108.413333,15.032 108.304,14.8693333 108.304,14.656 L108.304,4.256 C108.304,4.032 108.413333,3.86933333 108.632,3.768 C108.850667,3.66666667 109.088,3.616 109.344,3.616 C109.610667,3.616 109.850667,3.66666667 110.064,3.768 Z M102.336,3.768 C102.549333,3.86933333 102.656,4.032 102.656,4.256 L102.656,13.488 L106.576,13.488 C106.778667,13.488 106.930667,13.5813333 107.032,13.768 C107.133333,13.9546667 107.184,14.1653333 107.184,14.4 C107.184,14.624 107.133333,14.832 107.032,15.024 C106.930667,15.216 106.778667,15.312 106.576,15.312 L101.488,15.312 C101.264,15.312 101.056,15.256 100.864,15.144 C100.672,15.032 100.576,14.8693333 100.576,14.656 L100.576,4.256 C100.576,4.032 100.685333,3.86933333 100.904,3.768 C101.122667,3.66666667 101.36,3.616 101.616,3.616 C101.882667,3.616 102.122667,3.66666667 102.336,3.768 Z M98.32,3.768 C98.5333333,3.86933333 98.64,4.032 98.64,4.256 L98.64,14.656 C98.64,14.8693333 98.5333333,15.032 98.32,15.144 C98.1066667,15.256 97.8666667,15.312 97.6,15.312 C97.3546667,15.312 97.128,15.264 96.92,15.168 C96.712,15.072 96.544,14.9013333 96.416,14.656 L92.96,8.224 L92.96,14.656 C92.96,14.8693333 92.8533333,15.032 92.64,15.144 C92.4266667,15.256 92.1866667,15.312 91.92,15.312 C91.664,15.312 91.4266667,15.256 91.208,15.144 C90.9893333,15.032 90.88,14.8693333 90.88,14.656 L90.88,4.272 C90.88,4.048 90.9893333,3.88266667 91.208,3.776 C91.4266667,3.66933333 91.664,3.616 91.92,3.616 C92.176,3.616 92.3866667,3.64266667 92.552,3.696 C92.7173333,3.74933333 92.872,3.85333333 93.016,4.008 C93.16,4.16266667 93.312,4.4 93.472,4.72 L96.56,10.688 L96.56,4.256 C96.56,4.032 96.6693333,3.86933333 96.888,3.768 C97.1066667,3.66666667 97.344,3.616 97.6,3.616 C97.8666667,3.616 98.1066667,3.66666667 98.32,3.768 Z M57.36,3.768 C57.5733333,3.86933333 57.68,4.032 57.68,4.256 L57.68,14.656 C57.68,14.8693333 57.5733333,15.032 57.36,15.144 C57.1466667,15.256 56.9066667,15.312 56.64,15.312 C56.384,15.312 56.1466667,15.256 55.928,15.144 C55.7093333,15.032 55.6,14.8693333 55.6,14.656 L55.6,4.256 C55.6,4.032 55.7093333,3.86933333 55.928,3.768 C56.1466667,3.66666667 56.384,3.616 56.64,3.616 C56.9066667,3.616 57.1466667,3.66666667 57.36,3.768 Z M35.36,3.848 C35.5733333,4.00266667 35.68,4.272 35.68,4.656 L35.68,14.656 C35.68,14.8693333 35.5706667,15.032 35.352,15.144 C35.1333333,15.256 34.896,15.312 34.64,15.312 C34.384,15.312 34.1466667,15.256 33.928,15.144 C33.7093333,15.032 33.6,14.8693333 33.6,14.656 L33.6,7.776 L31.744,11.104 C31.648,11.2533333 31.536,11.36 31.408,11.424 C31.28,11.488 31.152,11.52 31.024,11.52 C30.9066667,11.52 30.7866667,11.4906667 30.664,11.432 C30.5413333,11.3733333 30.432,11.264 30.336,11.104 L28.496,7.648 L28.496,14.656 C28.496,14.8693333 28.3893333,15.032 28.176,15.144 C27.9626667,15.256 27.7226667,15.312 27.456,15.312 C27.2,15.312 26.9626667,15.256 26.744,15.144 C26.5253333,15.032 26.416,14.8693333 26.416,14.656 L26.416,4.656 C26.416,4.272 26.5253333,4.00266667 26.744,3.848 C26.9626667,3.69333333 27.2,3.616 27.456,3.616 C27.712,3.616 27.928,3.64266667 28.104,3.696 C28.28,3.74933333 28.4453333,3.856 28.6,4.016 C28.7546667,4.176 28.9173333,4.41066667 29.088,4.72 L31.04,8.304 L33.008,4.72 C33.2,4.41066667 33.368,4.176 33.512,4.016 C33.656,3.856 33.8186667,3.74933333 34,3.696 C34.1813333,3.64266667 34.3946667,3.616 34.64,3.616 C34.9066667,3.616 35.1466667,3.69333333 35.36,3.848 Z M62.016,5.888 C61.7173333,6.18666667 61.568,6.65066667 61.568,7.28 L61.568,11.744 C61.568,12.3733333 61.7173333,12.8373333 62.016,13.136 C62.3146667,13.4346667 62.7253333,13.584 63.248,13.584 C63.7706667,13.584 64.1813333,13.4346667 64.48,13.136 C64.7786667,12.8373333 64.928,12.3733333 64.928,11.744 L64.928,7.28 C64.928,6.65066667 64.7786667,6.18666667 64.48,5.888 C64.1813333,5.58933333 63.7706667,5.44 63.248,5.44 C62.7253333,5.44 62.3146667,5.58933333 62.016,5.888 Z M84.096,5.888 C83.7973333,6.18666667 83.648,6.65066667 83.648,7.28 L83.648,11.744 C83.648,12.3733333 83.7973333,12.8373333 84.096,13.136 C84.3946667,13.4346667 84.8053333,13.584 85.328,13.584 C85.8506667,13.584 86.2613333,13.4346667 86.56,13.136 C86.8586667,12.8373333 87.008,12.3733333 87.008,11.744 L87.008,7.28 C87.008,6.65066667 86.8586667,6.18666667 86.56,5.888 C86.2613333,5.58933333 85.8506667,5.44 85.328,5.44 C84.8053333,5.44 84.3946667,5.58933333 84.096,5.888 Z M10.544,5.888 C10.2453333,6.18666667 10.096,6.65066667 10.096,7.28 L10.096,11.744 C10.096,12.3733333 10.2453333,12.8373333 10.544,13.136 C10.8426667,13.4346667 11.2533333,13.584 11.776,13.584 C12.2986667,13.584 12.7093333,13.4346667 13.008,13.136 C13.3066667,12.8373333 13.456,12.3733333 13.456,11.744 L13.456,7.28 C13.456,6.65066667 13.3066667,6.18666667 13.008,5.888 C12.7093333,5.58933333 12.2986667,5.44 11.776,5.44 C11.2533333,5.44 10.8426667,5.58933333 10.544,5.888 Z M39.84,11.136 L42.624,11.136 L41.232,6.224 Z M19.408,5.44 L19.408,8.848 L21.168,8.848 C21.6906667,8.848 22.1066667,8.72 22.416,8.464 C22.7253333,8.208 22.88,7.77066667 22.88,7.152 C22.88,6.512 22.7253333,6.06666667 22.416,5.816 C22.1066667,5.56533333 21.6906667,5.44 21.168,5.44 Z M65.128,0.256 C65.2506667,0.426666667 65.312,0.602666667 65.312,0.784 C65.312,1.008 65.216,1.168 65.024,1.264 L62.944,2.272 C62.9013333,2.28266667 62.864,2.296 62.832,2.312 C62.8,2.328 62.7626667,2.336 62.72,2.336 C62.5493333,2.336 62.4,2.248 62.272,2.072 C62.144,1.896 62.08,1.72266667 62.08,1.552 C62.08,1.31733333 62.1706667,1.152 62.352,1.056 L64.464,0.032 C64.5386667,0.0106666667 64.608,8.8817842e-16 64.672,8.8817842e-16 C64.8533333,8.8817842e-16 65.0053333,0.0853333333 65.128,0.256 Z" id="path-1"></path>
        <path d="M2,16 C1.744,16 1.50666667,15.944 1.288,15.832 C1.06933333,15.72 0.96,15.5573333 0.96,15.344 L0.96,4.96 C0.96,4.74666667 1.056,4.584 1.248,4.472 C1.44,4.36 1.648,4.304 1.872,4.304 L7.456,4.304 C7.69066667,4.304 7.85866667,4.4 7.96,4.592 C8.06133333,4.784 8.112,4.98666667 8.112,5.2 C8.112,5.456 8.056,5.67466667 7.944,5.856 C7.832,6.03733333 7.66933333,6.128 7.456,6.128 L3.04,6.128 L3.04,9.328 L5.488,9.328 C5.70133333,9.328 5.864,9.41066667 5.976,9.576 C6.088,9.74133333 6.144,9.936 6.144,10.16 C6.144,10.3413333 6.09333333,10.52 5.992,10.696 C5.89066667,10.872 5.72266667,10.96 5.488,10.96 L3.04,10.96 L3.04,15.344 C3.04,15.5573333 2.93333333,15.72 2.72,15.832 C2.50666667,15.944 2.26666667,16 2,16 Z" id="path-2"></path>
        <path d="M12.736,16.096 C12.032,16.096 11.3973333,15.976 10.832,15.736 C10.2666667,15.496 9.81866667,15.1066667 9.488,14.568 C9.15733333,14.0293333 8.992,13.3173333 8.992,12.432 L8.992,7.968 C8.992,7.08266667 9.15733333,6.37066667 9.488,5.832 C9.81866667,5.29333333 10.264,4.904 10.824,4.664 C11.384,4.424 12.0213333,4.304 12.736,4.304 C13.44,4.304 14.0773333,4.424 14.648,4.664 C15.2186667,4.904 15.6693333,5.29333333 16,5.832 C16.3306667,6.37066667 16.496,7.08266667 16.496,7.968 L16.496,12.432 C16.496,13.3173333 16.3306667,14.0293333 16,14.568 C15.6693333,15.1066667 15.2186667,15.496 14.648,15.736 C14.0773333,15.976 13.44,16.096 12.736,16.096 Z M12.736,14.272 C13.2586667,14.272 13.6693333,14.1226667 13.968,13.824 C14.2666667,13.5253333 14.416,13.0613333 14.416,12.432 L14.416,7.968 C14.416,7.33866667 14.2666667,6.87466667 13.968,6.576 C13.6693333,6.27733333 13.2586667,6.128 12.736,6.128 C12.2133333,6.128 11.8026667,6.27733333 11.504,6.576 C11.2053333,6.87466667 11.056,7.33866667 11.056,7.968 L11.056,12.432 C11.056,13.0613333 11.2053333,13.5253333 11.504,13.824 C11.8026667,14.1226667 12.2133333,14.272 12.736,14.272 Z" id="path-3"></path>
        <path d="M24.704,16.08 C24.5653333,16.08 24.4293333,16.0373333 24.296,15.952 C24.1626667,15.8666667 24.0586667,15.744 23.984,15.584 L21.712,11.168 L20.368,11.168 L20.368,15.344 C20.368,15.5573333 20.2613333,15.72 20.048,15.832 C19.8346667,15.944 19.5946667,16 19.328,16 C19.072,16 18.8346667,15.944 18.616,15.832 C18.3973333,15.72 18.288,15.5573333 18.288,15.344 L18.288,4.944 C18.288,4.77333333 18.3493333,4.624 18.472,4.496 C18.5946667,4.368 18.7573333,4.304 18.96,4.304 L22.128,4.304 C22.832,4.304 23.4693333,4.40533333 24.04,4.608 C24.6106667,4.81066667 25.0666667,5.15466667 25.408,5.64 C25.7493333,6.12533333 25.92,6.79466667 25.92,7.648 C25.92,8.26666667 25.8293333,8.792 25.648,9.224 C25.4666667,9.656 25.2186667,10.0026667 24.904,10.264 C24.5893333,10.5253333 24.2293333,10.72 23.824,10.848 L25.936,14.736 C25.9573333,14.7786667 25.9733333,14.824 25.984,14.872 C25.9946667,14.92 26,14.96 26,14.992 C26,15.1626667 25.936,15.3333333 25.808,15.504 C25.68,15.6746667 25.5173333,15.8133333 25.32,15.92 C25.1226667,16.0266667 24.9173333,16.08 24.704,16.08 Z M20.368,9.536 L22.128,9.536 C22.6506667,9.536 23.0666667,9.408 23.376,9.152 C23.6853333,8.896 23.84,8.45866667 23.84,7.84 C23.84,7.2 23.6853333,6.75466667 23.376,6.504 C23.0666667,6.25333333 22.6506667,6.128 22.128,6.128 L20.368,6.128 L20.368,9.536 Z" id="path-4"></path>
        <path d="M28.416,16 C28.16,16 27.9226667,15.944 27.704,15.832 C27.4853333,15.72 27.376,15.5573333 27.376,15.344 L27.376,5.344 C27.376,4.96 27.4853333,4.69066667 27.704,4.536 C27.9226667,4.38133333 28.16,4.304 28.416,4.304 C28.672,4.304 28.888,4.33066667 29.064,4.384 C29.24,4.43733333 29.4053333,4.544 29.56,4.704 C29.7146667,4.864 29.8773333,5.09866667 30.048,5.408 L32,8.992 L33.968,5.408 C34.16,5.09866667 34.328,4.864 34.472,4.704 C34.616,4.544 34.7786667,4.43733333 34.96,4.384 C35.1413333,4.33066667 35.3546667,4.304 35.6,4.304 C35.8666667,4.304 36.1066667,4.38133333 36.32,4.536 C36.5333333,4.69066667 36.64,4.96 36.64,5.344 L36.64,15.344 C36.64,15.5573333 36.5306667,15.72 36.312,15.832 C36.0933333,15.944 35.856,16 35.6,16 C35.344,16 35.1066667,15.944 34.888,15.832 C34.6693333,15.72 34.56,15.5573333 34.56,15.344 L34.56,8.464 L32.704,11.792 C32.608,11.9413333 32.496,12.048 32.368,12.112 C32.24,12.176 32.112,12.208 31.984,12.208 C31.8666667,12.208 31.7466667,12.1786667 31.624,12.12 C31.5013333,12.0613333 31.392,11.952 31.296,11.792 L29.456,8.336 L29.456,15.344 C29.456,15.5573333 29.3493333,15.72 29.136,15.832 C28.9226667,15.944 28.6826667,16 28.416,16 Z" id="path-5"></path>
        <path d="M39.056,16 C38.864,16 38.6666667,15.9626667 38.464,15.888 C38.2613333,15.8133333 38.0906667,15.712 37.952,15.584 C37.8133333,15.456 37.744,15.3066667 37.744,15.136 C37.744,15.104 37.7493333,15.0506667 37.76,14.976 L40.848,4.912 C40.9226667,4.67733333 41.0906667,4.50133333 41.352,4.384 C41.6133333,4.26666667 41.8933333,4.208 42.192,4.208 C42.5013333,4.208 42.784,4.26666667 43.04,4.384 C43.296,4.50133333 43.4613333,4.67733333 43.536,4.912 L46.624,14.976 C46.6453333,15.0506667 46.656,15.104 46.656,15.136 C46.656,15.296 46.584,15.4426667 46.44,15.576 C46.296,15.7093333 46.1226667,15.8133333 45.92,15.888 C45.7173333,15.9626667 45.52,16 45.328,16 C45.1573333,16 45.0106667,15.9706667 44.888,15.912 C44.7653333,15.8533333 44.6826667,15.744 44.64,15.584 L44.032,13.456 L40.352,13.456 L39.76,15.584 C39.7173333,15.744 39.632,15.8533333 39.504,15.912 C39.376,15.9706667 39.2266667,16 39.056,16 Z M40.8,11.824 L43.584,11.824 L42.192,6.912 L40.8,11.824 Z" id="path-6"></path>
        <path d="M51.312,16.096 C50.6506667,16.096 50.0373333,15.976 49.472,15.736 C48.9066667,15.496 48.4586667,15.1066667 48.128,14.568 C47.7973333,14.0293333 47.632,13.3173333 47.632,12.432 L47.632,7.968 C47.632,7.08266667 47.7973333,6.37066667 48.128,5.832 C48.4586667,5.29333333 48.9066667,4.904 49.472,4.664 C50.0373333,4.424 50.656,4.304 51.328,4.304 C52.0746667,4.304 52.7333333,4.42933333 53.304,4.68 C53.8746667,4.93066667 54.3226667,5.28 54.648,5.728 C54.9733333,6.176 55.136,6.71466667 55.136,7.344 C55.136,7.76 55.0506667,8.03466667 54.88,8.168 C54.7093333,8.30133333 54.448,8.368 54.096,8.368 C53.808,8.368 53.5653333,8.31733333 53.368,8.216 C53.1706667,8.11466667 53.0666667,7.94666667 53.056,7.712 C53.056,7.584 53.0373333,7.432 53,7.256 C52.9626667,7.08 52.8906667,6.90666667 52.784,6.736 C52.6773333,6.56533333 52.5146667,6.42133333 52.296,6.304 C52.0773333,6.18666667 51.776,6.128 51.392,6.128 C50.848,6.128 50.4293333,6.28 50.136,6.584 C49.8426667,6.888 49.696,7.34933333 49.696,7.968 L49.696,12.432 C49.696,13.0613333 49.8453333,13.5253333 50.144,13.824 C50.4426667,14.1226667 50.8693333,14.272 51.424,14.272 C51.7866667,14.272 52.0746667,14.2133333 52.288,14.096 C52.5013333,13.9786667 52.6586667,13.832 52.76,13.656 C52.8613333,13.48 52.9306667,13.296 52.968,13.104 C53.0053333,12.912 53.0346667,12.7306667 53.056,12.56 C53.0773333,12.3146667 53.184,12.144 53.376,12.048 C53.568,11.952 53.8026667,11.904 54.08,11.904 C54.4426667,11.904 54.7093333,11.9733333 54.88,12.112 C55.0506667,12.2506667 55.136,12.5226667 55.136,12.928 C55.136,13.568 54.9733333,14.128 54.648,14.608 C54.3226667,15.088 53.872,15.456 53.296,15.712 C52.72,15.968 52.0586667,16.096 51.312,16.096 Z" id="path-7"></path>
        <path d="M57.6,16 C57.344,16 57.1066667,15.944 56.888,15.832 C56.6693333,15.72 56.56,15.5573333 56.56,15.344 L56.56,4.944 C56.56,4.72 56.6693333,4.55733333 56.888,4.456 C57.1066667,4.35466667 57.344,4.304 57.6,4.304 C57.8666667,4.304 58.1066667,4.35466667 58.32,4.456 C58.5333333,4.55733333 58.64,4.72 58.64,4.944 L58.64,15.344 C58.64,15.5573333 58.5333333,15.72 58.32,15.832 C58.1066667,15.944 57.8666667,16 57.6,16 Z" id="path-8"></path>
        <path d="M64.208,16.096 C63.504,16.096 62.8693333,15.976 62.304,15.736 C61.7386667,15.496 61.2906667,15.1066667 60.96,14.568 C60.6293333,14.0293333 60.464,13.3173333 60.464,12.432 L60.464,7.968 C60.464,7.08266667 60.6293333,6.37066667 60.96,5.832 C61.2906667,5.29333333 61.736,4.904 62.296,4.664 C62.856,4.424 63.4933333,4.304 64.208,4.304 C64.912,4.304 65.5493333,4.424 66.12,4.664 C66.6906667,4.904 67.1413333,5.29333333 67.472,5.832 C67.8026667,6.37066667 67.968,7.08266667 67.968,7.968 L67.968,12.432 C67.968,13.3173333 67.8026667,14.0293333 67.472,14.568 C67.1413333,15.1066667 66.6906667,15.496 66.12,15.736 C65.5493333,15.976 64.912,16.096 64.208,16.096 Z M64.208,14.272 C64.7306667,14.272 65.1413333,14.1226667 65.44,13.824 C65.7386667,13.5253333 65.888,13.0613333 65.888,12.432 L65.888,7.968 C65.888,7.33866667 65.7386667,6.87466667 65.44,6.576 C65.1413333,6.27733333 64.7306667,6.128 64.208,6.128 C63.6853333,6.128 63.2746667,6.27733333 62.976,6.576 C62.6773333,6.87466667 62.528,7.33866667 62.528,7.968 L62.528,12.432 C62.528,13.0613333 62.6773333,13.5253333 62.976,13.824 C63.2746667,14.1226667 63.6853333,14.272 64.208,14.272 Z M63.68,3.024 C63.5093333,3.024 63.36,2.936 63.232,2.76 C63.104,2.584 63.04,2.41066667 63.04,2.24 C63.04,2.00533333 63.1306667,1.84 63.312,1.744 L65.424,0.72 C65.4986667,0.698666667 65.568,0.688 65.632,0.688 C65.8133333,0.688 65.9653333,0.773333333 66.088,0.944 C66.2106667,1.11466667 66.272,1.29066667 66.272,1.472 C66.272,1.696 66.176,1.856 65.984,1.952 L63.904,2.96 C63.8613333,2.97066667 63.824,2.984 63.792,3 C63.76,3.016 63.7226667,3.024 63.68,3.024 Z" id="path-9"></path>
        <path d="M70.8,16 C70.544,16 70.3066667,15.944 70.088,15.832 C69.8693333,15.72 69.76,15.5573333 69.76,15.344 L69.76,4.96 C69.76,4.736 69.8693333,4.57066667 70.088,4.464 C70.3066667,4.35733333 70.544,4.304 70.8,4.304 C71.056,4.304 71.2666667,4.33066667 71.432,4.384 C71.5973333,4.43733333 71.752,4.54133333 71.896,4.696 C72.04,4.85066667 72.192,5.088 72.352,5.408 L75.44,11.376 L75.44,4.944 C75.44,4.72 75.5493333,4.55733333 75.768,4.456 C75.9866667,4.35466667 76.224,4.304 76.48,4.304 C76.7466667,4.304 76.9866667,4.35466667 77.2,4.456 C77.4133333,4.55733333 77.52,4.72 77.52,4.944 L77.52,15.344 C77.52,15.5573333 77.4133333,15.72 77.2,15.832 C76.9866667,15.944 76.7466667,16 76.48,16 C76.2346667,16 76.008,15.952 75.8,15.856 C75.592,15.76 75.424,15.5893333 75.296,15.344 L71.84,8.912 L71.84,15.344 C71.84,15.5573333 71.7333333,15.72 71.52,15.832 C71.3066667,15.944 71.0666667,16 70.8,16 Z" id="path-10"></path>
        <path d="M86.288,16.096 C85.584,16.096 84.9493333,15.976 84.384,15.736 C83.8186667,15.496 83.3706667,15.1066667 83.04,14.568 C82.7093333,14.0293333 82.544,13.3173333 82.544,12.432 L82.544,7.968 C82.544,7.08266667 82.7093333,6.37066667 83.04,5.832 C83.3706667,5.29333333 83.816,4.904 84.376,4.664 C84.936,4.424 85.5733333,4.304 86.288,4.304 C86.992,4.304 87.6293333,4.424 88.2,4.664 C88.7706667,4.904 89.2213333,5.29333333 89.552,5.832 C89.8826667,6.37066667 90.048,7.08266667 90.048,7.968 L90.048,12.432 C90.048,13.3173333 89.8826667,14.0293333 89.552,14.568 C89.2213333,15.1066667 88.7706667,15.496 88.2,15.736 C87.6293333,15.976 86.992,16.096 86.288,16.096 Z M86.288,14.272 C86.8106667,14.272 87.2213333,14.1226667 87.52,13.824 C87.8186667,13.5253333 87.968,13.0613333 87.968,12.432 L87.968,7.968 C87.968,7.33866667 87.8186667,6.87466667 87.52,6.576 C87.2213333,6.27733333 86.8106667,6.128 86.288,6.128 C85.7653333,6.128 85.3546667,6.27733333 85.056,6.576 C84.7573333,6.87466667 84.608,7.33866667 84.608,7.968 L84.608,12.432 C84.608,13.0613333 84.7573333,13.5253333 85.056,13.824 C85.3546667,14.1226667 85.7653333,14.272 86.288,14.272 Z" id="path-11"></path>
        <path d="M92.88,16 C92.624,16 92.3866667,15.944 92.168,15.832 C91.9493333,15.72 91.84,15.5573333 91.84,15.344 L91.84,4.96 C91.84,4.736 91.9493333,4.57066667 92.168,4.464 C92.3866667,4.35733333 92.624,4.304 92.88,4.304 C93.136,4.304 93.3466667,4.33066667 93.512,4.384 C93.6773333,4.43733333 93.832,4.54133333 93.976,4.696 C94.12,4.85066667 94.272,5.088 94.432,5.408 L97.52,11.376 L97.52,4.944 C97.52,4.72 97.6293333,4.55733333 97.848,4.456 C98.0666667,4.35466667 98.304,4.304 98.56,4.304 C98.8266667,4.304 99.0666667,4.35466667 99.28,4.456 C99.4933333,4.55733333 99.6,4.72 99.6,4.944 L99.6,15.344 C99.6,15.5573333 99.4933333,15.72 99.28,15.832 C99.0666667,15.944 98.8266667,16 98.56,16 C98.3146667,16 98.088,15.952 97.88,15.856 C97.672,15.76 97.504,15.5893333 97.376,15.344 L93.92,8.912 L93.92,15.344 C93.92,15.5573333 93.8133333,15.72 93.6,15.832 C93.3866667,15.944 93.1466667,16 92.88,16 Z" id="path-12"></path>
        <path d="M102.448,16 C102.224,16 102.016,15.944 101.824,15.832 C101.632,15.72 101.536,15.5573333 101.536,15.344 L101.536,4.944 C101.536,4.72 101.645333,4.55733333 101.864,4.456 C102.082667,4.35466667 102.32,4.304 102.576,4.304 C102.842667,4.304 103.082667,4.35466667 103.296,4.456 C103.509333,4.55733333 103.616,4.72 103.616,4.944 L103.616,14.176 L107.536,14.176 C107.738667,14.176 107.890667,14.2693333 107.992,14.456 C108.093333,14.6426667 108.144,14.8533333 108.144,15.088 C108.144,15.312 108.093333,15.52 107.992,15.712 C107.890667,15.904 107.738667,16 107.536,16 L102.448,16 Z" id="path-13"></path>
        <path d="M110.304,16 C110.048,16 109.810667,15.944 109.592,15.832 C109.373333,15.72 109.264,15.5573333 109.264,15.344 L109.264,4.944 C109.264,4.72 109.373333,4.55733333 109.592,4.456 C109.810667,4.35466667 110.048,4.304 110.304,4.304 C110.570667,4.304 110.810667,4.35466667 111.024,4.456 C111.237333,4.55733333 111.344,4.72 111.344,4.944 L111.344,15.344 C111.344,15.5573333 111.237333,15.72 111.024,15.832 C110.810667,15.944 110.570667,16 110.304,16 Z" id="path-14"></path>
        <path d="M114.32,16 C114.064,16 113.826667,15.944 113.608,15.832 C113.389333,15.72 113.28,15.5573333 113.28,15.344 L113.28,4.96 C113.28,4.736 113.389333,4.57066667 113.608,4.464 C113.826667,4.35733333 114.064,4.304 114.32,4.304 C114.576,4.304 114.786667,4.33066667 114.952,4.384 C115.117333,4.43733333 115.272,4.54133333 115.416,4.696 C115.56,4.85066667 115.712,5.088 115.872,5.408 L118.96,11.376 L118.96,4.944 C118.96,4.72 119.069333,4.55733333 119.288,4.456 C119.506667,4.35466667 119.744,4.304 120,4.304 C120.266667,4.304 120.506667,4.35466667 120.72,4.456 C120.933333,4.55733333 121.04,4.72 121.04,4.944 L121.04,15.344 C121.04,15.5573333 120.933333,15.72 120.72,15.832 C120.506667,15.944 120.266667,16 120,16 C119.754667,16 119.528,15.952 119.32,15.856 C119.112,15.76 118.944,15.5893333 118.816,15.344 L115.36,8.912 L115.36,15.344 C115.36,15.5573333 115.253333,15.72 115.04,15.832 C114.826667,15.944 114.586667,16 114.32,16 Z" id="path-15"></path>
        <path d="M123.888,16 C123.664,16 123.456,15.944 123.264,15.832 C123.072,15.72 122.976,15.5573333 122.976,15.344 L122.976,4.96 C122.976,4.74666667 123.072,4.584 123.264,4.472 C123.456,4.36 123.664,4.304 123.888,4.304 L129.584,4.304 C129.818667,4.304 129.986667,4.4 130.088,4.592 C130.189333,4.784 130.24,4.98666667 130.24,5.2 C130.24,5.456 130.184,5.67466667 130.072,5.856 C129.96,6.03733333 129.797333,6.128 129.584,6.128 L125.056,6.128 L125.056,9.328 L127.488,9.328 C127.701333,9.328 127.864,9.41066667 127.976,9.576 C128.088,9.74133333 128.144,9.936 128.144,10.16 C128.144,10.3413333 128.093333,10.52 127.992,10.696 C127.890667,10.872 127.722667,10.96 127.488,10.96 L125.056,10.96 L125.056,14.176 L129.584,14.176 C129.797333,14.176 129.96,14.2666667 130.072,14.448 C130.184,14.6293333 130.24,14.848 130.24,15.104 C130.24,15.3173333 130.189333,15.52 130.088,15.712 C129.986667,15.904 129.818667,16 129.584,16 L123.888,16 Z" id="path-16"></path>
    </defs>
    <g id="Heading-6" stroke="none" fill="none" fill-rule="nonzero" xlink:href="#path-1" stroke-width="1">
        <g id="FORMACIÓN-ONLINE" fill-rule="evenodd" transform="translate(-0.96, -0.688)" fill="#232A34">
            <g id="Trazado" fill-rule="nonzero">
                <use xlink:href="#path-2"></use>
                <use xlink:href="#path-2"></use>
            </g>
            <g id="Forma" fill-rule="nonzero">
                <use xlink:href="#path-3"></use>
                <use xlink:href="#path-3"></use>
            </g>
            <g id="Forma" fill-rule="nonzero">
                <use xlink:href="#path-4"></use>
                <use xlink:href="#path-4"></use>
            </g>
            <g id="Trazado" fill-rule="nonzero">
                <use xlink:href="#path-5"></use>
                <use xlink:href="#path-5"></use>
            </g>
            <g id="Forma" fill-rule="nonzero">
                <use xlink:href="#path-6"></use>
                <use xlink:href="#path-6"></use>
            </g>
            <g id="Trazado" fill-rule="nonzero">
                <use xlink:href="#path-7"></use>
                <use xlink:href="#path-7"></use>
            </g>
            <g id="Trazado" fill-rule="nonzero">
                <use xlink:href="#path-8"></use>
                <use xlink:href="#path-8"></use>
            </g>
            <g id="Forma" fill-rule="nonzero">
                <use xlink:href="#path-9"></use>
                <use xlink:href="#path-9"></use>
            </g>
            <g id="Trazado" fill-rule="nonzero">
                <use xlink:href="#path-10"></use>
                <use xlink:href="#path-10"></use>
            </g>
            <g id="Forma" fill-rule="nonzero">
                <use xlink:href="#path-11"></use>
                <use xlink:href="#path-11"></use>
            </g>
            <g id="Trazado" fill-rule="nonzero">
                <use xlink:href="#path-12"></use>
                <use xlink:href="#path-12"></use>
            </g>
            <g id="Trazado" fill-rule="nonzero">
                <use xlink:href="#path-13"></use>
                <use xlink:href="#path-13"></use>
            </g>
            <g id="Trazado" fill-rule="nonzero">
                <use xlink:href="#path-14"></use>
                <use xlink:href="#path-14"></use>
            </g>
            <g id="Trazado" fill-rule="nonzero">
                <use xlink:href="#path-15"></use>
                <use xlink:href="#path-15"></use>
            </g>
            <g id="Trazado" fill-rule="nonzero">
                <use xlink:href="#path-16"></use>
                <use xlink:href="#path-16"></use>
            </g>
        </g>
    </g>
</svg>