<?xml version="1.0" encoding="UTF-8"?>
<svg width="148px" height="16px" viewBox="0 0 148 16" version="1.1" xmlns="http://www.w3.org/2000/svg" xmlns:xlink="http://www.w3.org/1999/xlink">
    <title>Heading 6</title>
    <defs>
        <path d="M64.344,3.416 C64.68,3.45333333 65.016,3.52 65.352,3.616 C65.688,3.712 65.9653333,3.84266667 66.184,4.008 C66.4026667,4.17333333 66.512,4.384 66.512,4.64 C66.512,4.768 66.4826667,4.91733333 66.424,5.088 C66.3653333,5.25866667 66.2746667,5.41066667 66.152,5.544 C66.0293333,5.67733333 65.872,5.744 65.68,5.744 C65.5093333,5.744 65.3413333,5.69333333 65.176,5.592 C65.0106667,5.49066667 64.7973333,5.38933333 64.536,5.288 C64.2746667,5.18666667 63.92,5.136 63.472,5.136 C63.0986667,5.136 62.7733333,5.18666667 62.496,5.288 C62.2186667,5.38933333 62.0106667,5.528 61.872,5.704 C61.7333333,5.88 61.664,6.10133333 61.664,6.368 C61.664,6.64533333 61.7573333,6.88 61.944,7.072 C62.1306667,7.264 62.376,7.43466667 62.68,7.584 C62.984,7.73333333 63.3173333,7.88266667 63.68,8.032 C64.0426667,8.18133333 64.408,8.35466667 64.776,8.552 C65.144,8.74933333 65.4826667,8.98666667 65.792,9.264 C66.1013333,9.54133333 66.3466667,9.88533333 66.528,10.296 C66.7093333,10.7066667 66.8,11.2106667 66.8,11.808 C66.8,12.5653333 66.6346667,13.2026667 66.304,13.72 C65.9733333,14.2373333 65.5226667,14.6266667 64.952,14.888 C64.3813333,15.1493333 63.728,15.28 62.992,15.28 C62.2986667,15.28 61.672,15.1786667 61.112,14.976 C60.552,14.7733333 60.1093333,14.52 59.784,14.216 C59.4586667,13.912 59.296,13.6053333 59.296,13.296 C59.296,13.1466667 59.336,12.984 59.416,12.808 C59.496,12.632 59.6053333,12.4826667 59.744,12.36 C59.8826667,12.2373333 60.0373333,12.176 60.208,12.176 C60.3786667,12.176 60.5386667,12.2373333 60.688,12.36 C60.8373333,12.4826667 61.008,12.6266667 61.2,12.792 C61.392,12.9573333 61.6266667,13.1013333 61.904,13.224 C62.1813333,13.3466667 62.5226667,13.408 62.928,13.408 C63.248,13.408 63.544,13.3573333 63.816,13.256 C64.088,13.1546667 64.3066667,13.0026667 64.472,12.8 C64.6373333,12.5973333 64.72,12.336 64.72,12.016 C64.72,11.6746667 64.6293333,11.3866667 64.448,11.152 C64.2666667,10.9173333 64.0213333,10.7146667 63.712,10.544 C63.4026667,10.3733333 63.0666667,10.208 62.704,10.048 C62.3413333,9.888 61.976,9.71733333 61.608,9.536 C61.24,9.35466667 60.904,9.136 60.6,8.88 C60.296,8.624 60.0506667,8.30933333 59.864,7.936 C59.6773333,7.56266667 59.584,7.104 59.584,6.56 C59.584,5.96266667 59.6986667,5.46133333 59.928,5.056 C60.1573333,4.65066667 60.4613333,4.32266667 60.84,4.072 C61.2186667,3.82133333 61.6373333,3.64 62.096,3.528 C62.5546667,3.416 63.0133333,3.36 63.472,3.36 C63.7173333,3.36 64.008,3.37866667 64.344,3.416 Z M127.192,3.592 C127.410667,3.69333333 127.52,3.856 127.52,4.08 L127.52,11.568 C127.52,12.4533333 127.349333,13.1653333 127.008,13.704 C126.666667,14.2426667 126.205333,14.632 125.624,14.872 C125.042667,15.112 124.394667,15.232 123.68,15.232 C122.954667,15.232 122.304,15.112 121.728,14.872 C121.152,14.632 120.693333,14.2426667 120.352,13.704 C120.010667,13.1653333 119.84,12.4533333 119.84,11.568 L119.84,4.08 C119.84,3.856 119.946667,3.69333333 120.16,3.592 C120.373333,3.49066667 120.613333,3.44 120.88,3.44 C121.136,3.44 121.373333,3.49066667 121.592,3.592 C121.810667,3.69333333 121.92,3.856 121.92,4.08 L121.92,11.568 C121.92,12.1866667 122.074667,12.648 122.384,12.952 C122.693333,13.256 123.125333,13.408 123.68,13.408 C124.224,13.408 124.653333,13.256 124.968,12.952 C125.282667,12.648 125.44,12.1866667 125.44,11.568 L125.44,4.08 C125.44,3.856 125.544,3.69333333 125.752,3.592 C125.96,3.49066667 126.202667,3.44 126.48,3.44 C126.736,3.44 126.973333,3.49066667 127.192,3.592 Z M107.16,3.8 C107.730667,4.04 108.181333,4.42933333 108.512,4.968 C108.842667,5.50666667 109.008,6.21866667 109.008,7.104 L109.008,11.568 C109.008,12.4533333 108.842667,13.1653333 108.512,13.704 C108.181333,14.2426667 107.730667,14.632 107.16,14.872 C106.589333,15.112 105.952,15.232 105.248,15.232 C104.544,15.232 103.909333,15.112 103.344,14.872 C102.778667,14.632 102.330667,14.2426667 102,13.704 C101.669333,13.1653333 101.504,12.4533333 101.504,11.568 L101.504,7.104 C101.504,6.21866667 101.669333,5.50666667 102,4.968 C102.330667,4.42933333 102.776,4.04 103.336,3.8 C103.896,3.56 104.533333,3.44 105.248,3.44 C105.952,3.44 106.589333,3.56 107.16,3.8 Z M98.36,3.816 C98.9306667,4.06666667 99.3786667,4.416 99.704,4.864 C100.029333,5.312 100.192,5.85066667 100.192,6.48 C100.192,6.896 100.106667,7.17066667 99.936,7.304 C99.7653333,7.43733333 99.504,7.504 99.152,7.504 C98.864,7.504 98.6213333,7.45333333 98.424,7.352 C98.2266667,7.25066667 98.1226667,7.08266667 98.112,6.848 C98.112,6.72 98.0933333,6.568 98.056,6.392 C98.0186667,6.216 97.9466667,6.04266667 97.84,5.872 C97.7333333,5.70133333 97.5706667,5.55733333 97.352,5.44 C97.1333333,5.32266667 96.832,5.264 96.448,5.264 C95.904,5.264 95.4853333,5.416 95.192,5.72 C94.8986667,6.024 94.752,6.48533333 94.752,7.104 L94.752,11.568 C94.752,12.1973333 94.9013333,12.6613333 95.2,12.96 C95.4986667,13.2586667 95.9253333,13.408 96.48,13.408 C96.8426667,13.408 97.1306667,13.3493333 97.344,13.232 C97.5573333,13.1146667 97.7146667,12.968 97.816,12.792 C97.9173333,12.616 97.9866667,12.432 98.024,12.24 C98.0613333,12.048 98.0906667,11.8666667 98.112,11.696 C98.1333333,11.4506667 98.24,11.28 98.432,11.184 C98.624,11.088 98.8586667,11.04 99.136,11.04 C99.4986667,11.04 99.7653333,11.1093333 99.936,11.248 C100.106667,11.3866667 100.192,11.6586667 100.192,12.064 C100.192,12.704 100.029333,13.264 99.704,13.744 C99.3786667,14.224 98.928,14.592 98.352,14.848 C97.776,15.104 97.1146667,15.232 96.368,15.232 C95.7066667,15.232 95.0933333,15.112 94.528,14.872 C93.9626667,14.632 93.5146667,14.2426667 93.184,13.704 C92.8533333,13.1653333 92.688,12.4533333 92.688,11.568 L92.688,7.104 C92.688,6.21866667 92.8533333,5.50666667 93.184,4.968 C93.5146667,4.42933333 93.9626667,4.04 94.528,3.8 C95.0933333,3.56 95.712,3.44 96.384,3.44 C97.1306667,3.44 97.7893333,3.56533333 98.36,3.816 Z M48.056,3.744 C48.6266667,3.94666667 49.0826667,4.29066667 49.424,4.776 C49.7653333,5.26133333 49.936,5.93066667 49.936,6.784 C49.936,7.40266667 49.8453333,7.928 49.664,8.36 C49.4826667,8.792 49.2346667,9.13866667 48.92,9.4 C48.6053333,9.66133333 48.2453333,9.856 47.84,9.984 L49.952,13.872 C49.9733333,13.9146667 49.9893333,13.96 50,14.008 C50.0106667,14.056 50.016,14.096 50.016,14.128 C50.016,14.2986667 49.952,14.4693333 49.824,14.64 C49.696,14.8106667 49.5333333,14.9493333 49.336,15.056 C49.1386667,15.1626667 48.9333333,15.216 48.72,15.216 C48.5813333,15.216 48.4453333,15.1733333 48.312,15.088 C48.1786667,15.0026667 48.0746667,14.88 48,14.72 L45.728,10.304 L44.384,10.304 L44.384,14.48 C44.384,14.6933333 44.2773333,14.856 44.064,14.968 C43.8506667,15.08 43.6106667,15.136 43.344,15.136 C43.088,15.136 42.8506667,15.08 42.632,14.968 C42.4133333,14.856 42.304,14.6933333 42.304,14.48 L42.304,4.08 C42.304,3.90933333 42.3653333,3.76 42.488,3.632 C42.6106667,3.504 42.7733333,3.44 42.976,3.44 L46.144,3.44 C46.848,3.44 47.4853333,3.54133333 48.056,3.744 Z M116.552,3.744 C117.122667,3.94666667 117.578667,4.29066667 117.92,4.776 C118.261333,5.26133333 118.432,5.93066667 118.432,6.784 C118.432,7.40266667 118.341333,7.928 118.16,8.36 C117.978667,8.792 117.730667,9.13866667 117.416,9.4 C117.101333,9.66133333 116.741333,9.856 116.336,9.984 L118.448,13.872 C118.469333,13.9146667 118.485333,13.96 118.496,14.008 C118.506667,14.056 118.512,14.096 118.512,14.128 C118.512,14.2986667 118.448,14.4693333 118.32,14.64 C118.192,14.8106667 118.029333,14.9493333 117.832,15.056 C117.634667,15.1626667 117.429333,15.216 117.216,15.216 C117.077333,15.216 116.941333,15.1733333 116.808,15.088 C116.674667,15.0026667 116.570667,14.88 116.496,14.72 L114.224,10.304 L112.88,10.304 L112.88,14.48 C112.88,14.6933333 112.773333,14.856 112.56,14.968 C112.346667,15.08 112.106667,15.136 111.84,15.136 C111.584,15.136 111.346667,15.08 111.128,14.968 C110.909333,14.856 110.8,14.6933333 110.8,14.48 L110.8,4.08 C110.8,3.90933333 110.861333,3.76 110.984,3.632 C111.106667,3.504 111.269333,3.44 111.472,3.44 L114.64,3.44 C115.344,3.44 115.981333,3.54133333 116.552,3.744 Z M7.928,3.736 C8.02933333,3.93333333 8.08,4.144 8.08,4.368 C8.08,4.61333333 8.024,4.832 7.912,5.024 C7.8,5.216 7.63733333,5.312 7.424,5.312 L5.088,5.312 L5.088,14.48 C5.088,14.6933333 4.97866667,14.856 4.76,14.968 C4.54133333,15.08 4.304,15.136 4.048,15.136 C3.78133333,15.136 3.54133333,15.08 3.328,14.968 C3.11466667,14.856 3.008,14.6933333 3.008,14.48 L3.008,5.312 L0.656,5.312 C0.453333333,5.312 0.293333333,5.216 0.176,5.024 C0.0586666667,4.832 -5.32907052e-15,4.61333333 -5.32907052e-15,4.368 C-5.32907052e-15,4.144 0.0533333333,3.93333333 0.16,3.736 C0.266666667,3.53866667 0.432,3.44 0.656,3.44 L7.424,3.44 C7.65866667,3.44 7.82666667,3.53866667 7.928,3.736 Z M13.664,3.52 C13.92,3.63733333 14.0853333,3.81333333 14.16,4.048 L17.248,14.112 C17.2693333,14.1866667 17.28,14.24 17.28,14.272 C17.28,14.432 17.208,14.5786667 17.064,14.712 C16.92,14.8453333 16.7466667,14.9493333 16.544,15.024 C16.3413333,15.0986667 16.144,15.136 15.952,15.136 C15.7813333,15.136 15.6346667,15.1066667 15.512,15.048 C15.3893333,14.9893333 15.3066667,14.88 15.264,14.72 L14.656,12.592 L10.976,12.592 L10.384,14.72 C10.3413333,14.88 10.256,14.9893333 10.128,15.048 C10,15.1066667 9.85066667,15.136 9.68,15.136 C9.488,15.136 9.29066667,15.0986667 9.088,15.024 C8.88533333,14.9493333 8.71466667,14.848 8.576,14.72 C8.43733333,14.592 8.368,14.4426667 8.368,14.272 C8.368,14.24 8.37333333,14.1866667 8.384,14.112 L11.472,4.048 C11.5466667,3.81333333 11.7146667,3.63733333 11.976,3.52 C12.2373333,3.40266667 12.5173333,3.344 12.816,3.344 C13.1253333,3.344 13.408,3.40266667 13.664,3.52 Z M143.568,3.52 C143.824,3.63733333 143.989333,3.81333333 144.064,4.048 L147.152,14.112 C147.173333,14.1866667 147.184,14.24 147.184,14.272 C147.184,14.432 147.112,14.5786667 146.968,14.712 C146.824,14.8453333 146.650667,14.9493333 146.448,15.024 C146.245333,15.0986667 146.048,15.136 145.856,15.136 C145.685333,15.136 145.538667,15.1066667 145.416,15.048 C145.293333,14.9893333 145.210667,14.88 145.168,14.72 L144.56,12.592 L140.88,12.592 L140.288,14.72 C140.245333,14.88 140.16,14.9893333 140.032,15.048 C139.904,15.1066667 139.754667,15.136 139.584,15.136 C139.392,15.136 139.194667,15.0986667 138.992,15.024 C138.789333,14.9493333 138.618667,14.848 138.48,14.72 C138.341333,14.592 138.272,14.4426667 138.272,14.272 C138.272,14.24 138.277333,14.1866667 138.288,14.112 L141.376,4.048 C141.450667,3.81333333 141.618667,3.63733333 141.88,3.52 C142.141333,3.40266667 142.421333,3.344 142.72,3.344 C143.029333,3.344 143.312,3.40266667 143.568,3.52 Z M58.504,3.728 C58.6053333,3.92 58.656,4.12266667 58.656,4.336 C58.656,4.592 58.6,4.81066667 58.488,4.992 C58.376,5.17333333 58.2133333,5.264 58,5.264 L53.472,5.264 L53.472,8.464 L55.904,8.464 C56.1173333,8.464 56.28,8.54666667 56.392,8.712 C56.504,8.87733333 56.56,9.072 56.56,9.296 C56.56,9.47733333 56.5093333,9.656 56.408,9.832 C56.3066667,10.008 56.1386667,10.096 55.904,10.096 L53.472,10.096 L53.472,13.312 L58,13.312 C58.2133333,13.312 58.376,13.4026667 58.488,13.584 C58.6,13.7653333 58.656,13.984 58.656,14.24 C58.656,14.4533333 58.6053333,14.656 58.504,14.848 C58.4026667,15.04 58.2346667,15.136 58,15.136 L52.304,15.136 C52.08,15.136 51.872,15.08 51.68,14.968 C51.488,14.856 51.392,14.6933333 51.392,14.48 L51.392,4.096 C51.392,3.88266667 51.488,3.72 51.68,3.608 C51.872,3.496 52.08,3.44 52.304,3.44 L58,3.44 C58.2346667,3.44 58.4026667,3.536 58.504,3.728 Z M40.936,3.728 C41.0373333,3.92 41.088,4.12266667 41.088,4.336 C41.088,4.592 41.032,4.81066667 40.92,4.992 C40.808,5.17333333 40.6453333,5.264 40.432,5.264 L35.904,5.264 L35.904,8.464 L38.336,8.464 C38.5493333,8.464 38.712,8.54666667 38.824,8.712 C38.936,8.87733333 38.992,9.072 38.992,9.296 C38.992,9.47733333 38.9413333,9.656 38.84,9.832 C38.7386667,10.008 38.5706667,10.096 38.336,10.096 L35.904,10.096 L35.904,13.312 L40.432,13.312 C40.6453333,13.312 40.808,13.4026667 40.92,13.584 C41.032,13.7653333 41.088,13.984 41.088,14.24 C41.088,14.4533333 41.0373333,14.656 40.936,14.848 C40.8346667,15.04 40.6666667,15.136 40.432,15.136 L34.736,15.136 C34.512,15.136 34.304,15.08 34.112,14.968 C33.92,14.856 33.824,14.6933333 33.824,14.48 L33.824,4.096 C33.824,3.88266667 33.92,3.72 34.112,3.608 C34.304,3.496 34.512,3.44 34.736,3.44 L40.432,3.44 C40.6666667,3.44 40.8346667,3.536 40.936,3.728 Z M136.832,3.592 C137.045333,3.69333333 137.152,3.856 137.152,4.08 L137.152,14.48 C137.152,14.6933333 137.045333,14.856 136.832,14.968 C136.618667,15.08 136.378667,15.136 136.112,15.136 C135.866667,15.136 135.64,15.088 135.432,14.992 C135.224,14.896 135.056,14.7253333 134.928,14.48 L131.472,8.048 L131.472,14.48 C131.472,14.6933333 131.365333,14.856 131.152,14.968 C130.938667,15.08 130.698667,15.136 130.432,15.136 C130.176,15.136 129.938667,15.08 129.72,14.968 C129.501333,14.856 129.392,14.6933333 129.392,14.48 L129.392,4.096 C129.392,3.872 129.501333,3.70666667 129.72,3.6 C129.938667,3.49333333 130.176,3.44 130.432,3.44 C130.688,3.44 130.898667,3.46666667 131.064,3.52 C131.229333,3.57333333 131.384,3.67733333 131.528,3.832 C131.672,3.98666667 131.824,4.224 131.984,4.544 L135.072,10.512 L135.072,4.08 C135.072,3.856 135.181333,3.69333333 135.4,3.592 C135.618667,3.49066667 135.856,3.44 136.112,3.44 C136.378667,3.44 136.618667,3.49066667 136.832,3.592 Z M78.536,3.728 C78.6373333,3.92 78.688,4.12266667 78.688,4.336 C78.688,4.592 78.632,4.81066667 78.52,4.992 C78.408,5.17333333 78.2453333,5.264 78.032,5.264 L73.504,5.264 L73.504,8.464 L75.936,8.464 C76.1493333,8.464 76.312,8.54666667 76.424,8.712 C76.536,8.87733333 76.592,9.072 76.592,9.296 C76.592,9.47733333 76.5413333,9.656 76.44,9.832 C76.3386667,10.008 76.1706667,10.096 75.936,10.096 L73.504,10.096 L73.504,13.312 L78.032,13.312 C78.2453333,13.312 78.408,13.4026667 78.52,13.584 C78.632,13.7653333 78.688,13.984 78.688,14.24 C78.688,14.4533333 78.6373333,14.656 78.536,14.848 C78.4346667,15.04 78.2666667,15.136 78.032,15.136 L72.336,15.136 C72.112,15.136 71.904,15.08 71.712,14.968 C71.52,14.856 71.424,14.6933333 71.424,14.48 L71.424,4.096 C71.424,3.88266667 71.52,3.72 71.712,3.608 C71.904,3.496 72.112,3.44 72.336,3.44 L78.032,3.44 C78.2666667,3.44 78.4346667,3.536 78.536,3.728 Z M87.344,3.592 C87.5573333,3.69333333 87.664,3.856 87.664,4.08 L87.664,14.48 C87.664,14.6933333 87.5573333,14.856 87.344,14.968 C87.1306667,15.08 86.8906667,15.136 86.624,15.136 C86.3786667,15.136 86.152,15.088 85.944,14.992 C85.736,14.896 85.568,14.7253333 85.44,14.48 L81.984,8.048 L81.984,14.48 C81.984,14.6933333 81.8773333,14.856 81.664,14.968 C81.4506667,15.08 81.2106667,15.136 80.944,15.136 C80.688,15.136 80.4506667,15.08 80.232,14.968 C80.0133333,14.856 79.904,14.6933333 79.904,14.48 L79.904,4.096 C79.904,3.872 80.0133333,3.70666667 80.232,3.6 C80.4506667,3.49333333 80.688,3.44 80.944,3.44 C81.2,3.44 81.4106667,3.46666667 81.576,3.52 C81.7413333,3.57333333 81.896,3.67733333 82.04,3.832 C82.184,3.98666667 82.336,4.224 82.496,4.544 L85.584,10.512 L85.584,4.08 C85.584,3.856 85.6933333,3.69333333 85.912,3.592 C86.1306667,3.49066667 86.368,3.44 86.624,3.44 C86.8906667,3.44 87.1306667,3.49066667 87.344,3.592 Z M27.856,3.592 C28.0693333,3.69333333 28.176,3.856 28.176,4.08 L28.176,13.312 L32.096,13.312 C32.2986667,13.312 32.4506667,13.4053333 32.552,13.592 C32.6533333,13.7786667 32.704,13.9893333 32.704,14.224 C32.704,14.448 32.6533333,14.656 32.552,14.848 C32.4506667,15.04 32.2986667,15.136 32.096,15.136 L27.008,15.136 C26.784,15.136 26.576,15.08 26.384,14.968 C26.192,14.856 26.096,14.6933333 26.096,14.48 L26.096,4.08 C26.096,3.856 26.2053333,3.69333333 26.424,3.592 C26.6426667,3.49066667 26.88,3.44 27.136,3.44 C27.4026667,3.44 27.6426667,3.49066667 27.856,3.592 Z M20.128,3.592 C20.3413333,3.69333333 20.448,3.856 20.448,4.08 L20.448,13.312 L24.368,13.312 C24.5706667,13.312 24.7226667,13.4053333 24.824,13.592 C24.9253333,13.7786667 24.976,13.9893333 24.976,14.224 C24.976,14.448 24.9253333,14.656 24.824,14.848 C24.7226667,15.04 24.5706667,15.136 24.368,15.136 L19.28,15.136 C19.056,15.136 18.848,15.08 18.656,14.968 C18.464,14.856 18.368,14.6933333 18.368,14.48 L18.368,4.08 C18.368,3.856 18.4773333,3.69333333 18.696,3.592 C18.9146667,3.49066667 19.152,3.44 19.408,3.44 C19.6746667,3.44 19.9146667,3.49066667 20.128,3.592 Z M104.016,5.712 C103.717333,6.01066667 103.568,6.47466667 103.568,7.104 L103.568,11.568 C103.568,12.1973333 103.717333,12.6613333 104.016,12.96 C104.314667,13.2586667 104.725333,13.408 105.248,13.408 C105.770667,13.408 106.181333,13.2586667 106.48,12.96 C106.778667,12.6613333 106.928,12.1973333 106.928,11.568 L106.928,7.104 C106.928,6.47466667 106.778667,6.01066667 106.48,5.712 C106.181333,5.41333333 105.770667,5.264 105.248,5.264 C104.725333,5.264 104.314667,5.41333333 104.016,5.712 Z M11.424,10.96 L14.208,10.96 L12.816,6.048 Z M141.328,10.96 L144.112,10.96 L142.72,6.048 Z M112.88,5.264 L112.88,8.672 L114.64,8.672 C115.162667,8.672 115.578667,8.544 115.888,8.288 C116.197333,8.032 116.352,7.59466667 116.352,6.976 C116.352,6.336 116.197333,5.89066667 115.888,5.64 C115.578667,5.38933333 115.162667,5.264 114.64,5.264 Z M44.384,5.264 L44.384,8.672 L46.144,8.672 C46.6666667,8.672 47.0826667,8.544 47.392,8.288 C47.7013333,8.032 47.856,7.59466667 47.856,6.976 C47.856,6.336 47.7013333,5.89066667 47.392,5.64 C47.0826667,5.38933333 46.6666667,5.264 46.144,5.264 Z M132.736,0.112 C132.96,0.186666667 133.186667,0.264 133.416,0.344 C133.645333,0.424 133.904,0.464 134.192,0.464 C134.416,0.464 134.602667,0.432 134.752,0.368 C134.901333,0.304 135.034667,0.24 135.152,0.176 C135.269333,0.112 135.381333,0.08 135.488,0.08 C135.637333,0.08 135.746667,0.125333333 135.816,0.216 C135.885333,0.306666667 135.936,0.405333333 135.968,0.512 C136,0.618666667 136.016,0.698666667 136.016,0.752 C136.016,1.008 135.962667,1.20533333 135.856,1.344 C135.749333,1.48266667 135.621333,1.58933333 135.472,1.664 C135.322667,1.73866667 135.170667,1.78666667 135.016,1.808 C134.861333,1.82933333 134.741333,1.84 134.656,1.84 C134.314667,1.84 134.021333,1.8 133.776,1.72 C133.530667,1.64 133.304,1.56266667 133.096,1.488 C132.888,1.41333333 132.650667,1.376 132.384,1.376 C132.16,1.376 131.970667,1.408 131.816,1.472 C131.661333,1.536 131.525333,1.6 131.408,1.664 C131.290667,1.728 131.178667,1.76 131.072,1.76 C130.933333,1.76 130.826667,1.71733333 130.752,1.632 C130.677333,1.54666667 130.624,1.448 130.592,1.336 C130.56,1.224 130.544,1.14133333 130.544,1.088 C130.544,0.842666667 130.597333,0.648 130.704,0.504 C130.810667,0.36 130.941333,0.250666667 131.096,0.176 C131.250667,0.101333333 131.405333,0.0533333333 131.56,0.032 C131.714667,0.0106666667 131.834667,-1.77635684e-15 131.92,-1.77635684e-15 C132.24,-1.77635684e-15 132.512,0.0373333333 132.736,0.112 Z" id="path-1"></path>
        <path d="M4.192,21 C3.92533333,21 3.68533333,20.944 3.472,20.832 C3.25866667,20.72 3.152,20.5573333 3.152,20.344 L3.152,11.176 L0.8,11.176 C0.597333333,11.176 0.437333333,11.08 0.32,10.888 C0.202666667,10.696 0.144,10.4773333 0.144,10.232 C0.144,10.008 0.197333333,9.79733333 0.304,9.6 C0.410666667,9.40266667 0.576,9.304 0.8,9.304 L7.568,9.304 C7.80266667,9.304 7.97066667,9.40266667 8.072,9.6 C8.17333333,9.79733333 8.224,10.008 8.224,10.232 C8.224,10.4773333 8.168,10.696 8.056,10.888 C7.944,11.08 7.78133333,11.176 7.568,11.176 L5.232,11.176 L5.232,20.344 C5.232,20.5573333 5.12266667,20.72 4.904,20.832 C4.68533333,20.944 4.448,21 4.192,21 Z" id="path-2"></path>
        <path d="M9.824,21 C9.632,21 9.43466667,20.9626667 9.232,20.888 C9.02933333,20.8133333 8.85866667,20.712 8.72,20.584 C8.58133333,20.456 8.512,20.3066667 8.512,20.136 C8.512,20.104 8.51733333,20.0506667 8.528,19.976 L11.616,9.912 C11.6906667,9.67733333 11.8586667,9.50133333 12.12,9.384 C12.3813333,9.26666667 12.6613333,9.208 12.96,9.208 C13.2693333,9.208 13.552,9.26666667 13.808,9.384 C14.064,9.50133333 14.2293333,9.67733333 14.304,9.912 L17.392,19.976 C17.4133333,20.0506667 17.424,20.104 17.424,20.136 C17.424,20.296 17.352,20.4426667 17.208,20.576 C17.064,20.7093333 16.8906667,20.8133333 16.688,20.888 C16.4853333,20.9626667 16.288,21 16.096,21 C15.9253333,21 15.7786667,20.9706667 15.656,20.912 C15.5333333,20.8533333 15.4506667,20.744 15.408,20.584 L14.8,18.456 L11.12,18.456 L10.528,20.584 C10.4853333,20.744 10.4,20.8533333 10.272,20.912 C10.144,20.9706667 9.99466667,21 9.824,21 Z M11.568,16.824 L14.352,16.824 L12.96,11.912 L11.568,16.824 Z" id="path-3"></path>
        <path d="M19.424,21 C19.2,21 18.992,20.944 18.8,20.832 C18.608,20.72 18.512,20.5573333 18.512,20.344 L18.512,9.944 C18.512,9.72 18.6213333,9.55733333 18.84,9.456 C19.0586667,9.35466667 19.296,9.304 19.552,9.304 C19.8186667,9.304 20.0586667,9.35466667 20.272,9.456 C20.4853333,9.55733333 20.592,9.72 20.592,9.944 L20.592,19.176 L24.512,19.176 C24.7146667,19.176 24.8666667,19.2693333 24.968,19.456 C25.0693333,19.6426667 25.12,19.8533333 25.12,20.088 C25.12,20.312 25.0693333,20.52 24.968,20.712 C24.8666667,20.904 24.7146667,21 24.512,21 L19.424,21 Z" id="path-4"></path>
        <path d="M27.152,21 C26.928,21 26.72,20.944 26.528,20.832 C26.336,20.72 26.24,20.5573333 26.24,20.344 L26.24,9.944 C26.24,9.72 26.3493333,9.55733333 26.568,9.456 C26.7866667,9.35466667 27.024,9.304 27.28,9.304 C27.5466667,9.304 27.7866667,9.35466667 28,9.456 C28.2133333,9.55733333 28.32,9.72 28.32,9.944 L28.32,19.176 L32.24,19.176 C32.4426667,19.176 32.5946667,19.2693333 32.696,19.456 C32.7973333,19.6426667 32.848,19.8533333 32.848,20.088 C32.848,20.312 32.7973333,20.52 32.696,20.712 C32.5946667,20.904 32.4426667,21 32.24,21 L27.152,21 Z" id="path-5"></path>
        <path d="M34.88,21 C34.656,21 34.448,20.944 34.256,20.832 C34.064,20.72 33.968,20.5573333 33.968,20.344 L33.968,9.96 C33.968,9.74666667 34.064,9.584 34.256,9.472 C34.448,9.36 34.656,9.304 34.88,9.304 L40.576,9.304 C40.8106667,9.304 40.9786667,9.4 41.08,9.592 C41.1813333,9.784 41.232,9.98666667 41.232,10.2 C41.232,10.456 41.176,10.6746667 41.064,10.856 C40.952,11.0373333 40.7893333,11.128 40.576,11.128 L36.048,11.128 L36.048,14.328 L38.48,14.328 C38.6933333,14.328 38.856,14.4106667 38.968,14.576 C39.08,14.7413333 39.136,14.936 39.136,15.16 C39.136,15.3413333 39.0853333,15.52 38.984,15.696 C38.8826667,15.872 38.7146667,15.96 38.48,15.96 L36.048,15.96 L36.048,19.176 L40.576,19.176 C40.7893333,19.176 40.952,19.2666667 41.064,19.448 C41.176,19.6293333 41.232,19.848 41.232,20.104 C41.232,20.3173333 41.1813333,20.52 41.08,20.712 C40.9786667,20.904 40.8106667,21 40.576,21 L34.88,21 Z" id="path-6"></path>
        <path d="M48.864,21.08 C48.7253333,21.08 48.5893333,21.0373333 48.456,20.952 C48.3226667,20.8666667 48.2186667,20.744 48.144,20.584 L45.872,16.168 L44.528,16.168 L44.528,20.344 C44.528,20.5573333 44.4213333,20.72 44.208,20.832 C43.9946667,20.944 43.7546667,21 43.488,21 C43.232,21 42.9946667,20.944 42.776,20.832 C42.5573333,20.72 42.448,20.5573333 42.448,20.344 L42.448,9.944 C42.448,9.77333333 42.5093333,9.624 42.632,9.496 C42.7546667,9.368 42.9173333,9.304 43.12,9.304 L46.288,9.304 C46.992,9.304 47.6293333,9.40533333 48.2,9.608 C48.7706667,9.81066667 49.2266667,10.1546667 49.568,10.64 C49.9093333,11.1253333 50.08,11.7946667 50.08,12.648 C50.08,13.2666667 49.9893333,13.792 49.808,14.224 C49.6266667,14.656 49.3786667,15.0026667 49.064,15.264 C48.7493333,15.5253333 48.3893333,15.72 47.984,15.848 L50.096,19.736 C50.1173333,19.7786667 50.1333333,19.824 50.144,19.872 C50.1546667,19.92 50.16,19.96 50.16,19.992 C50.16,20.1626667 50.096,20.3333333 49.968,20.504 C49.84,20.6746667 49.6773333,20.8133333 49.48,20.92 C49.2826667,21.0266667 49.0773333,21.08 48.864,21.08 Z M44.528,14.536 L46.288,14.536 C46.8106667,14.536 47.2266667,14.408 47.536,14.152 C47.8453333,13.896 48,13.4586667 48,12.84 C48,12.2 47.8453333,11.7546667 47.536,11.504 C47.2266667,11.2533333 46.8106667,11.128 46.288,11.128 L44.528,11.128 L44.528,14.536 Z" id="path-7"></path>
        <path d="M52.448,21 C52.224,21 52.016,20.944 51.824,20.832 C51.632,20.72 51.536,20.5573333 51.536,20.344 L51.536,9.96 C51.536,9.74666667 51.632,9.584 51.824,9.472 C52.016,9.36 52.224,9.304 52.448,9.304 L58.144,9.304 C58.3786667,9.304 58.5466667,9.4 58.648,9.592 C58.7493333,9.784 58.8,9.98666667 58.8,10.2 C58.8,10.456 58.744,10.6746667 58.632,10.856 C58.52,11.0373333 58.3573333,11.128 58.144,11.128 L53.616,11.128 L53.616,14.328 L56.048,14.328 C56.2613333,14.328 56.424,14.4106667 56.536,14.576 C56.648,14.7413333 56.704,14.936 56.704,15.16 C56.704,15.3413333 56.6533333,15.52 56.552,15.696 C56.4506667,15.872 56.2826667,15.96 56.048,15.96 L53.616,15.96 L53.616,19.176 L58.144,19.176 C58.3573333,19.176 58.52,19.2666667 58.632,19.448 C58.744,19.6293333 58.8,19.848 58.8,20.104 C58.8,20.3173333 58.7493333,20.52 58.648,20.712 C58.5466667,20.904 58.3786667,21 58.144,21 L52.448,21 Z" id="path-8"></path>
        <path d="M63.136,21.144 C62.4426667,21.144 61.816,21.0426667 61.256,20.84 C60.696,20.6373333 60.2533333,20.384 59.928,20.08 C59.6026667,19.776 59.44,19.4693333 59.44,19.16 C59.44,19.0106667 59.48,18.848 59.56,18.672 C59.64,18.496 59.7493333,18.3466667 59.888,18.224 C60.0266667,18.1013333 60.1813333,18.04 60.352,18.04 C60.5226667,18.04 60.6826667,18.1013333 60.832,18.224 C60.9813333,18.3466667 61.152,18.4906667 61.344,18.656 C61.536,18.8213333 61.7706667,18.9653333 62.048,19.088 C62.3253333,19.2106667 62.6666667,19.272 63.072,19.272 C63.392,19.272 63.688,19.2213333 63.96,19.12 C64.232,19.0186667 64.4506667,18.8666667 64.616,18.664 C64.7813333,18.4613333 64.864,18.2 64.864,17.88 C64.864,17.5386667 64.7733333,17.2506667 64.592,17.016 C64.4106667,16.7813333 64.1653333,16.5786667 63.856,16.408 C63.5466667,16.2373333 63.2106667,16.072 62.848,15.912 C62.4853333,15.752 62.12,15.5813333 61.752,15.4 C61.384,15.2186667 61.048,15 60.744,14.744 C60.44,14.488 60.1946667,14.1733333 60.008,13.8 C59.8213333,13.4266667 59.728,12.968 59.728,12.424 C59.728,11.8266667 59.8426667,11.3253333 60.072,10.92 C60.3013333,10.5146667 60.6053333,10.1866667 60.984,9.936 C61.3626667,9.68533333 61.7813333,9.504 62.24,9.392 C62.6986667,9.28 63.1573333,9.224 63.616,9.224 C63.8613333,9.224 64.152,9.24266667 64.488,9.28 C64.824,9.31733333 65.16,9.384 65.496,9.48 C65.832,9.576 66.1093333,9.70666667 66.328,9.872 C66.5466667,10.0373333 66.656,10.248 66.656,10.504 C66.656,10.632 66.6266667,10.7813333 66.568,10.952 C66.5093333,11.1226667 66.4186667,11.2746667 66.296,11.408 C66.1733333,11.5413333 66.016,11.608 65.824,11.608 C65.6533333,11.608 65.4853333,11.5573333 65.32,11.456 C65.1546667,11.3546667 64.9413333,11.2533333 64.68,11.152 C64.4186667,11.0506667 64.064,11 63.616,11 C63.2426667,11 62.9173333,11.0506667 62.64,11.152 C62.3626667,11.2533333 62.1546667,11.392 62.016,11.568 C61.8773333,11.744 61.808,11.9653333 61.808,12.232 C61.808,12.5093333 61.9013333,12.744 62.088,12.936 C62.2746667,13.128 62.52,13.2986667 62.824,13.448 C63.128,13.5973333 63.4613333,13.7466667 63.824,13.896 C64.1866667,14.0453333 64.552,14.2186667 64.92,14.416 C65.288,14.6133333 65.6266667,14.8506667 65.936,15.128 C66.2453333,15.4053333 66.4906667,15.7493333 66.672,16.16 C66.8533333,16.5706667 66.944,17.0746667 66.944,17.672 C66.944,18.4293333 66.7786667,19.0666667 66.448,19.584 C66.1173333,20.1013333 65.6666667,20.4906667 65.096,20.752 C64.5253333,21.0133333 63.872,21.144 63.136,21.144 Z" id="path-9"></path>
        <path d="M72.48,21 C72.256,21 72.048,20.944 71.856,20.832 C71.664,20.72 71.568,20.5573333 71.568,20.344 L71.568,9.96 C71.568,9.74666667 71.664,9.584 71.856,9.472 C72.048,9.36 72.256,9.304 72.48,9.304 L78.176,9.304 C78.4106667,9.304 78.5786667,9.4 78.68,9.592 C78.7813333,9.784 78.832,9.98666667 78.832,10.2 C78.832,10.456 78.776,10.6746667 78.664,10.856 C78.552,11.0373333 78.3893333,11.128 78.176,11.128 L73.648,11.128 L73.648,14.328 L76.08,14.328 C76.2933333,14.328 76.456,14.4106667 76.568,14.576 C76.68,14.7413333 76.736,14.936 76.736,15.16 C76.736,15.3413333 76.6853333,15.52 76.584,15.696 C76.4826667,15.872 76.3146667,15.96 76.08,15.96 L73.648,15.96 L73.648,19.176 L78.176,19.176 C78.3893333,19.176 78.552,19.2666667 78.664,19.448 C78.776,19.6293333 78.832,19.848 78.832,20.104 C78.832,20.3173333 78.7813333,20.52 78.68,20.712 C78.5786667,20.904 78.4106667,21 78.176,21 L72.48,21 Z" id="path-10"></path>
        <path d="M81.088,21 C80.832,21 80.5946667,20.944 80.376,20.832 C80.1573333,20.72 80.048,20.5573333 80.048,20.344 L80.048,9.96 C80.048,9.736 80.1573333,9.57066667 80.376,9.464 C80.5946667,9.35733333 80.832,9.304 81.088,9.304 C81.344,9.304 81.5546667,9.33066667 81.72,9.384 C81.8853333,9.43733333 82.04,9.54133333 82.184,9.696 C82.328,9.85066667 82.48,10.088 82.64,10.408 L85.728,16.376 L85.728,9.944 C85.728,9.72 85.8373333,9.55733333 86.056,9.456 C86.2746667,9.35466667 86.512,9.304 86.768,9.304 C87.0346667,9.304 87.2746667,9.35466667 87.488,9.456 C87.7013333,9.55733333 87.808,9.72 87.808,9.944 L87.808,20.344 C87.808,20.5573333 87.7013333,20.72 87.488,20.832 C87.2746667,20.944 87.0346667,21 86.768,21 C86.5226667,21 86.296,20.952 86.088,20.856 C85.88,20.76 85.712,20.5893333 85.584,20.344 L82.128,13.912 L82.128,20.344 C82.128,20.5573333 82.0213333,20.72 81.808,20.832 C81.5946667,20.944 81.3546667,21 81.088,21 Z" id="path-11"></path>
        <path d="M96.512,21.096 C95.8506667,21.096 95.2373333,20.976 94.672,20.736 C94.1066667,20.496 93.6586667,20.1066667 93.328,19.568 C92.9973333,19.0293333 92.832,18.3173333 92.832,17.432 L92.832,12.968 C92.832,12.0826667 92.9973333,11.3706667 93.328,10.832 C93.6586667,10.2933333 94.1066667,9.904 94.672,9.664 C95.2373333,9.424 95.856,9.304 96.528,9.304 C97.2746667,9.304 97.9333333,9.42933333 98.504,9.68 C99.0746667,9.93066667 99.5226667,10.28 99.848,10.728 C100.173333,11.176 100.336,11.7146667 100.336,12.344 C100.336,12.76 100.250667,13.0346667 100.08,13.168 C99.9093333,13.3013333 99.648,13.368 99.296,13.368 C99.008,13.368 98.7653333,13.3173333 98.568,13.216 C98.3706667,13.1146667 98.2666667,12.9466667 98.256,12.712 C98.256,12.584 98.2373333,12.432 98.2,12.256 C98.1626667,12.08 98.0906667,11.9066667 97.984,11.736 C97.8773333,11.5653333 97.7146667,11.4213333 97.496,11.304 C97.2773333,11.1866667 96.976,11.128 96.592,11.128 C96.048,11.128 95.6293333,11.28 95.336,11.584 C95.0426667,11.888 94.896,12.3493333 94.896,12.968 L94.896,17.432 C94.896,18.0613333 95.0453333,18.5253333 95.344,18.824 C95.6426667,19.1226667 96.0693333,19.272 96.624,19.272 C96.9866667,19.272 97.2746667,19.2133333 97.488,19.096 C97.7013333,18.9786667 97.8586667,18.832 97.96,18.656 C98.0613333,18.48 98.1306667,18.296 98.168,18.104 C98.2053333,17.912 98.2346667,17.7306667 98.256,17.56 C98.2773333,17.3146667 98.384,17.144 98.576,17.048 C98.768,16.952 99.0026667,16.904 99.28,16.904 C99.6426667,16.904 99.9093333,16.9733333 100.08,17.112 C100.250667,17.2506667 100.336,17.5226667 100.336,17.928 C100.336,18.568 100.173333,19.128 99.848,19.608 C99.5226667,20.088 99.072,20.456 98.496,20.712 C97.92,20.968 97.2586667,21.096 96.512,21.096 Z" id="path-12"></path>
        <path d="M105.392,21.096 C104.688,21.096 104.053333,20.976 103.488,20.736 C102.922667,20.496 102.474667,20.1066667 102.144,19.568 C101.813333,19.0293333 101.648,18.3173333 101.648,17.432 L101.648,12.968 C101.648,12.0826667 101.813333,11.3706667 102.144,10.832 C102.474667,10.2933333 102.92,9.904 103.48,9.664 C104.04,9.424 104.677333,9.304 105.392,9.304 C106.096,9.304 106.733333,9.424 107.304,9.664 C107.874667,9.904 108.325333,10.2933333 108.656,10.832 C108.986667,11.3706667 109.152,12.0826667 109.152,12.968 L109.152,17.432 C109.152,18.3173333 108.986667,19.0293333 108.656,19.568 C108.325333,20.1066667 107.874667,20.496 107.304,20.736 C106.733333,20.976 106.096,21.096 105.392,21.096 Z M105.392,19.272 C105.914667,19.272 106.325333,19.1226667 106.624,18.824 C106.922667,18.5253333 107.072,18.0613333 107.072,17.432 L107.072,12.968 C107.072,12.3386667 106.922667,11.8746667 106.624,11.576 C106.325333,11.2773333 105.914667,11.128 105.392,11.128 C104.869333,11.128 104.458667,11.2773333 104.16,11.576 C103.861333,11.8746667 103.712,12.3386667 103.712,12.968 L103.712,17.432 C103.712,18.0613333 103.861333,18.5253333 104.16,18.824 C104.458667,19.1226667 104.869333,19.272 105.392,19.272 Z" id="path-13"></path>
        <path d="M117.36,21.08 C117.221333,21.08 117.085333,21.0373333 116.952,20.952 C116.818667,20.8666667 116.714667,20.744 116.64,20.584 L114.368,16.168 L113.024,16.168 L113.024,20.344 C113.024,20.5573333 112.917333,20.72 112.704,20.832 C112.490667,20.944 112.250667,21 111.984,21 C111.728,21 111.490667,20.944 111.272,20.832 C111.053333,20.72 110.944,20.5573333 110.944,20.344 L110.944,9.944 C110.944,9.77333333 111.005333,9.624 111.128,9.496 C111.250667,9.368 111.413333,9.304 111.616,9.304 L114.784,9.304 C115.488,9.304 116.125333,9.40533333 116.696,9.608 C117.266667,9.81066667 117.722667,10.1546667 118.064,10.64 C118.405333,11.1253333 118.576,11.7946667 118.576,12.648 C118.576,13.2666667 118.485333,13.792 118.304,14.224 C118.122667,14.656 117.874667,15.0026667 117.56,15.264 C117.245333,15.5253333 116.885333,15.72 116.48,15.848 L118.592,19.736 C118.613333,19.7786667 118.629333,19.824 118.64,19.872 C118.650667,19.92 118.656,19.96 118.656,19.992 C118.656,20.1626667 118.592,20.3333333 118.464,20.504 C118.336,20.6746667 118.173333,20.8133333 117.976,20.92 C117.778667,21.0266667 117.573333,21.08 117.36,21.08 Z M113.024,14.536 L114.784,14.536 C115.306667,14.536 115.722667,14.408 116.032,14.152 C116.341333,13.896 116.496,13.4586667 116.496,12.84 C116.496,12.2 116.341333,11.7546667 116.032,11.504 C115.722667,11.2533333 115.306667,11.128 114.784,11.128 L113.024,11.128 L113.024,14.536 Z" id="path-14"></path>
        <path d="M123.824,21.096 C123.098667,21.096 122.448,20.976 121.872,20.736 C121.296,20.496 120.837333,20.1066667 120.496,19.568 C120.154667,19.0293333 119.984,18.3173333 119.984,17.432 L119.984,9.944 C119.984,9.72 120.090667,9.55733333 120.304,9.456 C120.517333,9.35466667 120.757333,9.304 121.024,9.304 C121.28,9.304 121.517333,9.35466667 121.736,9.456 C121.954667,9.55733333 122.064,9.72 122.064,9.944 L122.064,17.432 C122.064,18.0506667 122.218667,18.512 122.528,18.816 C122.837333,19.12 123.269333,19.272 123.824,19.272 C124.368,19.272 124.797333,19.12 125.112,18.816 C125.426667,18.512 125.584,18.0506667 125.584,17.432 L125.584,9.944 C125.584,9.72 125.688,9.55733333 125.896,9.456 C126.104,9.35466667 126.346667,9.304 126.624,9.304 C126.88,9.304 127.117333,9.35466667 127.336,9.456 C127.554667,9.55733333 127.664,9.72 127.664,9.944 L127.664,17.432 C127.664,18.3173333 127.493333,19.0293333 127.152,19.568 C126.810667,20.1066667 126.349333,20.496 125.768,20.736 C125.186667,20.976 124.538667,21.096 123.824,21.096 Z" id="path-15"></path>
        <path d="M130.576,21 C130.32,21 130.082667,20.944 129.864,20.832 C129.645333,20.72 129.536,20.5573333 129.536,20.344 L129.536,9.96 C129.536,9.736 129.645333,9.57066667 129.864,9.464 C130.082667,9.35733333 130.32,9.304 130.576,9.304 C130.832,9.304 131.042667,9.33066667 131.208,9.384 C131.373333,9.43733333 131.528,9.54133333 131.672,9.696 C131.816,9.85066667 131.968,10.088 132.128,10.408 L135.216,16.376 L135.216,9.944 C135.216,9.72 135.325333,9.55733333 135.544,9.456 C135.762667,9.35466667 136,9.304 136.256,9.304 C136.522667,9.304 136.762667,9.35466667 136.976,9.456 C137.189333,9.55733333 137.296,9.72 137.296,9.944 L137.296,20.344 C137.296,20.5573333 137.189333,20.72 136.976,20.832 C136.762667,20.944 136.522667,21 136.256,21 C136.010667,21 135.784,20.952 135.576,20.856 C135.368,20.76 135.2,20.5893333 135.072,20.344 L131.616,13.912 L131.616,20.344 C131.616,20.5573333 131.509333,20.72 131.296,20.832 C131.082667,20.944 130.842667,21 130.576,21 Z M134.8,7.704 C134.458667,7.704 134.165333,7.664 133.92,7.584 C133.674667,7.504 133.448,7.42666667 133.24,7.352 C133.032,7.27733333 132.794667,7.24 132.528,7.24 C132.304,7.24 132.114667,7.272 131.96,7.336 C131.805333,7.4 131.669333,7.464 131.552,7.528 C131.434667,7.592 131.322667,7.624 131.216,7.624 C131.077333,7.624 130.970667,7.58133333 130.896,7.496 C130.821333,7.41066667 130.768,7.312 130.736,7.2 C130.704,7.088 130.688,7.00533333 130.688,6.952 C130.688,6.70666667 130.741333,6.512 130.848,6.368 C130.954667,6.224 131.085333,6.11466667 131.24,6.04 C131.394667,5.96533333 131.549333,5.91733333 131.704,5.896 C131.858667,5.87466667 131.978667,5.864 132.064,5.864 C132.384,5.864 132.656,5.90133333 132.88,5.976 C133.104,6.05066667 133.330667,6.128 133.56,6.208 C133.789333,6.288 134.048,6.328 134.336,6.328 C134.56,6.328 134.746667,6.296 134.896,6.232 C135.045333,6.168 135.178667,6.104 135.296,6.04 C135.413333,5.976 135.525333,5.944 135.632,5.944 C135.781333,5.944 135.890667,5.98933333 135.96,6.08 C136.029333,6.17066667 136.08,6.26933333 136.112,6.376 C136.144,6.48266667 136.16,6.56266667 136.16,6.616 C136.16,6.872 136.106667,7.06933333 136,7.208 C135.893333,7.34666667 135.765333,7.45333333 135.616,7.528 C135.466667,7.60266667 135.314667,7.65066667 135.16,7.672 C135.005333,7.69333333 134.885333,7.704 134.8,7.704 Z" id="path-16"></path>
        <path d="M139.728,21 C139.536,21 139.338667,20.9626667 139.136,20.888 C138.933333,20.8133333 138.762667,20.712 138.624,20.584 C138.485333,20.456 138.416,20.3066667 138.416,20.136 C138.416,20.104 138.421333,20.0506667 138.432,19.976 L141.52,9.912 C141.594667,9.67733333 141.762667,9.50133333 142.024,9.384 C142.285333,9.26666667 142.565333,9.208 142.864,9.208 C143.173333,9.208 143.456,9.26666667 143.712,9.384 C143.968,9.50133333 144.133333,9.67733333 144.208,9.912 L147.296,19.976 C147.317333,20.0506667 147.328,20.104 147.328,20.136 C147.328,20.296 147.256,20.4426667 147.112,20.576 C146.968,20.7093333 146.794667,20.8133333 146.592,20.888 C146.389333,20.9626667 146.192,21 146,21 C145.829333,21 145.682667,20.9706667 145.56,20.912 C145.437333,20.8533333 145.354667,20.744 145.312,20.584 L144.704,18.456 L141.024,18.456 L140.432,20.584 C140.389333,20.744 140.304,20.8533333 140.176,20.912 C140.048,20.9706667 139.898667,21 139.728,21 Z M141.472,16.824 L144.256,16.824 L142.864,11.912 L141.472,16.824 Z" id="path-17"></path>
    </defs>
    <g id="Heading-6" stroke="none" fill="none" fill-rule="nonzero" xlink:href="#path-1" stroke-width="1">
        <g id="TALLERES-EN-CORUÑA" fill-rule="evenodd" transform="translate(-0.144, -5.864)" fill="#232A34">
            <g id="Trazado" fill-rule="nonzero">
                <use xlink:href="#path-2"></use>
                <use xlink:href="#path-2"></use>
            </g>
            <g id="Forma" fill-rule="nonzero">
                <use xlink:href="#path-3"></use>
                <use xlink:href="#path-3"></use>
            </g>
            <g id="Trazado" fill-rule="nonzero">
                <use xlink:href="#path-4"></use>
                <use xlink:href="#path-4"></use>
            </g>
            <g id="Trazado" fill-rule="nonzero">
                <use xlink:href="#path-5"></use>
                <use xlink:href="#path-5"></use>
            </g>
            <g id="Trazado" fill-rule="nonzero">
                <use xlink:href="#path-6"></use>
                <use xlink:href="#path-6"></use>
            </g>
            <g id="Forma" fill-rule="nonzero">
                <use xlink:href="#path-7"></use>
                <use xlink:href="#path-7"></use>
            </g>
            <g id="Trazado" fill-rule="nonzero">
                <use xlink:href="#path-8"></use>
                <use xlink:href="#path-8"></use>
            </g>
            <g id="Trazado" fill-rule="nonzero">
                <use xlink:href="#path-9"></use>
                <use xlink:href="#path-9"></use>
            </g>
            <g id="Trazado" fill-rule="nonzero">
                <use xlink:href="#path-10"></use>
                <use xlink:href="#path-10"></use>
            </g>
            <g id="Trazado" fill-rule="nonzero">
                <use xlink:href="#path-11"></use>
                <use xlink:href="#path-11"></use>
            </g>
            <g id="Trazado" fill-rule="nonzero">
                <use xlink:href="#path-12"></use>
                <use xlink:href="#path-12"></use>
            </g>
            <g id="Forma" fill-rule="nonzero">
                <use xlink:href="#path-13"></use>
                <use xlink:href="#path-13"></use>
            </g>
            <g id="Forma" fill-rule="nonzero">
                <use xlink:href="#path-14"></use>
                <use xlink:href="#path-14"></use>
            </g>
            <g id="Trazado" fill-rule="nonzero">
                <use xlink:href="#path-15"></use>
                <use xlink:href="#path-15"></use>
            </g>
            <g id="Forma" fill-rule="nonzero">
                <use xlink:href="#path-16"></use>
                <use xlink:href="#path-16"></use>
            </g>
            <g id="Forma" fill-rule="nonzero">
                <use xlink:href="#path-17"></use>
                <use xlink:href="#path-17"></use>
            </g>
        </g>
    </g>
</svg>