<?xml version="1.0" encoding="UTF-8"?>
<svg width="159px" height="12px" viewBox="0 0 159 12" version="1.1" xmlns="http://www.w3.org/2000/svg" xmlns:xlink="http://www.w3.org/1999/xlink">
    <title>Heading 6</title>
    <defs>
        <path d="M64.344,0.072 C64.68,0.109333333 65.016,0.176 65.352,0.272 C65.688,0.368 65.9653333,0.498666667 66.184,0.664 C66.4026667,0.829333333 66.512,1.04 66.512,1.296 C66.512,1.424 66.4826667,1.57333333 66.424,1.744 C66.3653333,1.91466667 66.2746667,2.06666667 66.152,2.2 C66.0293333,2.33333333 65.872,2.4 65.68,2.4 C65.5093333,2.4 65.3413333,2.34933333 65.176,2.248 C65.0106667,2.14666667 64.7973333,2.04533333 64.536,1.944 C64.2746667,1.84266667 63.92,1.792 63.472,1.792 C63.0986667,1.792 62.7733333,1.84266667 62.496,1.944 C62.2186667,2.04533333 62.0106667,2.184 61.872,2.36 C61.7333333,2.536 61.664,2.75733333 61.664,3.024 C61.664,3.30133333 61.7573333,3.536 61.944,3.728 C62.1306667,3.92 62.376,4.09066667 62.68,4.24 C62.984,4.38933333 63.3173333,4.53866667 63.68,4.688 C64.0426667,4.83733333 64.408,5.01066667 64.776,5.208 C65.144,5.40533333 65.4826667,5.64266667 65.792,5.92 C66.1013333,6.19733333 66.3466667,6.54133333 66.528,6.952 C66.7093333,7.36266667 66.8,7.86666667 66.8,8.464 C66.8,9.22133333 66.6346667,9.85866667 66.304,10.376 C65.9733333,10.8933333 65.5226667,11.2826667 64.952,11.544 C64.3813333,11.8053333 63.728,11.936 62.992,11.936 C62.2986667,11.936 61.672,11.8346667 61.112,11.632 C60.552,11.4293333 60.1093333,11.176 59.784,10.872 C59.4586667,10.568 59.296,10.2613333 59.296,9.952 C59.296,9.80266667 59.336,9.64 59.416,9.464 C59.496,9.288 59.6053333,9.13866667 59.744,9.016 C59.8826667,8.89333333 60.0373333,8.832 60.208,8.832 C60.3786667,8.832 60.5386667,8.89333333 60.688,9.016 C60.8373333,9.13866667 61.008,9.28266667 61.2,9.448 C61.392,9.61333333 61.6266667,9.75733333 61.904,9.88 C62.1813333,10.0026667 62.5226667,10.064 62.928,10.064 C63.248,10.064 63.544,10.0133333 63.816,9.912 C64.088,9.81066667 64.3066667,9.65866667 64.472,9.456 C64.6373333,9.25333333 64.72,8.992 64.72,8.672 C64.72,8.33066667 64.6293333,8.04266667 64.448,7.808 C64.2666667,7.57333333 64.0213333,7.37066667 63.712,7.2 C63.4026667,7.02933333 63.0666667,6.864 62.704,6.704 C62.3413333,6.544 61.976,6.37333333 61.608,6.192 C61.24,6.01066667 60.904,5.792 60.6,5.536 C60.296,5.28 60.0506667,4.96533333 59.864,4.592 C59.6773333,4.21866667 59.584,3.76 59.584,3.216 C59.584,2.61866667 59.6986667,2.11733333 59.928,1.712 C60.1573333,1.30666667 60.4613333,0.978666667 60.84,0.728 C61.2186667,0.477333333 61.6373333,0.296 62.096,0.184 C62.5546667,0.072 63.0133333,0.016 63.472,0.016 C63.7173333,0.016 64.008,0.0346666667 64.344,0.072 Z M97.272,0.072 C97.608,0.109333333 97.944,0.176 98.28,0.272 C98.616,0.368 98.8933333,0.498666667 99.112,0.664 C99.3306667,0.829333333 99.44,1.04 99.44,1.296 C99.44,1.424 99.4106667,1.57333333 99.352,1.744 C99.2933333,1.91466667 99.2026667,2.06666667 99.08,2.2 C98.9573333,2.33333333 98.8,2.4 98.608,2.4 C98.4373333,2.4 98.2693333,2.34933333 98.104,2.248 C97.9386667,2.14666667 97.7253333,2.04533333 97.464,1.944 C97.2026667,1.84266667 96.848,1.792 96.4,1.792 C96.0266667,1.792 95.7013333,1.84266667 95.424,1.944 C95.1466667,2.04533333 94.9386667,2.184 94.8,2.36 C94.6613333,2.536 94.592,2.75733333 94.592,3.024 C94.592,3.30133333 94.6853333,3.536 94.872,3.728 C95.0586667,3.92 95.304,4.09066667 95.608,4.24 C95.912,4.38933333 96.2453333,4.53866667 96.608,4.688 C96.9706667,4.83733333 97.336,5.01066667 97.704,5.208 C98.072,5.40533333 98.4106667,5.64266667 98.72,5.92 C99.0293333,6.19733333 99.2746667,6.54133333 99.456,6.952 C99.6373333,7.36266667 99.728,7.86666667 99.728,8.464 C99.728,9.22133333 99.5626667,9.85866667 99.232,10.376 C98.9013333,10.8933333 98.4506667,11.2826667 97.88,11.544 C97.3093333,11.8053333 96.656,11.936 95.92,11.936 C95.2266667,11.936 94.6,11.8346667 94.04,11.632 C93.48,11.4293333 93.0373333,11.176 92.712,10.872 C92.3866667,10.568 92.224,10.2613333 92.224,9.952 C92.224,9.80266667 92.264,9.64 92.344,9.464 C92.424,9.288 92.5333333,9.13866667 92.672,9.016 C92.8106667,8.89333333 92.9653333,8.832 93.136,8.832 C93.3066667,8.832 93.4666667,8.89333333 93.616,9.016 C93.7653333,9.13866667 93.936,9.28266667 94.128,9.448 C94.32,9.61333333 94.5546667,9.75733333 94.832,9.88 C95.1093333,10.0026667 95.4506667,10.064 95.856,10.064 C96.176,10.064 96.472,10.0133333 96.744,9.912 C97.016,9.81066667 97.2346667,9.65866667 97.4,9.456 C97.5653333,9.25333333 97.648,8.992 97.648,8.672 C97.648,8.33066667 97.5573333,8.04266667 97.376,7.808 C97.1946667,7.57333333 96.9493333,7.37066667 96.64,7.2 C96.3306667,7.02933333 95.9946667,6.864 95.632,6.704 C95.2693333,6.544 94.904,6.37333333 94.536,6.192 C94.168,6.01066667 93.832,5.792 93.528,5.536 C93.224,5.28 92.9786667,4.96533333 92.792,4.592 C92.6053333,4.21866667 92.512,3.76 92.512,3.216 C92.512,2.61866667 92.6266667,2.11733333 92.856,1.712 C93.0853333,1.30666667 93.3893333,0.978666667 93.768,0.728 C94.1466667,0.477333333 94.5653333,0.296 95.024,0.184 C95.4826667,0.072 95.9413333,0.016 96.4,0.016 C96.6453333,0.016 96.936,0.0346666667 97.272,0.072 Z M156.168,0.456 C156.738667,0.696 157.189333,1.08533333 157.52,1.624 C157.850667,2.16266667 158.016,2.87466667 158.016,3.76 L158.016,8.224 C158.016,9.10933333 157.850667,9.82133333 157.52,10.36 C157.189333,10.8986667 156.738667,11.288 156.168,11.528 C155.597333,11.768 154.96,11.888 154.256,11.888 C153.552,11.888 152.917333,11.768 152.352,11.528 C151.786667,11.288 151.338667,10.8986667 151.008,10.36 C150.677333,9.82133333 150.512,9.10933333 150.512,8.224 L150.512,3.76 C150.512,2.87466667 150.677333,2.16266667 151.008,1.624 C151.338667,1.08533333 151.784,0.696 152.344,0.456 C152.904,0.216 153.541333,0.096 154.256,0.096 C154.96,0.096 155.597333,0.216 156.168,0.456 Z M147.144,0.464 C147.714667,0.709333333 148.165333,1.06133333 148.496,1.52 C148.826667,1.97866667 148.992,2.528 148.992,3.168 C148.992,3.56266667 148.906667,3.82666667 148.736,3.96 C148.565333,4.09333333 148.304,4.16 147.952,4.16 C147.674667,4.16 147.434667,4.112 147.232,4.016 C147.029333,3.92 146.922667,3.74933333 146.912,3.504 C146.901333,3.248 146.850667,3 146.76,2.76 C146.669333,2.52 146.509333,2.32 146.28,2.16 C146.050667,2 145.701333,1.92 145.232,1.92 C144.709333,1.92 144.298667,2.072 144,2.376 C143.701333,2.68 143.552,3.14133333 143.552,3.76 L143.552,8.224 C143.552,8.84266667 143.701333,9.304 144,9.608 C144.298667,9.912 144.709333,10.064 145.232,10.064 C145.754667,10.064 146.165333,9.912 146.464,9.608 C146.762667,9.304 146.912,8.84266667 146.912,8.224 L146.912,7.28 L145.616,7.28 C145.413333,7.28 145.256,7.19466667 145.144,7.024 C145.032,6.85333333 144.976,6.66666667 144.976,6.464 C144.976,6.26133333 145.032,6.07466667 145.144,5.904 C145.256,5.73333333 145.413333,5.648 145.616,5.648 L148.336,5.648 C148.549333,5.648 148.712,5.71466667 148.824,5.848 C148.936,5.98133333 148.992,6.13866667 148.992,6.32 L148.992,8.224 C148.992,9.10933333 148.826667,9.82133333 148.496,10.36 C148.165333,10.8986667 147.714667,11.288 147.144,11.528 C146.573333,11.768 145.936,11.888 145.232,11.888 C144.528,11.888 143.893333,11.768 143.328,11.528 C142.762667,11.288 142.314667,10.8986667 141.984,10.36 C141.653333,9.82133333 141.488,9.10933333 141.488,8.224 L141.488,3.76 C141.488,2.87466667 141.653333,2.16266667 141.984,1.624 C142.314667,1.08533333 142.76,0.696 143.32,0.456 C143.88,0.216 144.496,0.096 145.168,0.096 C145.914667,0.096 146.573333,0.218666667 147.144,0.464 Z M48.056,0.4 C48.6266667,0.602666667 49.0826667,0.946666667 49.424,1.432 C49.7653333,1.91733333 49.936,2.58666667 49.936,3.44 C49.936,4.05866667 49.8453333,4.584 49.664,5.016 C49.4826667,5.448 49.2346667,5.79466667 48.92,6.056 C48.6053333,6.31733333 48.2453333,6.512 47.84,6.64 L49.952,10.528 C49.9733333,10.5706667 49.9893333,10.616 50,10.664 C50.0106667,10.712 50.016,10.752 50.016,10.784 C50.016,10.9546667 49.952,11.1253333 49.824,11.296 C49.696,11.4666667 49.5333333,11.6053333 49.336,11.712 C49.1386667,11.8186667 48.9333333,11.872 48.72,11.872 C48.5813333,11.872 48.4453333,11.8293333 48.312,11.744 C48.1786667,11.6586667 48.0746667,11.536 48,11.376 L45.728,6.96 L44.384,6.96 L44.384,11.136 C44.384,11.3493333 44.2773333,11.512 44.064,11.624 C43.8506667,11.736 43.6106667,11.792 43.344,11.792 C43.088,11.792 42.8506667,11.736 42.632,11.624 C42.4133333,11.512 42.304,11.3493333 42.304,11.136 L42.304,0.736 C42.304,0.565333333 42.3653333,0.416 42.488,0.288 C42.6106667,0.16 42.7733333,0.096 42.976,0.096 L46.144,0.096 C46.848,0.096 47.4853333,0.197333333 48.056,0.4 Z M7.928,0.392 C8.02933333,0.589333333 8.08,0.8 8.08,1.024 C8.08,1.26933333 8.024,1.488 7.912,1.68 C7.8,1.872 7.63733333,1.968 7.424,1.968 L5.088,1.968 L5.088,11.136 C5.088,11.3493333 4.97866667,11.512 4.76,11.624 C4.54133333,11.736 4.304,11.792 4.048,11.792 C3.78133333,11.792 3.54133333,11.736 3.328,11.624 C3.11466667,11.512 3.008,11.3493333 3.008,11.136 L3.008,1.968 L0.656,1.968 C0.453333333,1.968 0.293333333,1.872 0.176,1.68 C0.0586666667,1.488 -5.32907052e-15,1.26933333 -5.32907052e-15,1.024 C-5.32907052e-15,0.8 0.0533333333,0.589333333 0.16,0.392 C0.266666667,0.194666667 0.432,0.096 0.656,0.096 L7.424,0.096 C7.65866667,0.096 7.82666667,0.194666667 7.928,0.392 Z M117.776,0.248 C117.989333,0.349333333 118.096,0.512 118.096,0.736 L118.096,11.136 C118.096,11.3493333 117.989333,11.512 117.776,11.624 C117.562667,11.736 117.322667,11.792 117.056,11.792 C116.810667,11.792 116.584,11.744 116.376,11.648 C116.168,11.552 116,11.3813333 115.872,11.136 L112.416,4.704 L112.416,11.136 C112.416,11.3493333 112.309333,11.512 112.096,11.624 C111.882667,11.736 111.642667,11.792 111.376,11.792 C111.12,11.792 110.882667,11.736 110.664,11.624 C110.445333,11.512 110.336,11.3493333 110.336,11.136 L110.336,0.752 C110.336,0.528 110.445333,0.362666667 110.664,0.256 C110.882667,0.149333333 111.12,0.096 111.376,0.096 C111.632,0.096 111.842667,0.122666667 112.008,0.176 C112.173333,0.229333333 112.328,0.333333333 112.472,0.488 C112.616,0.642666667 112.768,0.88 112.928,1.2 L116.016,7.168 L116.016,0.736 C116.016,0.512 116.125333,0.349333333 116.344,0.248 C116.562667,0.146666667 116.8,0.096 117.056,0.096 C117.322667,0.096 117.562667,0.146666667 117.776,0.248 Z M13.664,0.176 C13.92,0.293333333 14.0853333,0.469333333 14.16,0.704 L17.248,10.768 C17.2693333,10.8426667 17.28,10.896 17.28,10.928 C17.28,11.088 17.208,11.2346667 17.064,11.368 C16.92,11.5013333 16.7466667,11.6053333 16.544,11.68 C16.3413333,11.7546667 16.144,11.792 15.952,11.792 C15.7813333,11.792 15.6346667,11.7626667 15.512,11.704 C15.3893333,11.6453333 15.3066667,11.536 15.264,11.376 L14.656,9.248 L10.976,9.248 L10.384,11.376 C10.3413333,11.536 10.256,11.6453333 10.128,11.704 C10,11.7626667 9.85066667,11.792 9.68,11.792 C9.488,11.792 9.29066667,11.7546667 9.088,11.68 C8.88533333,11.6053333 8.71466667,11.504 8.576,11.376 C8.43733333,11.248 8.368,11.0986667 8.368,10.928 C8.368,10.896 8.37333333,10.8426667 8.384,10.768 L11.472,0.704 C11.5466667,0.469333333 11.7146667,0.293333333 11.976,0.176 C12.2373333,0.0586666667 12.5173333,-8.8817842e-16 12.816,-8.8817842e-16 C13.1253333,-8.8817842e-16 13.408,0.0586666667 13.664,0.176 Z M58.504,0.384 C58.6053333,0.576 58.656,0.778666667 58.656,0.992 C58.656,1.248 58.6,1.46666667 58.488,1.648 C58.376,1.82933333 58.2133333,1.92 58,1.92 L53.472,1.92 L53.472,5.12 L55.904,5.12 C56.1173333,5.12 56.28,5.20266667 56.392,5.368 C56.504,5.53333333 56.56,5.728 56.56,5.952 C56.56,6.13333333 56.5093333,6.312 56.408,6.488 C56.3066667,6.664 56.1386667,6.752 55.904,6.752 L53.472,6.752 L53.472,9.968 L58,9.968 C58.2133333,9.968 58.376,10.0586667 58.488,10.24 C58.6,10.4213333 58.656,10.64 58.656,10.896 C58.656,11.1093333 58.6053333,11.312 58.504,11.504 C58.4026667,11.696 58.2346667,11.792 58,11.792 L52.304,11.792 C52.08,11.792 51.872,11.736 51.68,11.624 C51.488,11.512 51.392,11.3493333 51.392,11.136 L51.392,0.752 C51.392,0.538666667 51.488,0.376 51.68,0.264 C51.872,0.152 52.08,0.096 52.304,0.096 L58,0.096 C58.2346667,0.096 58.4026667,0.192 58.504,0.384 Z M27.856,0.248 C28.0693333,0.349333333 28.176,0.512 28.176,0.736 L28.176,9.968 L32.096,9.968 C32.2986667,9.968 32.4506667,10.0613333 32.552,10.248 C32.6533333,10.4346667 32.704,10.6453333 32.704,10.88 C32.704,11.104 32.6533333,11.312 32.552,11.504 C32.4506667,11.696 32.2986667,11.792 32.096,11.792 L27.008,11.792 C26.784,11.792 26.576,11.736 26.384,11.624 C26.192,11.512 26.096,11.3493333 26.096,11.136 L26.096,0.736 C26.096,0.512 26.2053333,0.349333333 26.424,0.248 C26.6426667,0.146666667 26.88,0.096 27.136,0.096 C27.4026667,0.096 27.6426667,0.146666667 27.856,0.248 Z M136.896,0.176 C137.152,0.293333333 137.317333,0.469333333 137.392,0.704 L140.48,10.768 C140.501333,10.8426667 140.512,10.896 140.512,10.928 C140.512,11.088 140.44,11.2346667 140.296,11.368 C140.152,11.5013333 139.978667,11.6053333 139.776,11.68 C139.573333,11.7546667 139.376,11.792 139.184,11.792 C139.013333,11.792 138.866667,11.7626667 138.744,11.704 C138.621333,11.6453333 138.538667,11.536 138.496,11.376 L137.888,9.248 L134.208,9.248 L133.616,11.376 C133.573333,11.536 133.488,11.6453333 133.36,11.704 C133.232,11.7626667 133.082667,11.792 132.912,11.792 C132.72,11.792 132.522667,11.7546667 132.32,11.68 C132.117333,11.6053333 131.946667,11.504 131.808,11.376 C131.669333,11.248 131.6,11.0986667 131.6,10.928 C131.6,10.896 131.605333,10.8426667 131.616,10.768 L134.704,0.704 C134.778667,0.469333333 134.946667,0.293333333 135.208,0.176 C135.469333,0.0586666667 135.749333,-8.8817842e-16 136.048,-8.8817842e-16 C136.357333,-8.8817842e-16 136.64,0.0586666667 136.896,0.176 Z M78.536,0.384 C78.6373333,0.576 78.688,0.778666667 78.688,0.992 C78.688,1.248 78.632,1.46666667 78.52,1.648 C78.408,1.82933333 78.2453333,1.92 78.032,1.92 L73.504,1.92 L73.504,5.12 L75.936,5.12 C76.1493333,5.12 76.312,5.20266667 76.424,5.368 C76.536,5.53333333 76.592,5.728 76.592,5.952 C76.592,6.13333333 76.5413333,6.312 76.44,6.488 C76.3386667,6.664 76.1706667,6.752 75.936,6.752 L73.504,6.752 L73.504,9.968 L78.032,9.968 C78.2453333,9.968 78.408,10.0586667 78.52,10.24 C78.632,10.4213333 78.688,10.64 78.688,10.896 C78.688,11.1093333 78.6373333,11.312 78.536,11.504 C78.4346667,11.696 78.2666667,11.792 78.032,11.792 L72.336,11.792 C72.112,11.792 71.904,11.736 71.712,11.624 C71.52,11.512 71.424,11.3493333 71.424,11.136 L71.424,0.752 C71.424,0.538666667 71.52,0.376 71.712,0.264 C71.904,0.152 72.112,0.096 72.336,0.096 L78.032,0.096 C78.2666667,0.096 78.4346667,0.192 78.536,0.384 Z M87.344,0.248 C87.5573333,0.349333333 87.664,0.512 87.664,0.736 L87.664,11.136 C87.664,11.3493333 87.5573333,11.512 87.344,11.624 C87.1306667,11.736 86.8906667,11.792 86.624,11.792 C86.3786667,11.792 86.152,11.744 85.944,11.648 C85.736,11.552 85.568,11.3813333 85.44,11.136 L81.984,4.704 L81.984,11.136 C81.984,11.3493333 81.8773333,11.512 81.664,11.624 C81.4506667,11.736 81.2106667,11.792 80.944,11.792 C80.688,11.792 80.4506667,11.736 80.232,11.624 C80.0133333,11.512 79.904,11.3493333 79.904,11.136 L79.904,0.752 C79.904,0.528 80.0133333,0.362666667 80.232,0.256 C80.4506667,0.149333333 80.688,0.096 80.944,0.096 C81.2,0.096 81.4106667,0.122666667 81.576,0.176 C81.7413333,0.229333333 81.896,0.333333333 82.04,0.488 C82.184,0.642666667 82.336,0.88 82.496,1.2 L85.584,7.168 L85.584,0.736 C85.584,0.512 85.6933333,0.349333333 85.912,0.248 C86.1306667,0.146666667 86.368,0.096 86.624,0.096 C86.8906667,0.096 87.1306667,0.146666667 87.344,0.248 Z M20.128,0.248 C20.3413333,0.349333333 20.448,0.512 20.448,0.736 L20.448,9.968 L24.368,9.968 C24.5706667,9.968 24.7226667,10.0613333 24.824,10.248 C24.9253333,10.4346667 24.976,10.6453333 24.976,10.88 C24.976,11.104 24.9253333,11.312 24.824,11.504 C24.7226667,11.696 24.5706667,11.792 24.368,11.792 L19.28,11.792 C19.056,11.792 18.848,11.736 18.656,11.624 C18.464,11.512 18.368,11.3493333 18.368,11.136 L18.368,0.736 C18.368,0.512 18.4773333,0.349333333 18.696,0.248 C18.9146667,0.146666667 19.152,0.096 19.408,0.096 C19.6746667,0.096 19.9146667,0.146666667 20.128,0.248 Z M130.16,0.248 C130.373333,0.349333333 130.48,0.512 130.48,0.736 L130.48,11.136 C130.48,11.3493333 130.373333,11.512 130.16,11.624 C129.946667,11.736 129.706667,11.792 129.44,11.792 C129.184,11.792 128.946667,11.736 128.728,11.624 C128.509333,11.512 128.4,11.3493333 128.4,11.136 L128.4,0.736 C128.4,0.512 128.509333,0.349333333 128.728,0.248 C128.946667,0.146666667 129.184,0.096 129.44,0.096 C129.706667,0.096 129.946667,0.146666667 130.16,0.248 Z M127.144,0.392 C127.245333,0.589333333 127.296,0.8 127.296,1.024 C127.296,1.26933333 127.24,1.488 127.128,1.68 C127.016,1.872 126.853333,1.968 126.64,1.968 L124.304,1.968 L124.304,11.136 C124.304,11.3493333 124.194667,11.512 123.976,11.624 C123.757333,11.736 123.52,11.792 123.264,11.792 C122.997333,11.792 122.757333,11.736 122.544,11.624 C122.330667,11.512 122.224,11.3493333 122.224,11.136 L122.224,1.968 L119.872,1.968 C119.669333,1.968 119.509333,1.872 119.392,1.68 C119.274667,1.488 119.216,1.26933333 119.216,1.024 C119.216,0.8 119.269333,0.589333333 119.376,0.392 C119.482667,0.194666667 119.648,0.096 119.872,0.096 L126.64,0.096 C126.874667,0.096 127.042667,0.194666667 127.144,0.392 Z M105.632,0.176 C105.888,0.293333333 106.053333,0.469333333 106.128,0.704 L109.216,10.768 C109.237333,10.8426667 109.248,10.896 109.248,10.928 C109.248,11.088 109.176,11.2346667 109.032,11.368 C108.888,11.5013333 108.714667,11.6053333 108.512,11.68 C108.309333,11.7546667 108.112,11.792 107.92,11.792 C107.749333,11.792 107.602667,11.7626667 107.48,11.704 C107.357333,11.6453333 107.274667,11.536 107.232,11.376 L106.624,9.248 L102.944,9.248 L102.352,11.376 C102.309333,11.536 102.224,11.6453333 102.096,11.704 C101.968,11.7626667 101.818667,11.792 101.648,11.792 C101.456,11.792 101.258667,11.7546667 101.056,11.68 C100.853333,11.6053333 100.682667,11.504 100.544,11.376 C100.405333,11.248 100.336,11.0986667 100.336,10.928 C100.336,10.896 100.341333,10.8426667 100.352,10.768 L103.44,0.704 C103.514667,0.469333333 103.682667,0.293333333 103.944,0.176 C104.205333,0.0586666667 104.485333,-8.8817842e-16 104.784,-8.8817842e-16 C105.093333,-8.8817842e-16 105.376,0.0586666667 105.632,0.176 Z M40.936,0.384 C41.0373333,0.576 41.088,0.778666667 41.088,0.992 C41.088,1.248 41.032,1.46666667 40.92,1.648 C40.808,1.82933333 40.6453333,1.92 40.432,1.92 L35.904,1.92 L35.904,5.12 L38.336,5.12 C38.5493333,5.12 38.712,5.20266667 38.824,5.368 C38.936,5.53333333 38.992,5.728 38.992,5.952 C38.992,6.13333333 38.9413333,6.312 38.84,6.488 C38.7386667,6.664 38.5706667,6.752 38.336,6.752 L35.904,6.752 L35.904,9.968 L40.432,9.968 C40.6453333,9.968 40.808,10.0586667 40.92,10.24 C41.032,10.4213333 41.088,10.64 41.088,10.896 C41.088,11.1093333 41.0373333,11.312 40.936,11.504 C40.8346667,11.696 40.6666667,11.792 40.432,11.792 L34.736,11.792 C34.512,11.792 34.304,11.736 34.112,11.624 C33.92,11.512 33.824,11.3493333 33.824,11.136 L33.824,0.752 C33.824,0.538666667 33.92,0.376 34.112,0.264 C34.304,0.152 34.512,0.096 34.736,0.096 L40.432,0.096 C40.6666667,0.096 40.8346667,0.192 40.936,0.384 Z M153.024,2.368 C152.725333,2.66666667 152.576,3.13066667 152.576,3.76 L152.576,8.224 C152.576,8.85333333 152.725333,9.31733333 153.024,9.616 C153.322667,9.91466667 153.733333,10.064 154.256,10.064 C154.778667,10.064 155.189333,9.91466667 155.488,9.616 C155.786667,9.31733333 155.936,8.85333333 155.936,8.224 L155.936,3.76 C155.936,3.13066667 155.786667,2.66666667 155.488,2.368 C155.189333,2.06933333 154.778667,1.92 154.256,1.92 C153.733333,1.92 153.322667,2.06933333 153.024,2.368 Z M103.392,7.616 L106.176,7.616 L104.784,2.704 Z M11.424,7.616 L14.208,7.616 L12.816,2.704 Z M134.656,7.616 L137.44,7.616 L136.048,2.704 Z M44.384,1.92 L44.384,5.328 L46.144,5.328 C46.6666667,5.328 47.0826667,5.2 47.392,4.944 C47.7013333,4.688 47.856,4.25066667 47.856,3.632 C47.856,2.992 47.7013333,2.54666667 47.392,2.296 C47.0826667,2.04533333 46.6666667,1.92 46.144,1.92 Z" id="path-1"></path>
        <path d="M4.192,16 C3.92533333,16 3.68533333,15.944 3.472,15.832 C3.25866667,15.72 3.152,15.5573333 3.152,15.344 L3.152,6.176 L0.8,6.176 C0.597333333,6.176 0.437333333,6.08 0.32,5.888 C0.202666667,5.696 0.144,5.47733333 0.144,5.232 C0.144,5.008 0.197333333,4.79733333 0.304,4.6 C0.410666667,4.40266667 0.576,4.304 0.8,4.304 L7.568,4.304 C7.80266667,4.304 7.97066667,4.40266667 8.072,4.6 C8.17333333,4.79733333 8.224,5.008 8.224,5.232 C8.224,5.47733333 8.168,5.696 8.056,5.888 C7.944,6.08 7.78133333,6.176 7.568,6.176 L5.232,6.176 L5.232,15.344 C5.232,15.5573333 5.12266667,15.72 4.904,15.832 C4.68533333,15.944 4.448,16 4.192,16 Z" id="path-2"></path>
        <path d="M9.824,16 C9.632,16 9.43466667,15.9626667 9.232,15.888 C9.02933333,15.8133333 8.85866667,15.712 8.72,15.584 C8.58133333,15.456 8.512,15.3066667 8.512,15.136 C8.512,15.104 8.51733333,15.0506667 8.528,14.976 L11.616,4.912 C11.6906667,4.67733333 11.8586667,4.50133333 12.12,4.384 C12.3813333,4.26666667 12.6613333,4.208 12.96,4.208 C13.2693333,4.208 13.552,4.26666667 13.808,4.384 C14.064,4.50133333 14.2293333,4.67733333 14.304,4.912 L17.392,14.976 C17.4133333,15.0506667 17.424,15.104 17.424,15.136 C17.424,15.296 17.352,15.4426667 17.208,15.576 C17.064,15.7093333 16.8906667,15.8133333 16.688,15.888 C16.4853333,15.9626667 16.288,16 16.096,16 C15.9253333,16 15.7786667,15.9706667 15.656,15.912 C15.5333333,15.8533333 15.4506667,15.744 15.408,15.584 L14.8,13.456 L11.12,13.456 L10.528,15.584 C10.4853333,15.744 10.4,15.8533333 10.272,15.912 C10.144,15.9706667 9.99466667,16 9.824,16 Z M11.568,11.824 L14.352,11.824 L12.96,6.912 L11.568,11.824 Z" id="path-3"></path>
        <path d="M19.424,16 C19.2,16 18.992,15.944 18.8,15.832 C18.608,15.72 18.512,15.5573333 18.512,15.344 L18.512,4.944 C18.512,4.72 18.6213333,4.55733333 18.84,4.456 C19.0586667,4.35466667 19.296,4.304 19.552,4.304 C19.8186667,4.304 20.0586667,4.35466667 20.272,4.456 C20.4853333,4.55733333 20.592,4.72 20.592,4.944 L20.592,14.176 L24.512,14.176 C24.7146667,14.176 24.8666667,14.2693333 24.968,14.456 C25.0693333,14.6426667 25.12,14.8533333 25.12,15.088 C25.12,15.312 25.0693333,15.52 24.968,15.712 C24.8666667,15.904 24.7146667,16 24.512,16 L19.424,16 Z" id="path-4"></path>
        <path d="M27.152,16 C26.928,16 26.72,15.944 26.528,15.832 C26.336,15.72 26.24,15.5573333 26.24,15.344 L26.24,4.944 C26.24,4.72 26.3493333,4.55733333 26.568,4.456 C26.7866667,4.35466667 27.024,4.304 27.28,4.304 C27.5466667,4.304 27.7866667,4.35466667 28,4.456 C28.2133333,4.55733333 28.32,4.72 28.32,4.944 L28.32,14.176 L32.24,14.176 C32.4426667,14.176 32.5946667,14.2693333 32.696,14.456 C32.7973333,14.6426667 32.848,14.8533333 32.848,15.088 C32.848,15.312 32.7973333,15.52 32.696,15.712 C32.5946667,15.904 32.4426667,16 32.24,16 L27.152,16 Z" id="path-5"></path>
        <path d="M34.88,16 C34.656,16 34.448,15.944 34.256,15.832 C34.064,15.72 33.968,15.5573333 33.968,15.344 L33.968,4.96 C33.968,4.74666667 34.064,4.584 34.256,4.472 C34.448,4.36 34.656,4.304 34.88,4.304 L40.576,4.304 C40.8106667,4.304 40.9786667,4.4 41.08,4.592 C41.1813333,4.784 41.232,4.98666667 41.232,5.2 C41.232,5.456 41.176,5.67466667 41.064,5.856 C40.952,6.03733333 40.7893333,6.128 40.576,6.128 L36.048,6.128 L36.048,9.328 L38.48,9.328 C38.6933333,9.328 38.856,9.41066667 38.968,9.576 C39.08,9.74133333 39.136,9.936 39.136,10.16 C39.136,10.3413333 39.0853333,10.52 38.984,10.696 C38.8826667,10.872 38.7146667,10.96 38.48,10.96 L36.048,10.96 L36.048,14.176 L40.576,14.176 C40.7893333,14.176 40.952,14.2666667 41.064,14.448 C41.176,14.6293333 41.232,14.848 41.232,15.104 C41.232,15.3173333 41.1813333,15.52 41.08,15.712 C40.9786667,15.904 40.8106667,16 40.576,16 L34.88,16 Z" id="path-6"></path>
        <path d="M48.864,16.08 C48.7253333,16.08 48.5893333,16.0373333 48.456,15.952 C48.3226667,15.8666667 48.2186667,15.744 48.144,15.584 L45.872,11.168 L44.528,11.168 L44.528,15.344 C44.528,15.5573333 44.4213333,15.72 44.208,15.832 C43.9946667,15.944 43.7546667,16 43.488,16 C43.232,16 42.9946667,15.944 42.776,15.832 C42.5573333,15.72 42.448,15.5573333 42.448,15.344 L42.448,4.944 C42.448,4.77333333 42.5093333,4.624 42.632,4.496 C42.7546667,4.368 42.9173333,4.304 43.12,4.304 L46.288,4.304 C46.992,4.304 47.6293333,4.40533333 48.2,4.608 C48.7706667,4.81066667 49.2266667,5.15466667 49.568,5.64 C49.9093333,6.12533333 50.08,6.79466667 50.08,7.648 C50.08,8.26666667 49.9893333,8.792 49.808,9.224 C49.6266667,9.656 49.3786667,10.0026667 49.064,10.264 C48.7493333,10.5253333 48.3893333,10.72 47.984,10.848 L50.096,14.736 C50.1173333,14.7786667 50.1333333,14.824 50.144,14.872 C50.1546667,14.92 50.16,14.96 50.16,14.992 C50.16,15.1626667 50.096,15.3333333 49.968,15.504 C49.84,15.6746667 49.6773333,15.8133333 49.48,15.92 C49.2826667,16.0266667 49.0773333,16.08 48.864,16.08 Z M44.528,9.536 L46.288,9.536 C46.8106667,9.536 47.2266667,9.408 47.536,9.152 C47.8453333,8.896 48,8.45866667 48,7.84 C48,7.2 47.8453333,6.75466667 47.536,6.504 C47.2266667,6.25333333 46.8106667,6.128 46.288,6.128 L44.528,6.128 L44.528,9.536 Z" id="path-7"></path>
        <path d="M52.448,16 C52.224,16 52.016,15.944 51.824,15.832 C51.632,15.72 51.536,15.5573333 51.536,15.344 L51.536,4.96 C51.536,4.74666667 51.632,4.584 51.824,4.472 C52.016,4.36 52.224,4.304 52.448,4.304 L58.144,4.304 C58.3786667,4.304 58.5466667,4.4 58.648,4.592 C58.7493333,4.784 58.8,4.98666667 58.8,5.2 C58.8,5.456 58.744,5.67466667 58.632,5.856 C58.52,6.03733333 58.3573333,6.128 58.144,6.128 L53.616,6.128 L53.616,9.328 L56.048,9.328 C56.2613333,9.328 56.424,9.41066667 56.536,9.576 C56.648,9.74133333 56.704,9.936 56.704,10.16 C56.704,10.3413333 56.6533333,10.52 56.552,10.696 C56.4506667,10.872 56.2826667,10.96 56.048,10.96 L53.616,10.96 L53.616,14.176 L58.144,14.176 C58.3573333,14.176 58.52,14.2666667 58.632,14.448 C58.744,14.6293333 58.8,14.848 58.8,15.104 C58.8,15.3173333 58.7493333,15.52 58.648,15.712 C58.5466667,15.904 58.3786667,16 58.144,16 L52.448,16 Z" id="path-8"></path>
        <path d="M63.136,16.144 C62.4426667,16.144 61.816,16.0426667 61.256,15.84 C60.696,15.6373333 60.2533333,15.384 59.928,15.08 C59.6026667,14.776 59.44,14.4693333 59.44,14.16 C59.44,14.0106667 59.48,13.848 59.56,13.672 C59.64,13.496 59.7493333,13.3466667 59.888,13.224 C60.0266667,13.1013333 60.1813333,13.04 60.352,13.04 C60.5226667,13.04 60.6826667,13.1013333 60.832,13.224 C60.9813333,13.3466667 61.152,13.4906667 61.344,13.656 C61.536,13.8213333 61.7706667,13.9653333 62.048,14.088 C62.3253333,14.2106667 62.6666667,14.272 63.072,14.272 C63.392,14.272 63.688,14.2213333 63.96,14.12 C64.232,14.0186667 64.4506667,13.8666667 64.616,13.664 C64.7813333,13.4613333 64.864,13.2 64.864,12.88 C64.864,12.5386667 64.7733333,12.2506667 64.592,12.016 C64.4106667,11.7813333 64.1653333,11.5786667 63.856,11.408 C63.5466667,11.2373333 63.2106667,11.072 62.848,10.912 C62.4853333,10.752 62.12,10.5813333 61.752,10.4 C61.384,10.2186667 61.048,10 60.744,9.744 C60.44,9.488 60.1946667,9.17333333 60.008,8.8 C59.8213333,8.42666667 59.728,7.968 59.728,7.424 C59.728,6.82666667 59.8426667,6.32533333 60.072,5.92 C60.3013333,5.51466667 60.6053333,5.18666667 60.984,4.936 C61.3626667,4.68533333 61.7813333,4.504 62.24,4.392 C62.6986667,4.28 63.1573333,4.224 63.616,4.224 C63.8613333,4.224 64.152,4.24266667 64.488,4.28 C64.824,4.31733333 65.16,4.384 65.496,4.48 C65.832,4.576 66.1093333,4.70666667 66.328,4.872 C66.5466667,5.03733333 66.656,5.248 66.656,5.504 C66.656,5.632 66.6266667,5.78133333 66.568,5.952 C66.5093333,6.12266667 66.4186667,6.27466667 66.296,6.408 C66.1733333,6.54133333 66.016,6.608 65.824,6.608 C65.6533333,6.608 65.4853333,6.55733333 65.32,6.456 C65.1546667,6.35466667 64.9413333,6.25333333 64.68,6.152 C64.4186667,6.05066667 64.064,6 63.616,6 C63.2426667,6 62.9173333,6.05066667 62.64,6.152 C62.3626667,6.25333333 62.1546667,6.392 62.016,6.568 C61.8773333,6.744 61.808,6.96533333 61.808,7.232 C61.808,7.50933333 61.9013333,7.744 62.088,7.936 C62.2746667,8.128 62.52,8.29866667 62.824,8.448 C63.128,8.59733333 63.4613333,8.74666667 63.824,8.896 C64.1866667,9.04533333 64.552,9.21866667 64.92,9.416 C65.288,9.61333333 65.6266667,9.85066667 65.936,10.128 C66.2453333,10.4053333 66.4906667,10.7493333 66.672,11.16 C66.8533333,11.5706667 66.944,12.0746667 66.944,12.672 C66.944,13.4293333 66.7786667,14.0666667 66.448,14.584 C66.1173333,15.1013333 65.6666667,15.4906667 65.096,15.752 C64.5253333,16.0133333 63.872,16.144 63.136,16.144 Z" id="path-9"></path>
        <path d="M72.48,16 C72.256,16 72.048,15.944 71.856,15.832 C71.664,15.72 71.568,15.5573333 71.568,15.344 L71.568,4.96 C71.568,4.74666667 71.664,4.584 71.856,4.472 C72.048,4.36 72.256,4.304 72.48,4.304 L78.176,4.304 C78.4106667,4.304 78.5786667,4.4 78.68,4.592 C78.7813333,4.784 78.832,4.98666667 78.832,5.2 C78.832,5.456 78.776,5.67466667 78.664,5.856 C78.552,6.03733333 78.3893333,6.128 78.176,6.128 L73.648,6.128 L73.648,9.328 L76.08,9.328 C76.2933333,9.328 76.456,9.41066667 76.568,9.576 C76.68,9.74133333 76.736,9.936 76.736,10.16 C76.736,10.3413333 76.6853333,10.52 76.584,10.696 C76.4826667,10.872 76.3146667,10.96 76.08,10.96 L73.648,10.96 L73.648,14.176 L78.176,14.176 C78.3893333,14.176 78.552,14.2666667 78.664,14.448 C78.776,14.6293333 78.832,14.848 78.832,15.104 C78.832,15.3173333 78.7813333,15.52 78.68,15.712 C78.5786667,15.904 78.4106667,16 78.176,16 L72.48,16 Z" id="path-10"></path>
        <path d="M81.088,16 C80.832,16 80.5946667,15.944 80.376,15.832 C80.1573333,15.72 80.048,15.5573333 80.048,15.344 L80.048,4.96 C80.048,4.736 80.1573333,4.57066667 80.376,4.464 C80.5946667,4.35733333 80.832,4.304 81.088,4.304 C81.344,4.304 81.5546667,4.33066667 81.72,4.384 C81.8853333,4.43733333 82.04,4.54133333 82.184,4.696 C82.328,4.85066667 82.48,5.088 82.64,5.408 L85.728,11.376 L85.728,4.944 C85.728,4.72 85.8373333,4.55733333 86.056,4.456 C86.2746667,4.35466667 86.512,4.304 86.768,4.304 C87.0346667,4.304 87.2746667,4.35466667 87.488,4.456 C87.7013333,4.55733333 87.808,4.72 87.808,4.944 L87.808,15.344 C87.808,15.5573333 87.7013333,15.72 87.488,15.832 C87.2746667,15.944 87.0346667,16 86.768,16 C86.5226667,16 86.296,15.952 86.088,15.856 C85.88,15.76 85.712,15.5893333 85.584,15.344 L82.128,8.912 L82.128,15.344 C82.128,15.5573333 82.0213333,15.72 81.808,15.832 C81.5946667,15.944 81.3546667,16 81.088,16 Z" id="path-11"></path>
        <path d="M96.064,16.144 C95.3706667,16.144 94.744,16.0426667 94.184,15.84 C93.624,15.6373333 93.1813333,15.384 92.856,15.08 C92.5306667,14.776 92.368,14.4693333 92.368,14.16 C92.368,14.0106667 92.408,13.848 92.488,13.672 C92.568,13.496 92.6773333,13.3466667 92.816,13.224 C92.9546667,13.1013333 93.1093333,13.04 93.28,13.04 C93.4506667,13.04 93.6106667,13.1013333 93.76,13.224 C93.9093333,13.3466667 94.08,13.4906667 94.272,13.656 C94.464,13.8213333 94.6986667,13.9653333 94.976,14.088 C95.2533333,14.2106667 95.5946667,14.272 96,14.272 C96.32,14.272 96.616,14.2213333 96.888,14.12 C97.16,14.0186667 97.3786667,13.8666667 97.544,13.664 C97.7093333,13.4613333 97.792,13.2 97.792,12.88 C97.792,12.5386667 97.7013333,12.2506667 97.52,12.016 C97.3386667,11.7813333 97.0933333,11.5786667 96.784,11.408 C96.4746667,11.2373333 96.1386667,11.072 95.776,10.912 C95.4133333,10.752 95.048,10.5813333 94.68,10.4 C94.312,10.2186667 93.976,10 93.672,9.744 C93.368,9.488 93.1226667,9.17333333 92.936,8.8 C92.7493333,8.42666667 92.656,7.968 92.656,7.424 C92.656,6.82666667 92.7706667,6.32533333 93,5.92 C93.2293333,5.51466667 93.5333333,5.18666667 93.912,4.936 C94.2906667,4.68533333 94.7093333,4.504 95.168,4.392 C95.6266667,4.28 96.0853333,4.224 96.544,4.224 C96.7893333,4.224 97.08,4.24266667 97.416,4.28 C97.752,4.31733333 98.088,4.384 98.424,4.48 C98.76,4.576 99.0373333,4.70666667 99.256,4.872 C99.4746667,5.03733333 99.584,5.248 99.584,5.504 C99.584,5.632 99.5546667,5.78133333 99.496,5.952 C99.4373333,6.12266667 99.3466667,6.27466667 99.224,6.408 C99.1013333,6.54133333 98.944,6.608 98.752,6.608 C98.5813333,6.608 98.4133333,6.55733333 98.248,6.456 C98.0826667,6.35466667 97.8693333,6.25333333 97.608,6.152 C97.3466667,6.05066667 96.992,6 96.544,6 C96.1706667,6 95.8453333,6.05066667 95.568,6.152 C95.2906667,6.25333333 95.0826667,6.392 94.944,6.568 C94.8053333,6.744 94.736,6.96533333 94.736,7.232 C94.736,7.50933333 94.8293333,7.744 95.016,7.936 C95.2026667,8.128 95.448,8.29866667 95.752,8.448 C96.056,8.59733333 96.3893333,8.74666667 96.752,8.896 C97.1146667,9.04533333 97.48,9.21866667 97.848,9.416 C98.216,9.61333333 98.5546667,9.85066667 98.864,10.128 C99.1733333,10.4053333 99.4186667,10.7493333 99.6,11.16 C99.7813333,11.5706667 99.872,12.0746667 99.872,12.672 C99.872,13.4293333 99.7066667,14.0666667 99.376,14.584 C99.0453333,15.1013333 98.5946667,15.4906667 98.024,15.752 C97.4533333,16.0133333 96.8,16.144 96.064,16.144 Z" id="path-12"></path>
        <path d="M101.792,16 C101.6,16 101.402667,15.9626667 101.2,15.888 C100.997333,15.8133333 100.826667,15.712 100.688,15.584 C100.549333,15.456 100.48,15.3066667 100.48,15.136 C100.48,15.104 100.485333,15.0506667 100.496,14.976 L103.584,4.912 C103.658667,4.67733333 103.826667,4.50133333 104.088,4.384 C104.349333,4.26666667 104.629333,4.208 104.928,4.208 C105.237333,4.208 105.52,4.26666667 105.776,4.384 C106.032,4.50133333 106.197333,4.67733333 106.272,4.912 L109.36,14.976 C109.381333,15.0506667 109.392,15.104 109.392,15.136 C109.392,15.296 109.32,15.4426667 109.176,15.576 C109.032,15.7093333 108.858667,15.8133333 108.656,15.888 C108.453333,15.9626667 108.256,16 108.064,16 C107.893333,16 107.746667,15.9706667 107.624,15.912 C107.501333,15.8533333 107.418667,15.744 107.376,15.584 L106.768,13.456 L103.088,13.456 L102.496,15.584 C102.453333,15.744 102.368,15.8533333 102.24,15.912 C102.112,15.9706667 101.962667,16 101.792,16 Z M103.536,11.824 L106.32,11.824 L104.928,6.912 L103.536,11.824 Z" id="path-13"></path>
        <path d="M111.52,16 C111.264,16 111.026667,15.944 110.808,15.832 C110.589333,15.72 110.48,15.5573333 110.48,15.344 L110.48,4.96 C110.48,4.736 110.589333,4.57066667 110.808,4.464 C111.026667,4.35733333 111.264,4.304 111.52,4.304 C111.776,4.304 111.986667,4.33066667 112.152,4.384 C112.317333,4.43733333 112.472,4.54133333 112.616,4.696 C112.76,4.85066667 112.912,5.088 113.072,5.408 L116.16,11.376 L116.16,4.944 C116.16,4.72 116.269333,4.55733333 116.488,4.456 C116.706667,4.35466667 116.944,4.304 117.2,4.304 C117.466667,4.304 117.706667,4.35466667 117.92,4.456 C118.133333,4.55733333 118.24,4.72 118.24,4.944 L118.24,15.344 C118.24,15.5573333 118.133333,15.72 117.92,15.832 C117.706667,15.944 117.466667,16 117.2,16 C116.954667,16 116.728,15.952 116.52,15.856 C116.312,15.76 116.144,15.5893333 116.016,15.344 L112.56,8.912 L112.56,15.344 C112.56,15.5573333 112.453333,15.72 112.24,15.832 C112.026667,15.944 111.786667,16 111.52,16 Z" id="path-14"></path>
        <path d="M123.408,16 C123.141333,16 122.901333,15.944 122.688,15.832 C122.474667,15.72 122.368,15.5573333 122.368,15.344 L122.368,6.176 L120.016,6.176 C119.813333,6.176 119.653333,6.08 119.536,5.888 C119.418667,5.696 119.36,5.47733333 119.36,5.232 C119.36,5.008 119.413333,4.79733333 119.52,4.6 C119.626667,4.40266667 119.792,4.304 120.016,4.304 L126.784,4.304 C127.018667,4.304 127.186667,4.40266667 127.288,4.6 C127.389333,4.79733333 127.44,5.008 127.44,5.232 C127.44,5.47733333 127.384,5.696 127.272,5.888 C127.16,6.08 126.997333,6.176 126.784,6.176 L124.448,6.176 L124.448,15.344 C124.448,15.5573333 124.338667,15.72 124.12,15.832 C123.901333,15.944 123.664,16 123.408,16 Z" id="path-15"></path>
        <path d="M129.584,16 C129.328,16 129.090667,15.944 128.872,15.832 C128.653333,15.72 128.544,15.5573333 128.544,15.344 L128.544,4.944 C128.544,4.72 128.653333,4.55733333 128.872,4.456 C129.090667,4.35466667 129.328,4.304 129.584,4.304 C129.850667,4.304 130.090667,4.35466667 130.304,4.456 C130.517333,4.55733333 130.624,4.72 130.624,4.944 L130.624,15.344 C130.624,15.5573333 130.517333,15.72 130.304,15.832 C130.090667,15.944 129.850667,16 129.584,16 Z" id="path-16"></path>
        <path d="M133.056,16 C132.864,16 132.666667,15.9626667 132.464,15.888 C132.261333,15.8133333 132.090667,15.712 131.952,15.584 C131.813333,15.456 131.744,15.3066667 131.744,15.136 C131.744,15.104 131.749333,15.0506667 131.76,14.976 L134.848,4.912 C134.922667,4.67733333 135.090667,4.50133333 135.352,4.384 C135.613333,4.26666667 135.893333,4.208 136.192,4.208 C136.501333,4.208 136.784,4.26666667 137.04,4.384 C137.296,4.50133333 137.461333,4.67733333 137.536,4.912 L140.624,14.976 C140.645333,15.0506667 140.656,15.104 140.656,15.136 C140.656,15.296 140.584,15.4426667 140.44,15.576 C140.296,15.7093333 140.122667,15.8133333 139.92,15.888 C139.717333,15.9626667 139.52,16 139.328,16 C139.157333,16 139.010667,15.9706667 138.888,15.912 C138.765333,15.8533333 138.682667,15.744 138.64,15.584 L138.032,13.456 L134.352,13.456 L133.76,15.584 C133.717333,15.744 133.632,15.8533333 133.504,15.912 C133.376,15.9706667 133.226667,16 133.056,16 Z M134.8,11.824 L137.584,11.824 L136.192,6.912 L134.8,11.824 Z" id="path-17"></path>
        <path d="M145.376,16.096 C144.672,16.096 144.037333,15.976 143.472,15.736 C142.906667,15.496 142.458667,15.1066667 142.128,14.568 C141.797333,14.0293333 141.632,13.3173333 141.632,12.432 L141.632,7.968 C141.632,7.08266667 141.797333,6.37066667 142.128,5.832 C142.458667,5.29333333 142.904,4.904 143.464,4.664 C144.024,4.424 144.64,4.304 145.312,4.304 C146.058667,4.304 146.717333,4.42666667 147.288,4.672 C147.858667,4.91733333 148.309333,5.26933333 148.64,5.728 C148.970667,6.18666667 149.136,6.736 149.136,7.376 C149.136,7.77066667 149.050667,8.03466667 148.88,8.168 C148.709333,8.30133333 148.448,8.368 148.096,8.368 C147.818667,8.368 147.578667,8.32 147.376,8.224 C147.173333,8.128 147.066667,7.95733333 147.056,7.712 C147.045333,7.456 146.994667,7.208 146.904,6.968 C146.813333,6.728 146.653333,6.528 146.424,6.368 C146.194667,6.208 145.845333,6.128 145.376,6.128 C144.853333,6.128 144.442667,6.28 144.144,6.584 C143.845333,6.888 143.696,7.34933333 143.696,7.968 L143.696,12.432 C143.696,13.0506667 143.845333,13.512 144.144,13.816 C144.442667,14.12 144.853333,14.272 145.376,14.272 C145.898667,14.272 146.309333,14.12 146.608,13.816 C146.906667,13.512 147.056,13.0506667 147.056,12.432 L147.056,11.488 L145.76,11.488 C145.557333,11.488 145.4,11.4026667 145.288,11.232 C145.176,11.0613333 145.12,10.8746667 145.12,10.672 C145.12,10.4693333 145.176,10.2826667 145.288,10.112 C145.4,9.94133333 145.557333,9.856 145.76,9.856 L148.48,9.856 C148.693333,9.856 148.856,9.92266667 148.968,10.056 C149.08,10.1893333 149.136,10.3466667 149.136,10.528 L149.136,12.432 C149.136,13.3173333 148.970667,14.0293333 148.64,14.568 C148.309333,15.1066667 147.858667,15.496 147.288,15.736 C146.717333,15.976 146.08,16.096 145.376,16.096 Z" id="path-18"></path>
        <path d="M154.4,16.096 C153.696,16.096 153.061333,15.976 152.496,15.736 C151.930667,15.496 151.482667,15.1066667 151.152,14.568 C150.821333,14.0293333 150.656,13.3173333 150.656,12.432 L150.656,7.968 C150.656,7.08266667 150.821333,6.37066667 151.152,5.832 C151.482667,5.29333333 151.928,4.904 152.488,4.664 C153.048,4.424 153.685333,4.304 154.4,4.304 C155.104,4.304 155.741333,4.424 156.312,4.664 C156.882667,4.904 157.333333,5.29333333 157.664,5.832 C157.994667,6.37066667 158.16,7.08266667 158.16,7.968 L158.16,12.432 C158.16,13.3173333 157.994667,14.0293333 157.664,14.568 C157.333333,15.1066667 156.882667,15.496 156.312,15.736 C155.741333,15.976 155.104,16.096 154.4,16.096 Z M154.4,14.272 C154.922667,14.272 155.333333,14.1226667 155.632,13.824 C155.930667,13.5253333 156.08,13.0613333 156.08,12.432 L156.08,7.968 C156.08,7.33866667 155.930667,6.87466667 155.632,6.576 C155.333333,6.27733333 154.922667,6.128 154.4,6.128 C153.877333,6.128 153.466667,6.27733333 153.168,6.576 C152.869333,6.87466667 152.72,7.33866667 152.72,7.968 L152.72,12.432 C152.72,13.0613333 152.869333,13.5253333 153.168,13.824 C153.466667,14.1226667 153.877333,14.272 154.4,14.272 Z" id="path-19"></path>
    </defs>
    <g id="Heading-6" stroke="none" fill="none" fill-rule="nonzero" xlink:href="#path-1" stroke-width="1">
        <g id="TALLERES-EN-SANTIAGO" fill-rule="evenodd" transform="translate(-0.144, -4.208)" fill="#232A34">
            <g id="Trazado" fill-rule="nonzero">
                <use xlink:href="#path-2"></use>
                <use xlink:href="#path-2"></use>
            </g>
            <g id="Forma" fill-rule="nonzero">
                <use xlink:href="#path-3"></use>
                <use xlink:href="#path-3"></use>
            </g>
            <g id="Trazado" fill-rule="nonzero">
                <use xlink:href="#path-4"></use>
                <use xlink:href="#path-4"></use>
            </g>
            <g id="Trazado" fill-rule="nonzero">
                <use xlink:href="#path-5"></use>
                <use xlink:href="#path-5"></use>
            </g>
            <g id="Trazado" fill-rule="nonzero">
                <use xlink:href="#path-6"></use>
                <use xlink:href="#path-6"></use>
            </g>
            <g id="Forma" fill-rule="nonzero">
                <use xlink:href="#path-7"></use>
                <use xlink:href="#path-7"></use>
            </g>
            <g id="Trazado" fill-rule="nonzero">
                <use xlink:href="#path-8"></use>
                <use xlink:href="#path-8"></use>
            </g>
            <g id="Trazado" fill-rule="nonzero">
                <use xlink:href="#path-9"></use>
                <use xlink:href="#path-9"></use>
            </g>
            <g id="Trazado" fill-rule="nonzero">
                <use xlink:href="#path-10"></use>
                <use xlink:href="#path-10"></use>
            </g>
            <g id="Trazado" fill-rule="nonzero">
                <use xlink:href="#path-11"></use>
                <use xlink:href="#path-11"></use>
            </g>
            <g id="Trazado" fill-rule="nonzero">
                <use xlink:href="#path-12"></use>
                <use xlink:href="#path-12"></use>
            </g>
            <g id="Forma" fill-rule="nonzero">
                <use xlink:href="#path-13"></use>
                <use xlink:href="#path-13"></use>
            </g>
            <g id="Trazado" fill-rule="nonzero">
                <use xlink:href="#path-14"></use>
                <use xlink:href="#path-14"></use>
            </g>
            <g id="Trazado" fill-rule="nonzero">
                <use xlink:href="#path-15"></use>
                <use xlink:href="#path-15"></use>
            </g>
            <g id="Trazado" fill-rule="nonzero">
                <use xlink:href="#path-16"></use>
                <use xlink:href="#path-16"></use>
            </g>
            <g id="Forma" fill-rule="nonzero">
                <use xlink:href="#path-17"></use>
                <use xlink:href="#path-17"></use>
            </g>
            <g id="Trazado" fill-rule="nonzero">
                <use xlink:href="#path-18"></use>
                <use xlink:href="#path-18"></use>
            </g>
            <g id="Forma" fill-rule="nonzero">
                <use xlink:href="#path-19"></use>
                <use xlink:href="#path-19"></use>
            </g>
        </g>
    </g>
</svg>